<svg xmlns="http://www.w3.org/2000/svg" width="20" height="20" viewBox="0 0 20 20"><g><g><path fill="#fff" d="M19.799 17.502v1.25c0 .69-.554 1.25-1.238 1.25H1.236c-.684 0-1.238-.56-1.238-1.25v-3.75V1.247c0-.69.554-1.25 1.238-1.25H18.56c.684 0 1.238.56 1.238 1.25V17.502zM9.899 7.5C7.619 7.5 7.423 10 7.423 10s-.071 2.5 2.476 2.5c2.546 0 2.475-2.5 2.475-2.5s-.196-2.5-2.475-2.5zm7.425-5.001h-3.713v3.751h3.713zm0 7.502V8.75h-2.65c.103.401.175.815.175 1.25 0 2.762-2.217 5.001-4.95 5.001-2.735 0-4.95-2.239-4.95-5 0-.436.071-.85.174-1.251h-2.65v8.752h14.851V10z"/><path fill="#fff" d="M19.799 17.502v1.25c0 .69-.554 1.25-1.238 1.25H1.236c-.684 0-1.238-.56-1.238-1.25v-3.75V1.247c0-.69.554-1.25 1.238-1.25H18.56c.684 0 1.238.56 1.238 1.25V17.502zM9.899 7.5C7.619 7.5 7.423 10 7.423 10s-.071 2.5 2.476 2.5c2.546 0 2.475-2.5 2.475-2.5s-.196-2.5-2.475-2.5zm7.425-5.001h-3.713v3.751h3.713zm0 7.502V8.75h-2.65c.103.401.175.815.175 1.25 0 2.762-2.217 5.001-4.95 5.001-2.735 0-4.95-2.239-4.95-5 0-.436.071-.85.174-1.251h-2.65v8.752h14.851V10z"/></g></g></svg>