<svg width="19" height="12" fill="none" xmlns="http://www.w3.org/2000/svg"><mask id="a" maskUnits="userSpaceOnUse" x="0" y="0" width="12" height="12"><path fill-rule="evenodd" clip-rule="evenodd" d="M.002.032v11.965h11.963V.032H.002z" fill="#fff"/></mask><g mask="url(#a)"><path fill-rule="evenodd" clip-rule="evenodd" d="M6.562 7.25h2.923a3.718 3.718 0 0 1-3.53 2.479 3.723 3.723 0 0 1-3.68-3.566 3.717 3.717 0 0 1 3.709-3.86c.958 0 1.833.366 2.492.964a.403.403 0 0 0 .547-.002l1.074-1.01a.401.401 0 0 0 0-.583A5.962 5.962 0 0 0 6.104.033C2.803-.03.023 2.673 0 5.973a5.984 5.984 0 0 0 11.958.38c.004-.04.007-1.374.007-1.374H6.562a.401.401 0 0 0-.4.401v1.47c0 .221.179.4.4.4z" fill="#FBFCFD"/></g><path fill-rule="evenodd" clip-rule="evenodd" d="M17.045 4.955v-1.57A.384.384 0 0 0 16.661 3h-1.322a.384.384 0 0 0-.384.384v1.57h-1.57A.384.384 0 0 0 13 5.34v1.322c0 .212.172.384.384.384h1.57v1.57c0 .213.173.385.385.385h1.322a.384.384 0 0 0 .384-.384v-1.57h1.57A.384.384 0 0 0 19 6.66V5.339a.384.384 0 0 0-.384-.384h-1.57z" fill="#FBFCFD"/></svg>