<svg width="507" height="501" fill="none" xmlns="http://www.w3.org/2000/svg"><path fill-rule="evenodd" clip-rule="evenodd" d="M250.774 13.51l-30.339 75.847h166.867V13.51H250.774z" fill="#39B295"/><path fill-rule="evenodd" clip-rule="evenodd" d="M114.247 89.357h136.527V13.51H114.247v75.847z" fill="#59BBA8"/><path fill-rule="evenodd" clip-rule="evenodd" d="M.474 104.527v303.388h106.188L61.153 43.849C27.78 43.85.474 71.155.474 104.527z" fill="url(#paint0_linear)"/><path fill-rule="evenodd" clip-rule="evenodd" d="M61.153 43.85v364.065l189.621-30.339V43.849H61.154z" fill="#B72D33"/><path fill-rule="evenodd" clip-rule="evenodd" d="M14.992 392.687v-15.169h417.167v60.678H60.502c-25.094 0-45.51-20.416-45.51-45.509z" fill="url(#paint1_linear)"/><path fill-rule="evenodd" clip-rule="evenodd" d="M.49 407.915H.473c0-.227.001-.454.004-.681a61.958 61.958 0 0 1-.004-.682l.015-.015c.733-32.874 27.613-59.298 60.664-59.298h415.863v24.337a6 6 0 0 1-6 6h-23.035v83.655a6 6 0 0 1-6 6H61.153c-33.057 0-59.94-26.433-60.664-59.316zm30.331-.681c.362 16.442 13.803 29.658 30.332 29.658h356.488v-59.316H61.153c-16.529 0-29.97 13.217-30.332 29.658z" fill="url(#paint2_linear)"/><path fill="url(#paint3_linear)" d="M113.121 377.518h273.944v122.841H113.121z"/><mask id="a" maskUnits="userSpaceOnUse" x="113" y="377" width="275" height="124"><path fill="#fff" d="M113.121 377.518h273.944v122.841H113.121z"/></mask><g mask="url(#a)"><path opacity=".67" d="M211.812 376.735v72.803h-20.117v-47.705c-3.255 2.473-6.413 4.475-9.473 6.005-3.027 1.53-6.836 2.995-11.426 4.395v-16.309c6.771-2.181 12.028-4.801 15.772-7.861 3.743-3.06 6.673-6.836 8.789-11.328h16.455zm28.881 36.719c0-13.607 2.441-23.129 7.324-28.565 4.915-5.436 12.386-8.154 22.412-8.154 4.818 0 8.773.602 11.865 1.807 3.093 1.171 5.616 2.718 7.569 4.638 1.953 1.888 3.483 3.89 4.59 6.006 1.139 2.083 2.05 4.525 2.734 7.324 1.335 5.339 2.002 10.905 2.002 16.699 0 12.989-2.197 22.494-6.592 28.516-4.394 6.022-11.963 9.033-22.705 9.033-6.022 0-10.889-.96-14.6-2.881-3.71-1.92-6.754-4.736-9.13-8.447-1.726-2.637-3.077-6.234-4.053-10.791-.944-4.59-1.416-9.652-1.416-15.185zm19.726.048c0 9.115.798 15.349 2.393 18.702 1.628 3.32 3.971 4.98 7.031 4.98 2.018 0 3.76-.7 5.225-2.1 1.497-1.432 2.588-3.678 3.271-6.738.717-3.06 1.075-7.829 1.075-14.306 0-9.506-.814-15.886-2.442-19.141-1.595-3.288-4.004-4.932-7.226-4.932-3.288 0-5.664 1.677-7.129 5.03-1.465 3.32-2.198 9.489-2.198 18.505zm-36.742 122.299l-18.164 2.881c-.911-2.311-1.741-3.906-2.49-4.785-.716-.911-1.921-1.823-3.613-2.734v14.111c9.896 2.637 16.504 5.42 19.824 8.35 4.394 3.938 6.592 8.935 6.592 14.99 0 3.548-.798 6.803-2.393 9.765-1.562 2.963-3.581 5.437-6.055 7.422-2.441 1.986-5.045 3.435-7.812 4.346-2.767.879-6.152 1.4-10.156 1.562v9.229h-7.129v-9.229c-4.785-.423-8.675-1.188-11.67-2.294-2.962-1.14-5.534-2.702-7.715-4.688-2.148-1.986-3.809-4.118-4.98-6.396-1.172-2.312-2.051-5.095-2.637-8.35l19.726-2.295c.586 3.223 1.368 5.55 2.344 6.982 1.009 1.433 2.653 2.702 4.932 3.809v-17.236c-6.576-1.823-11.247-3.402-14.014-4.737-2.734-1.334-5.111-3.466-7.129-6.396-2.018-2.962-3.027-6.559-3.027-10.791 0-5.794 2.018-10.628 6.055-14.502 4.069-3.906 10.107-6.071 18.115-6.494v-4.834h7.129v4.834c7.291.456 12.858 2.181 16.699 5.176 3.874 2.994 6.396 7.096 7.568 12.304zm-31.396-4.883c-2.084.684-3.532 1.53-4.346 2.54-.814 1.009-1.221 2.197-1.221 3.564 0 1.432.407 2.686 1.221 3.76.846 1.041 2.295 1.92 4.346 2.636v-12.5zm7.129 48.047c2.767-.618 4.785-1.627 6.054-3.027 1.302-1.432 1.953-3.027 1.953-4.785 0-1.53-.553-2.93-1.66-4.199-1.074-1.302-3.19-2.507-6.347-3.614v15.625z" fill="url(#paint4_linear)"/></g><path fill="url(#paint5_linear)" d="M113.121 0h273.944v196.255H113.121z"/><path opacity=".67" d="M208.629 40.887v72.803h-20.117V65.984c-3.255 2.475-6.413 4.476-9.472 6.006-3.028 1.53-6.836 2.995-11.426 4.395V60.076c6.771-2.18 12.028-4.801 15.771-7.861 3.744-3.06 6.673-6.836 8.789-11.328h16.455zm28.881 36.719c0-13.607 2.442-23.129 7.324-28.565 4.916-5.436 12.387-8.154 22.413-8.154 4.817 0 8.772.602 11.865 1.806 3.092 1.172 5.615 2.719 7.568 4.64 1.953 1.887 3.483 3.89 4.59 6.005 1.139 2.083 2.051 4.525 2.734 7.324 1.335 5.339 2.002 10.905 2.002 16.7 0 12.988-2.197 22.493-6.591 28.515-4.395 6.022-11.963 9.033-22.706 9.033-6.022 0-10.888-.96-14.599-2.881-3.711-1.92-6.755-4.736-9.131-8.447-1.725-2.637-3.076-6.234-4.053-10.79-.944-4.59-1.416-9.653-1.416-15.186zm19.727.048c0 9.115.797 15.349 2.392 18.702 1.628 3.32 3.972 4.98 7.032 4.98 2.018 0 3.759-.7 5.224-2.1 1.498-1.432 2.588-3.678 3.272-6.738.716-3.06 1.074-7.829 1.074-14.306 0-9.506-.814-15.886-2.441-19.141-1.596-3.288-4.004-4.932-7.227-4.932-3.288 0-5.664 1.677-7.129 5.03-1.465 3.32-2.197 9.489-2.197 18.505zm-36.742 122.299l-18.164 2.881c-.912-2.311-1.742-3.906-2.491-4.785-.716-.912-1.92-1.823-3.613-2.734v14.111c9.896 2.637 16.504 5.42 19.824 8.35 4.395 3.938 6.592 8.935 6.592 14.99 0 3.548-.797 6.803-2.393 9.765-1.562 2.963-3.58 5.437-6.054 7.422-2.442 1.986-5.046 3.434-7.813 4.346-2.767.879-6.152 1.4-10.156 1.562v9.229h-7.129v-9.229c-4.785-.423-8.675-1.188-11.67-2.294-2.962-1.14-5.534-2.702-7.715-4.688-2.148-1.986-3.808-4.118-4.98-6.396-1.172-2.312-2.051-5.095-2.637-8.35l19.727-2.295c.586 3.223 1.367 5.55 2.344 6.982 1.009 1.433 2.652 2.702 4.931 3.809v-17.236c-6.575-1.823-11.247-3.402-14.014-4.737-2.734-1.334-5.11-3.466-7.128-6.396-2.019-2.962-3.028-6.559-3.028-10.791 0-5.794 2.018-10.628 6.055-14.502 4.069-3.906 10.107-6.071 18.115-6.494v-4.834h7.129v4.834c7.292.456 12.858 2.181 16.699 5.176 3.874 2.994 6.397 7.096 7.569 12.304zm-31.397-4.883c-2.083.684-3.532 1.53-4.346 2.539-.813 1.01-1.22 2.198-1.22 3.565 0 1.432.407 2.685 1.22 3.76.847 1.041 2.295 1.92 4.346 2.636v-12.5zm7.129 48.047c2.767-.618 4.785-1.627 6.055-3.027 1.302-1.432 1.953-3.027 1.953-4.785 0-1.53-.554-2.93-1.66-4.199-1.075-1.302-3.19-2.507-6.348-3.614v15.625z" fill="url(#paint6_linear)"/><path d="M59.968 43.612h411.048a6 6 0 0 1 6 6v297.922H59.968V43.612z" fill="url(#paint7_linear)"/><path d="M317.556 199.662c0-33.495 27.153-60.648 60.648-60.648H501a6 6 0 0 1 6 6V254.31a6 6 0 0 1-6 6H378.204c-33.495 0-60.648-27.153-60.648-60.648z" fill="url(#paint8_linear)"/><path fill-rule="evenodd" clip-rule="evenodd" d="M376.5 228c15.188 0 27.5-12.312 27.5-27.5S391.688 173 376.5 173 349 185.312 349 200.5s12.312 27.5 27.5 27.5z" fill="url(#paint9_linear)"/><defs><linearGradient id="paint0_linear" x1="-12.103" y1="145.693" x2="144.826" y2="276.749" gradientUnits="userSpaceOnUse"><stop stop-color="#1ACBFD"/><stop offset="1" stop-color="#345AFF"/></linearGradient><linearGradient id="paint1_linear" x1="-421.241" y1="257.169" x2="-420.275" y2="437.154" gradientUnits="userSpaceOnUse"><stop stop-color="#1ACBFD"/><stop offset="1" stop-color="#345AFF"/></linearGradient><linearGradient id="paint2_linear" x1="-321.068" y1="169.721" x2="-321.797" y2="457.456" gradientUnits="userSpaceOnUse"><stop stop-color="#1ACBFD"/><stop offset="1" stop-color="#345AFF"/></linearGradient><linearGradient id="paint3_linear" x1="480.436" y1="428.114" x2="321.796" y2="219.8" gradientUnits="userSpaceOnUse"><stop stop-color="#1CFFBE"/><stop offset="1" stop-color="#35E9F2"/></linearGradient><linearGradient id="paint4_linear" x1="-65.779" y1="550.762" x2="290.49" y2="669.738" gradientUnits="userSpaceOnUse"><stop stop-color="#17FAFF"/><stop offset="1" stop-color="#0093FF"/></linearGradient><linearGradient id="paint5_linear" x1="480.436" y1="80.834" x2="222.502" y2="-131.168" gradientUnits="userSpaceOnUse"><stop stop-color="#1CFFBE"/><stop offset="1" stop-color="#35E9F2"/></linearGradient><linearGradient id="paint6_linear" x1="-78.821" y1="214.914" x2="289.567" y2="343.247" gradientUnits="userSpaceOnUse"><stop stop-color="#17FAFF"/><stop offset="1" stop-color="#0093FF"/></linearGradient><linearGradient id="paint7_linear" x1="-132.76" y1="126.388" x2="4.475" y2="445.915" gradientUnits="userSpaceOnUse"><stop stop-color="#1ACBFD"/><stop offset="1" stop-color="#345AFF"/></linearGradient><linearGradient id="paint8_linear" x1="261.854" y1="188.419" x2="342.276" y2="355.334" gradientUnits="userSpaceOnUse"><stop stop-color="#1ACBFD"/><stop offset="1" stop-color="#345AFF"/></linearGradient><linearGradient id="paint9_linear" x1="420.832" y1="202.879" x2="370.59" y2="159.699" gradientUnits="userSpaceOnUse"><stop stop-color="#FCE38A"/><stop offset="1" stop-color="#F38181"/></linearGradient></defs></svg>