<svg xmlns="http://www.w3.org/2000/svg" width="392" height="609" viewBox="0 0 392 609"><defs><mask id="o7lqb" width="2" height="2" x="-1" y="-1"><path fill="#fff" d="M11 11h370v587H11z"/><path d="M21 11h125.01c-.007.332-.01.666-.01 1 0 27.614 22.386 50 50 50s50-22.386 50-50c0-.334-.003-.668-.01-1H371c5.523 0 10 4.477 10 10v567c0 5.523-4.477 10-10 10H21c-5.523 0-10-4.477-10-10V21c0-5.523 4.477-10 10-10z"/></mask><filter id="o7lqa" width="420" height="637" x="-14" y="-14" filterUnits="userSpaceOnUse"><feOffset in="SourceGraphic" result="FeOffset1227Out"/><feGaussianBlur in="FeOffset1227Out" result="FeGaussianBlur1228Out" stdDeviation="6 6"/></filter><clipPath id="o7lqc"><path d="M21 11h125.01c-.007.332-.01.666-.01 1 0 27.614 22.386 50 50 50s50-22.386 50-50c0-.334-.003-.668-.01-1H371c5.523 0 10 4.477 10 10v567c0 5.523-4.477 10-10 10H21c-5.523 0-10-4.477-10-10V21c0-5.523 4.477-10 10-10z"/></clipPath></defs><g><g><g filter="url(#o7lqa)"><path fill="none" d="M21 11h125.01c-.007.332-.01.666-.01 1 0 27.614 22.386 50 50 50s50-22.386 50-50c0-.334-.003-.668-.01-1H371c5.523 0 10 4.477 10 10v567c0 5.523-4.477 10-10 10H21c-5.523 0-10-4.477-10-10V21c0-5.523 4.477-10 10-10z" mask="url(&quot;#o7lqb&quot;)"/><path fill="#255381" fill-opacity=".08" d="M21 11h125.01c-.007.332-.01.666-.01 1 0 27.614 22.386 50 50 50s50-22.386 50-50c0-.334-.003-.668-.01-1H371c5.523 0 10 4.477 10 10v567c0 5.523-4.477 10-10 10H21c-5.523 0-10-4.477-10-10V21c0-5.523 4.477-10 10-10z"/></g><path fill="#fff" d="M21 11h125.01c-.007.332-.01.666-.01 1 0 27.614 22.386 50 50 50s50-22.386 50-50c0-.334-.003-.668-.01-1H371c5.523 0 10 4.477 10 10v567c0 5.523-4.477 10-10 10H21c-5.523 0-10-4.477-10-10V21c0-5.523 4.477-10 10-10z"/></g><g clip-path="url(#o7lqc)"><path fill="#a8c53a" d="M7-3h398v19H7z"/></g></g></svg>