<svg xmlns="http://www.w3.org/2000/svg" width="38" height="38" viewBox="0 0 38 38"><g><g><path fill="#00d15d" d="M34.068 17.233v3.539h3.936a18.928 18.928 0 0 1-2.138 7.157l-2.13-1.23-.708 1.226 2.117 1.223a19.198 19.198 0 0 1-5.943 5.966l-1.247-2.143-1.223.712 1.255 2.156a18.93 18.93 0 0 1-7.217 2.166V34.01h-3.538v3.995a18.915 18.915 0 0 1-7.217-2.166l1.256-2.156-1.223-.712L8.8 35.114a19.219 19.219 0 0 1-5.943-5.966l2.117-1.224-.708-1.226-2.13 1.23A18.954 18.954 0 0 1-.002 20.77h3.938v-3.538H0a18.953 18.953 0 0 1 2.138-7.158l2.13 1.23.708-1.225-2.117-1.223A19.21 19.21 0 0 1 8.802 2.89l1.247 2.143 1.224-.712-1.256-2.157a18.957 18.957 0 0 1 7.217-2.166v3.997h3.538V-.001c2.59.24 5.03.994 7.217 2.167l-1.255 2.156 1.223.713 1.247-2.143a19.207 19.207 0 0 1 5.943 5.965l-2.117 1.224.708 1.226 2.13-1.231a18.931 18.931 0 0 1 2.137 7.157zm-15.48 6.981v-.205c0-.794-.646-1.44-1.441-1.44H12.71c.287-.179.687-.415 1.197-.705l1.208-.687c1.063-.602 1.816-1.143 2.3-1.652.763-.795 1.15-1.721 1.15-2.756 0-1.34-.549-2.432-1.63-3.243-1.039-.781-2.44-1.177-4.16-1.177-2.215 0-3.791.692-4.686 2.056-.32.488-.546 1.079-.672 1.756-.069.371.03.75.268 1.037.256.308.642.485 1.058.485H9.75c.74 0 1.393-.502 1.519-1.167.046-.248.111-.442.19-.573.24-.397.718-.59 1.46-.59.546 0 .941.124 1.21.383.263.251.391.562.391.949 0 .495-.253.952-.77 1.395-.385.324-1.268.883-2.623 1.662-1.697.97-2.754 1.885-3.215 2.767a5.317 5.317 0 0 0-.65 1.61c-.08.367.007.743.241 1.036.251.313.653.5 1.072.5h8.57c.795 0 1.442-.647 1.442-1.44zm12.18-2.628c0-.786-.603-1.425-1.347-1.425-.212 0-.385-.215-.385-.48v-5.755c0-.795-.647-1.442-1.441-1.442h-1.46c-.685 0-1.511.413-1.923.957l-4.475 5.925c-.385.51-.675 1.378-.675 2.016v.19c0 .793.647 1.44 1.44 1.44h4.146c.265 0 .48.216.48.48v.722c0 .794.646 1.441 1.44 1.441h1.028c.794 0 1.44-.647 1.44-1.44v-.722c0-.265.174-.481.386-.481.743 0 1.347-.64 1.346-1.426zm-8.033-1.441l2.393-3.311v2.847a.48.48 0 0 1-.48.48h-1.925l.012-.016z"/></g></g></svg>