<svg xmlns="http://www.w3.org/2000/svg" width="39" height="34" viewBox="0 0 39 34"><g><g><path fill="#00d15d" d="M0 14.676v-1.094C0 10.797 5.073 8.54 11.331 8.54c1.096 0 2.156.07 3.158.199v10.78c-1.003.13-2.062.2-3.158.2-6.258 0-11.33-2.258-11.33-5.043zm0 5.63v-1.094c0-.354.082-.7.238-1.033 1.071 2.29 5.63 4.01 11.093 4.01 1.096 0 2.155-.07 3.158-.2v3.16c-1.003.13-2.062.199-3.158.199-6.258 0-11.33-2.258-11.33-5.043zm14.489 8.651c0 .612.144 1.203.423 1.763-1.126.167-2.33.257-3.581.257-6.258 0-11.33-2.257-11.33-5.042V24.84c0-.354.081-.7.237-1.033 1.071 2.29 5.63 4.01 11.093 4.01 1.096 0 2.155-.07 3.158-.2zm24.51-23.915v1.094c0 2.785-5.072 5.042-11.33 5.042S16.338 8.921 16.338 6.136V5.042C16.338 2.258 21.41 0 27.668 0 33.928 0 39 2.258 39 5.042zm-.237 4.597c.156.333.238.679.238 1.033v1.093c0 2.785-5.073 5.043-11.331 5.043-6.258 0-11.331-2.258-11.331-5.043v-1.093c0-.354.082-.7.238-1.033 1.071 2.29 5.63 4.01 11.093 4.01 5.462 0 10.022-1.72 11.093-4.01zm0 5.63c.156.333.238.678.238 1.032v1.094c0 2.785-5.073 5.042-11.331 5.042-6.258 0-11.331-2.257-11.331-5.042V16.3c0-.354.082-.699.238-1.032 1.071 2.29 5.63 4.01 11.093 4.01 5.462 0 10.022-1.72 11.093-4.01zm0 5.933c.156.333.238.678.238 1.033v1.093c0 2.785-5.073 5.042-11.331 5.042-6.258 0-11.331-2.257-11.331-5.042v-1.093c0-.354.082-.7.238-1.033 1.071 2.29 5.63 4.01 11.093 4.01 5.462 0 10.022-1.72 11.093-4.01zm0 5.63c.156.333.238.678.238 1.032v1.094C39 31.743 33.927 34 27.669 34c-6.258 0-11.331-2.257-11.331-5.042v-1.094c0-.354.082-.7.238-1.033 1.071 2.29 5.63 4.01 11.093 4.01 5.462 0 10.022-1.72 11.093-4.01z"/></g></g></svg>