<svg xmlns="http://www.w3.org/2000/svg" width="25" height="38" viewBox="0 0 25 38"><g><g><path fill="#00d15d" d="M12.5 0C19.39 0 25 5.789 25 12.9c0 7.111-5.61 12.9-12.5 12.9S0 20.012 0 12.9C0 5.79 5.61 0 12.5 0zm0 22.722c5.252-.009 9.508-4.401 9.517-9.822 0-5.424-4.26-9.821-9.517-9.821-5.256 0-9.517 4.397-9.517 9.821 0 5.425 4.261 9.822 9.517 9.822zm0 4.306a13.516 13.516 0 0 0 7.413-2.21L20.562 38l-7.22-6.422a1.172 1.172 0 0 0-1.665 0L4.457 38l.63-13.181a13.513 13.513 0 0 0 7.413 2.21zm0-22.874c4.678.007 8.468 3.919 8.475 8.746 0 4.83-3.794 8.747-8.475 8.747-4.68 0-8.475-3.916-8.475-8.747 0-4.83 3.795-8.746 8.475-8.746z"/></g></g></svg>