<svg xmlns="http://www.w3.org/2000/svg" width="36" height="35" viewBox="0 0 36 35"><g><g><path fill="#00d15d" d="M36 16.475v2.119c-.02.075-.053.15-.059.226-.15 2.135-.677 4.184-1.647 6.101-2.716 5.374-7.108 8.653-13.16 9.803-.662.126-1.337.186-2.006.276h-2.18c-.09-.02-.18-.05-.272-.056-3.126-.216-6.016-1.144-8.6-2.86C3.081 28.765.381 24.138.032 18.266c-.189-3.17.498-6.2 2.091-8.975C5.421 3.546 10.49.424 17.242.031c3.876-.225 7.476.783 10.7 2.9 4.246 2.787 6.845 6.65 7.777 11.555.125.657.19 1.326.28 1.989zm-24.214 4.433H7.662v-8.244H6.131c-.005.092-.013.17-.013.246 0 2.86-.002 5.719 0 8.578.001.584.287.867.88.87 1.512.005 3.023.003 4.535.002.079 0 .158-.012.253-.02v-1.432zm3.27-8.236H13.54v9.67h1.516v-9.67zm6.896.047c-.42-.044-.721.198-.848.692-.264 1.025-.524 2.051-.787 3.076-.172.666-.347 1.33-.52 1.996h-.066c-.033-.102-.07-.203-.097-.307-.403-1.565-.804-3.131-1.205-4.697-.158-.619-.502-.902-.97-.795-.495.113-.659.503-.488 1.154l1.396 5.317c.232.88.461 1.762.7 2.641.082.304.28.487.622.503.36.016.609-.128.738-.456.033-.085.054-.174.077-.262.69-2.678 1.38-5.356 2.068-8.035.101-.391-.194-.783-.62-.827zm7.206 4.064h-3.484v-2.695h3.461V12.65c-1.4 0-2.792-.011-4.184.006-.505.006-.76.327-.76.877-.003 2.688-.003 5.376 0 8.063 0 .62.283.888.928.89 1.031.003 2.062.001 3.092.002h.943v-1.515h-3.467v-2.681h3.47v-1.509z"/></g></g></svg>