<svg xmlns="http://www.w3.org/2000/svg" width="80" height="31" viewBox="0 0 80 31"><g><g><path fill="#fff" d="M25.703 25.733c-2.673 2.74-6.395 4.451-10.5 4.451C7.032 30.184.388 23.44.388 15.102.388 6.764 7.013.019 15.184.019c4.104 0 7.808 1.71 10.481 4.451a17.605 17.605 0 0 0-3.55 10.612 17.59 17.59 0 0 0 3.588 10.651zm-12.81-14.266c0-.272.114-.447.343-.544.23-.097.554-.155.936-.155.42 0 .878.116 1.394.33.515.214.954.564 1.298.991l3.284-3.304a8.019 8.019 0 0 0-2.578-1.594c-.973-.369-1.928-.602-2.92-.66V4.898h-2.273v1.671c-.61.098-1.203.311-1.794.564a5.282 5.282 0 0 0-1.547 1.03c-.42.428-.783.933-1.05 1.555-.248.603-.382 1.302-.382 2.1 0 .68.115 1.243.325 1.748.21.486.534.914.897 1.264s.783.66 1.28.894c.496.253.992.466 1.527.641.553.195 1.012.35 1.374.467.363.136.65.252.86.35.19.097.343.213.42.31a.567.567 0 0 1 .114.37.575.575 0 0 1-.363.563c-.229.098-.515.156-.802.156-.305 0-.649-.039-.954-.117a5.175 5.175 0 0 1-.917-.33 6.905 6.905 0 0 1-.84-.486 3.938 3.938 0 0 1-.649-.564l-3.207 3.48a8.923 8.923 0 0 0 2.5 1.515 9.53 9.53 0 0 0 2.998.72v1.69h2.234v-1.71a7.762 7.762 0 0 0 2.005-.486 5.17 5.17 0 0 0 1.699-1.069c.477-.466.878-.991 1.164-1.652.306-.622.459-1.38.459-2.216 0-.816-.191-1.457-.516-2.021a4.377 4.377 0 0 0-1.279-1.38 8.499 8.499 0 0 0-1.718-.894 21.668 21.668 0 0 0-1.776-.622c-.534-.175-.954-.31-1.183-.428-.249-.136-.363-.31-.363-.544zm35.205 3.615c0 3.46.992 6.667 2.692 9.388-2.711 3.479-6.892 5.695-11.57 5.695-8.171 0-14.815-6.764-14.815-15.083C24.405 6.764 31.068 0 39.22 0c4.678 0 8.859 2.216 11.57 5.714a17.527 17.527 0 0 0-2.692 9.368zm-10.424-3.906c.133-.195.267-.35.458-.467.172-.117.42-.214.65-.31.228-.079.495-.156.763-.195a5.56 5.56 0 0 1 .802-.059c.381 0 .782.04 1.24.117.44.078.821.175 1.108.272l1.47-3.751a4.156 4.156 0 0 0-.821-.233 7.834 7.834 0 0 0-.974-.175c-.343-.039-.687-.078-1.012-.097-.324-.02-.63-.04-.897-.04-.935 0-1.814.098-2.654.312a9.066 9.066 0 0 0-2.31.952 7.295 7.295 0 0 0-1.794 1.555 6.504 6.504 0 0 0-1.184 2.158h-1.28l-1.03 2.954h1.928c-.019.097-.019.175-.019.233v.389c0 .078 0 .175-.057.233H31.03l-.936 2.896h2.33c.21.797.534 1.477.973 2.119.44.641.955 1.185 1.566 1.613a7.185 7.185 0 0 0 2.08 1.01c.783.234 1.623.35 2.54.35.897 0 1.66-.077 2.329-.214.668-.174 1.184-.33 1.566-.544l-.669-3.887c-.286.175-.687.311-1.183.428a6.818 6.818 0 0 1-1.528.175 5.17 5.17 0 0 1-1.622-.273c-.516-.174-.879-.447-1.07-.777h3.208l.954-2.896h-4.792c-.019-.117-.019-.194-.019-.272v-.214-.175c0-.058 0-.136.02-.233h5.02l1.012-2.954zM80 15.082c0 8.319-6.644 15.063-14.815 15.063-8.152 0-14.815-6.763-14.815-15.082S57.014 0 65.185 0 80 6.764 80 15.082zm-8.725-3.848H69.94c0-.058.019-.117.019-.175.019-.058.019-.136.019-.214 0-1.613-.477-2.876-1.432-3.79-.935-.933-2.31-1.4-4.047-1.4-1.05 0-1.948.118-2.711.37a8.643 8.643 0 0 0-1.871.816l1.088 2.935c.439-.233.878-.447 1.355-.622.497-.175 1.07-.272 1.795-.272.744 0 1.336.136 1.718.408.42.273.611.661.611 1.205 0 .234-.038.486-.115.7h-7.865v2.507h4.964c-.516.273-1.012.584-1.509.895-.496.31-.954.68-1.336 1.088h-2.12v2.546h.975v.37c0 1.593.496 2.837 1.47 3.731.973.894 2.5 1.36 4.562 1.36 1.356 0 2.444-.174 3.284-.466.821-.291 1.451-.602 1.852-.855l-1.069-2.954a16.43 16.43 0 0 1-1.604.719c-.61.233-1.412.35-2.367.35-.936 0-1.623-.214-2.005-.564-.42-.389-.61-.816-.61-1.36 0-.156 0-.273.019-.35h8.266v-2.488h-5.918c.515-.311 1.03-.642 1.584-.953.554-.31 1.05-.68 1.509-1.05h2.825z"/><path fill="#444" d="M25.703 25.733c-2.673 2.74-6.395 4.451-10.5 4.451C7.032 30.184.388 23.44.388 15.102.388 6.764 7.013.019 15.184.019c4.104 0 7.808 1.71 10.481 4.451a17.605 17.605 0 0 0-3.55 10.612 17.59 17.59 0 0 0 3.588 10.651zm-12.81-14.266c0-.272.114-.447.343-.544.23-.097.554-.155.936-.155.42 0 .878.116 1.394.33.515.214.954.564 1.298.991l3.284-3.304a8.019 8.019 0 0 0-2.578-1.594c-.973-.369-1.928-.602-2.92-.66V4.898h-2.273v1.671c-.61.098-1.203.311-1.794.564a5.282 5.282 0 0 0-1.547 1.03c-.42.428-.783.933-1.05 1.555-.248.603-.382 1.302-.382 2.1 0 .68.115 1.243.325 1.748.21.486.534.914.897 1.264s.783.66 1.28.894c.496.253.992.466 1.527.641.553.195 1.012.35 1.374.467.363.136.65.252.86.35.19.097.343.213.42.31a.567.567 0 0 1 .114.37.575.575 0 0 1-.363.563c-.229.098-.515.156-.802.156-.305 0-.649-.039-.954-.117a5.175 5.175 0 0 1-.917-.33 6.905 6.905 0 0 1-.84-.486 3.938 3.938 0 0 1-.649-.564l-3.207 3.48a8.923 8.923 0 0 0 2.5 1.515 9.53 9.53 0 0 0 2.998.72v1.69h2.234v-1.71a7.762 7.762 0 0 0 2.005-.486 5.17 5.17 0 0 0 1.699-1.069c.477-.466.878-.991 1.164-1.652.306-.622.459-1.38.459-2.216 0-.816-.191-1.457-.516-2.021a4.377 4.377 0 0 0-1.279-1.38 8.499 8.499 0 0 0-1.718-.894 21.668 21.668 0 0 0-1.776-.622c-.534-.175-.954-.31-1.183-.428-.249-.136-.363-.31-.363-.544zm35.205 3.615c0 3.46.992 6.667 2.692 9.388-2.711 3.479-6.892 5.695-11.57 5.695-8.171 0-14.815-6.764-14.815-15.083C24.405 6.764 31.068 0 39.22 0c4.678 0 8.859 2.216 11.57 5.714a17.527 17.527 0 0 0-2.692 9.368zm-10.424-3.906c.133-.195.267-.35.458-.467.172-.117.42-.214.65-.31.228-.079.495-.156.763-.195a5.56 5.56 0 0 1 .802-.059c.381 0 .782.04 1.24.117.44.078.821.175 1.108.272l1.47-3.751a4.156 4.156 0 0 0-.821-.233 7.834 7.834 0 0 0-.974-.175c-.343-.039-.687-.078-1.012-.097-.324-.02-.63-.04-.897-.04-.935 0-1.814.098-2.654.312a9.066 9.066 0 0 0-2.31.952 7.295 7.295 0 0 0-1.794 1.555 6.504 6.504 0 0 0-1.184 2.158h-1.28l-1.03 2.954h1.928c-.019.097-.019.175-.019.233v.389c0 .078 0 .175-.057.233H31.03l-.936 2.896h2.33c.21.797.534 1.477.973 2.119.44.641.955 1.185 1.566 1.613a7.185 7.185 0 0 0 2.08 1.01c.783.234 1.623.35 2.54.35.897 0 1.66-.077 2.329-.214.668-.174 1.184-.33 1.566-.544l-.669-3.887c-.286.175-.687.311-1.183.428a6.818 6.818 0 0 1-1.528.175 5.17 5.17 0 0 1-1.622-.273c-.516-.174-.879-.447-1.07-.777h3.208l.954-2.896h-4.792c-.019-.117-.019-.194-.019-.272v-.214-.175c0-.058 0-.136.02-.233h5.02l1.012-2.954zM80 15.082c0 8.319-6.644 15.063-14.815 15.063-8.152 0-14.815-6.763-14.815-15.082S57.014 0 65.185 0 80 6.764 80 15.082zm-8.725-3.848H69.94c0-.058.019-.117.019-.175.019-.058.019-.136.019-.214 0-1.613-.477-2.876-1.432-3.79-.935-.933-2.31-1.4-4.047-1.4-1.05 0-1.948.118-2.711.37a8.643 8.643 0 0 0-1.871.816l1.088 2.935c.439-.233.878-.447 1.355-.622.497-.175 1.07-.272 1.795-.272.744 0 1.336.136 1.718.408.42.273.611.661.611 1.205 0 .234-.038.486-.115.7h-7.865v2.507h4.964c-.516.273-1.012.584-1.509.895-.496.31-.954.68-1.336 1.088h-2.12v2.546h.975v.37c0 1.593.496 2.837 1.47 3.731.973.894 2.5 1.36 4.562 1.36 1.356 0 2.444-.174 3.284-.466.821-.291 1.451-.602 1.852-.855l-1.069-2.954a16.43 16.43 0 0 1-1.604.719c-.61.233-1.412.35-2.367.35-.936 0-1.623-.214-2.005-.564-.42-.389-.61-.816-.61-1.36 0-.156 0-.273.019-.35h8.266v-2.488h-5.918c.515-.311 1.03-.642 1.584-.953.554-.31 1.05-.68 1.509-1.05h2.825z"/></g></g></svg>