<svg width="276" height="275" viewBox="0 0 276 275" fill="none" xmlns="http://www.w3.org/2000/svg">
<path fill-rule="evenodd" clip-rule="evenodd" d="M145.083 197.039L167.342 174.78C217.017 125.105 226.457 74.4809 228.201 55.5031C228.39 53.4349 227.699 51.4175 226.241 49.9595C224.81 48.5291 222.8 47.7888 220.76 47.9493C201.651 49.5622 150.62 58.5947 100.888 108.326L78.6006 130.614L71.8006 129.315C58.7082 126.915 45.0796 131.202 35.5227 140.759L8.9325 167.349C7.36672 168.915 6.77048 171.238 7.3703 173.333C8.01173 175.456 9.7339 177.023 11.8801 177.406L33.8756 181.599C40.0275 182.786 45.6934 185.757 50.1227 190.187L59.7277 199.792L46.8346 212.685C44.4648 215.055 44.4538 218.852 46.7756 221.174L54.4664 228.865C56.7882 231.187 60.579 231.169 62.9488 228.799L75.8419 215.906L85.4537 225.518C89.883 229.947 92.8829 235.585 94.0412 241.765L98.2347 263.76C98.6176 265.907 100.212 267.656 102.307 268.27C104.43 268.898 106.726 268.274 108.292 266.708L134.882 240.118C144.439 230.561 148.697 216.961 146.325 203.84L145.083 197.039ZM149.991 125.671C141.93 117.61 141.908 104.51 149.966 96.4509C158.053 88.3643 171.153 88.3868 179.214 96.4474C187.282 104.515 187.276 117.588 179.19 125.674C171.131 133.733 158.058 133.738 149.991 125.671Z" fill="white"/>
</svg>
