<svg width="261" height="261" viewBox="0 0 261 261" fill="none" xmlns="http://www.w3.org/2000/svg">
<path fill-rule="evenodd" clip-rule="evenodd" d="M11.8822 130.246L94.6617 47.4667C101.235 40.8935 112.419 41.383 119.59 48.5536L130.267 59.2312L34.4945 155.004C28.6236 160.875 18.8877 160.595 12.2586 154.387C5.73435 147.141 5.5612 136.567 11.8822 130.246Z" fill="white"/>
<path fill-rule="evenodd" clip-rule="evenodd" d="M157.71 40.6505L144.538 53.8231C144.042 54.3192 143.582 54.852 143.163 55.4049C143.073 55.5222 142.965 55.6295 142.862 55.7334C142.691 55.9043 142.483 56.005 142.272 56.1358C142.168 56.2196 142.087 56.3469 141.96 56.4006L39.5056 158.855C38.9425 159.418 38.3661 159.941 37.7629 160.437C37.5685 160.605 37.3608 160.739 37.163 160.91C36.7442 161.222 36.3488 161.537 35.9199 161.812C35.6686 161.983 35.3973 162.127 35.1594 162.285C34.754 162.53 34.3754 162.781 33.9834 162.993C33.6953 163.147 33.3939 163.268 33.1058 163.422C32.7272 163.594 32.3487 163.792 31.9534 163.973C31.652 164.094 31.3405 164.198 31.0357 164.315C30.6438 164.473 30.2653 164.617 29.8734 164.722C29.5586 164.829 29.2338 164.92 28.9055 165.014C28.5271 165.105 28.1353 165.209 27.7568 165.3C27.4153 165.381 27.0871 165.421 26.7355 165.485C26.3571 165.549 25.9753 165.617 25.5702 165.654C25.242 165.694 24.9005 165.722 24.5657 165.749C24.2643 165.763 23.9864 165.8 23.6851 165.813L105.921 248.049C112.82 254.948 124.042 254.936 130.94 248.038L248.019 130.959C254.92 124.058 254.93 112.839 248.03 105.939L182.727 40.6358C175.828 33.7366 164.612 33.7492 157.71 40.6505ZM195.201 124.175C187.633 131.744 175.326 131.771 167.764 124.209C160.213 116.658 160.227 104.337 167.795 96.7689C175.377 89.1871 187.684 89.1867 195.235 96.738C202.797 104.299 202.783 116.593 195.201 124.175Z" fill="white"/>
</svg>
