<svg width="181" height="234" viewBox="0 0 181 234" fill="none" xmlns="http://www.w3.org/2000/svg">
<path fill-rule="evenodd" clip-rule="evenodd" d="M27.493 202.355C28.7262 198.707 32.011 196.275 35.6921 196.275H167.637C171.845 196.275 175.454 199.44 176.203 203.791L180.146 226.643C180.323 227.689 180.287 228.777 179.94 229.773C179.11 232.16 177.005 233.625 174.736 233.625H24.848C23.719 233.625 22.5941 233.329 21.6633 232.663C19.4786 231.108 18.6922 228.308 19.5188 225.876L27.493 202.355Z" fill="white"/>
<path fill-rule="evenodd" clip-rule="evenodd" d="M1.17874 83.5738L43.7531 26.6004L35.5592 6.83465C34.8369 5.09241 35.2729 3.13721 36.6854 1.77199C38.0979 0.40769 40.2492 -0.1325 42.2517 0.375426L82.3927 10.5044C86.3192 10.4399 101.052 10.71 117.395 17.3896C134.661 24.447 157.055 40.2444 165.66 75.4101C177.535 123.957 165.975 161.017 158.803 177.6H45.117L34.9702 168.547C33.1299 166.905 32.823 164.341 34.2314 162.39C43.5919 149.412 65.6742 116.734 74.2112 96.4001C71.0824 97.3542 67.5393 97.97 63.7936 97.7967C58.465 97.5487 53.6013 95.8055 49.2832 92.6114L33.6992 101.884C28.8831 104.746 22.9138 105.629 17.3197 104.304C11.7255 102.978 7.03125 99.5721 4.44391 94.9519L0.835694 88.5139C-0.0529295 86.933 0.076229 85.046 1.17874 83.5738ZM60.9521 51.8677H68.4671C71.5226 51.8677 73.9973 49.6571 73.9973 46.934C73.9973 44.2082 71.5226 42.0014 68.4671 42.0014H60.9521C57.8956 42.0014 55.4219 44.2082 55.4219 46.934C55.4219 49.6571 57.8956 51.8677 60.9521 51.8677Z" fill="white"/>
</svg>
