<svg width="507" height="501" viewBox="0 0 507 501" fill="none" xmlns="http://www.w3.org/2000/svg">
<path fill-rule="evenodd" clip-rule="evenodd" d="M250.774 13.5102L220.435 89.3572H387.302V13.5102H250.774Z" fill="#39B295"/>
<path fill-rule="evenodd" clip-rule="evenodd" d="M114.247 89.3572H250.774V13.5102H114.247V89.3572Z" fill="#59BBA8"/>
<path fill-rule="evenodd" clip-rule="evenodd" d="M0.474121 104.527V407.915H106.662L61.1533 43.8493C27.7799 43.8493 0.474121 71.1546 0.474121 104.527Z" fill="url(#paint0_linear)"/>
<path fill-rule="evenodd" clip-rule="evenodd" d="M61.1533 43.8493V407.915L250.774 377.576V43.8493H61.1533Z" fill="#B72D33"/>
<path fill-rule="evenodd" clip-rule="evenodd" d="M14.9917 392.687V377.518H432.159V438.196H60.5018C35.408 438.196 14.9917 417.78 14.9917 392.687Z" fill="url(#paint1_linear)"/>
<path fill-rule="evenodd" clip-rule="evenodd" d="M0.489125 407.915H0.474121C0.474121 407.688 0.475372 407.461 0.477869 407.234C0.475372 407.007 0.474121 406.78 0.474121 406.552L0.489466 406.537C1.22217 373.663 28.1015 347.239 61.1533 347.239H477.016V371.576C477.016 374.89 474.33 377.576 471.016 377.576H447.981V461.231C447.981 464.544 445.294 467.231 441.981 467.231H61.1533C28.0964 467.231 1.21378 440.798 0.489125 407.915ZM30.8212 407.234C31.1835 423.676 44.6242 436.892 61.1533 436.892H417.641V377.576H61.1533C44.6242 377.576 31.1835 390.793 30.8212 407.234Z" fill="url(#paint2_linear)"/>
<rect x="113.121" y="377.518" width="273.944" height="122.841" fill="url(#paint3_linear)"/>
<mask id="mask0" mask-type="alpha" maskUnits="userSpaceOnUse" x="113" y="377" width="275" height="124">
<rect x="113.121" y="377.518" width="273.944" height="122.841" fill="white"/>
</mask>
<g mask="url(#mask0)">
<path opacity="0.67" d="M211.812 376.735V449.538H191.695V401.833C188.44 404.306 185.282 406.308 182.222 407.838C179.195 409.368 175.386 410.833 170.796 412.233V395.924C177.567 393.743 182.824 391.123 186.568 388.063C190.311 385.003 193.241 381.227 195.357 376.735H211.812ZM240.693 413.454C240.693 399.847 243.134 390.325 248.017 384.889C252.932 379.453 260.403 376.735 270.429 376.735C275.247 376.735 279.202 377.337 282.294 378.542C285.387 379.713 287.91 381.26 289.863 383.18C291.816 385.068 293.346 387.07 294.453 389.186C295.592 391.269 296.503 393.711 297.187 396.51C298.522 401.849 299.189 407.415 299.189 413.209C299.189 426.198 296.992 435.703 292.597 441.725C288.203 447.747 280.634 450.758 269.892 450.758C263.87 450.758 259.003 449.798 255.292 447.877C251.582 445.957 248.538 443.141 246.162 439.43C244.436 436.793 243.085 433.196 242.109 428.639C241.165 424.049 240.693 418.987 240.693 413.454ZM260.419 413.502C260.419 422.617 261.217 428.851 262.812 432.204C264.44 435.524 266.783 437.184 269.843 437.184C271.861 437.184 273.603 436.484 275.068 435.084C276.565 433.652 277.656 431.406 278.339 428.346C279.056 425.286 279.414 420.517 279.414 414.04C279.414 404.534 278.6 398.154 276.972 394.899C275.377 391.611 272.968 389.967 269.746 389.967C266.458 389.967 264.082 391.644 262.617 394.997C261.152 398.317 260.419 404.486 260.419 413.502ZM223.677 535.801L205.513 538.682C204.602 536.371 203.772 534.776 203.023 533.897C202.307 532.986 201.102 532.074 199.41 531.163V545.274C209.306 547.911 215.914 550.694 219.234 553.624C223.628 557.562 225.826 562.559 225.826 568.614C225.826 572.162 225.028 575.417 223.433 578.379C221.871 581.342 219.852 583.816 217.378 585.801C214.937 587.787 212.333 589.236 209.566 590.147C206.799 591.026 203.414 591.547 199.41 591.709V600.938H192.281V591.709C187.496 591.286 183.606 590.521 180.611 589.415C177.649 588.275 175.077 586.713 172.896 584.727C170.748 582.741 169.087 580.609 167.916 578.331C166.744 576.019 165.865 573.236 165.279 569.981L185.005 567.686C185.591 570.909 186.373 573.236 187.349 574.668C188.358 576.101 190.002 577.37 192.281 578.477V561.241C185.705 559.418 181.034 557.839 178.267 556.504C175.533 555.17 173.156 553.038 171.138 550.108C169.12 547.146 168.111 543.549 168.111 539.317C168.111 533.523 170.129 528.689 174.166 524.815C178.235 520.909 184.273 518.744 192.281 518.321V513.487H199.41V518.321C206.701 518.777 212.268 520.502 216.109 523.497C219.983 526.491 222.505 530.593 223.677 535.801ZM192.281 530.918C190.197 531.602 188.749 532.448 187.935 533.458C187.121 534.467 186.714 535.655 186.714 537.022C186.714 538.454 187.121 539.708 187.935 540.782C188.781 541.823 190.23 542.702 192.281 543.418V530.918ZM199.41 578.965C202.177 578.347 204.195 577.338 205.464 575.938C206.766 574.506 207.417 572.911 207.417 571.153C207.417 569.623 206.864 568.223 205.757 566.954C204.683 565.652 202.567 564.447 199.41 563.34V578.965Z" fill="url(#paint4_linear)"/>
</g>
<rect x="113.121" width="273.944" height="196.255" fill="url(#paint5_linear)"/>
<path opacity="0.67" d="M208.629 40.8868V113.69H188.512V65.9845C185.257 68.4585 182.099 70.4604 179.04 71.9904C176.012 73.5203 172.204 74.9851 167.614 76.3849V60.0763C174.385 57.8953 179.642 55.2749 183.385 52.215C187.129 49.1551 190.058 45.379 192.174 40.8868H208.629ZM237.51 77.6056C237.51 63.9988 239.952 54.4773 244.834 49.0411C249.75 43.6049 257.221 40.8868 267.247 40.8868C272.064 40.8868 276.019 41.4891 279.112 42.6935C282.204 43.8654 284.727 45.4116 286.68 47.3322C288.633 49.2202 290.163 51.2221 291.27 53.338C292.409 55.4213 293.321 57.8628 294.004 60.6622C295.339 66.0008 296.006 71.5672 296.006 77.3615C296.006 90.3497 293.809 99.8549 289.415 105.877C285.02 111.899 277.452 114.91 266.709 114.91C260.687 114.91 255.821 113.95 252.11 112.029C248.399 110.109 245.355 107.293 242.979 103.582C241.254 100.945 239.903 97.3484 238.926 92.7911C237.982 88.2013 237.51 83.1394 237.51 77.6056ZM257.237 77.6544C257.237 86.769 258.034 93.0027 259.629 96.3556C261.257 99.6759 263.601 101.336 266.661 101.336C268.679 101.336 270.42 100.636 271.885 99.2365C273.383 97.8042 274.473 95.5581 275.157 92.4982C275.873 89.4383 276.231 84.6694 276.231 78.1915C276.231 68.6863 275.417 62.3061 273.79 59.0509C272.194 55.7631 269.786 54.1193 266.563 54.1193C263.275 54.1193 260.899 55.7957 259.434 59.1486C257.969 62.4689 257.237 68.6375 257.237 77.6544ZM220.495 199.953L202.331 202.834C201.419 200.523 200.589 198.928 199.84 198.049C199.124 197.137 197.92 196.226 196.227 195.315V209.426C206.123 212.063 212.731 214.846 216.051 217.776C220.446 221.714 222.643 226.711 222.643 232.766C222.643 236.314 221.846 239.569 220.25 242.531C218.688 245.494 216.67 247.968 214.196 249.953C211.754 251.939 209.15 253.387 206.383 254.299C203.616 255.178 200.231 255.699 196.227 255.861V265.09H189.098V255.861C184.313 255.438 180.423 254.673 177.428 253.567C174.466 252.427 171.894 250.865 169.713 248.879C167.565 246.893 165.905 244.761 164.733 242.483C163.561 240.171 162.682 237.388 162.096 234.133L181.823 231.838C182.409 235.061 183.19 237.388 184.167 238.82C185.176 240.253 186.819 241.522 189.098 242.629V225.393C182.523 223.57 177.851 221.991 175.084 220.656C172.35 219.322 169.974 217.19 167.956 214.26C165.937 211.298 164.928 207.701 164.928 203.469C164.928 197.675 166.946 192.841 170.983 188.967C175.052 185.061 181.09 182.896 189.098 182.473V177.639H196.227V182.473C203.519 182.929 209.085 184.654 212.926 187.649C216.8 190.643 219.323 194.745 220.495 199.953ZM189.098 195.07C187.015 195.754 185.566 196.6 184.752 197.609C183.939 198.619 183.532 199.807 183.532 201.174C183.532 202.606 183.939 203.859 184.752 204.934C185.599 205.975 187.047 206.854 189.098 207.57V195.07ZM196.227 243.117C198.994 242.499 201.012 241.49 202.282 240.09C203.584 238.658 204.235 237.063 204.235 235.305C204.235 233.775 203.681 232.375 202.575 231.106C201.5 229.804 199.385 228.599 196.227 227.492V243.117Z" fill="url(#paint6_linear)"/>
<path d="M59.9678 43.6122H471.016C474.33 43.6122 477.016 46.2984 477.016 49.6122V347.534H59.9678V43.6122Z" fill="url(#paint7_linear)"/>
<path d="M317.556 199.662C317.556 166.167 344.709 139.014 378.204 139.014H501C504.313 139.014 507 141.7 507 145.014V254.31C507 257.624 504.313 260.31 501 260.31H378.204C344.709 260.31 317.556 233.157 317.556 199.662Z" fill="url(#paint8_linear)"/>
<path fill-rule="evenodd" clip-rule="evenodd" d="M376.5 228C391.688 228 404 215.688 404 200.5C404 185.312 391.688 173 376.5 173C361.312 173 349 185.312 349 200.5C349 215.688 361.312 228 376.5 228Z" fill="url(#paint9_linear)"/>
<defs>
<linearGradient id="paint0_linear" x1="-12.1026" y1="145.693" x2="144.826" y2="276.749" gradientUnits="userSpaceOnUse">
<stop stop-color="#1ACBFD"/>
<stop offset="1" stop-color="#345AFF"/>
</linearGradient>
<linearGradient id="paint1_linear" x1="-421.241" y1="257.169" x2="-420.275" y2="437.154" gradientUnits="userSpaceOnUse">
<stop stop-color="#1ACBFD"/>
<stop offset="1" stop-color="#345AFF"/>
</linearGradient>
<linearGradient id="paint2_linear" x1="-321.068" y1="169.721" x2="-321.797" y2="457.456" gradientUnits="userSpaceOnUse">
<stop stop-color="#1ACBFD"/>
<stop offset="1" stop-color="#345AFF"/>
</linearGradient>
<linearGradient id="paint3_linear" x1="480.436" y1="428.114" x2="321.796" y2="219.8" gradientUnits="userSpaceOnUse">
<stop stop-color="#1CFFBE"/>
<stop offset="1" stop-color="#35E9F2"/>
</linearGradient>
<linearGradient id="paint4_linear" x1="-65.7786" y1="550.762" x2="290.49" y2="669.738" gradientUnits="userSpaceOnUse">
<stop stop-color="#17FAFF"/>
<stop offset="1" stop-color="#0093FF"/>
</linearGradient>
<linearGradient id="paint5_linear" x1="480.436" y1="80.8337" x2="222.502" y2="-131.168" gradientUnits="userSpaceOnUse">
<stop stop-color="#1CFFBE"/>
<stop offset="1" stop-color="#35E9F2"/>
</linearGradient>
<linearGradient id="paint6_linear" x1="-78.8211" y1="214.914" x2="289.567" y2="343.247" gradientUnits="userSpaceOnUse">
<stop stop-color="#17FAFF"/>
<stop offset="1" stop-color="#0093FF"/>
</linearGradient>
<linearGradient id="paint7_linear" x1="-132.76" y1="126.388" x2="4.47472" y2="445.915" gradientUnits="userSpaceOnUse">
<stop stop-color="#1ACBFD"/>
<stop offset="1" stop-color="#345AFF"/>
</linearGradient>
<linearGradient id="paint8_linear" x1="261.854" y1="188.419" x2="342.276" y2="355.334" gradientUnits="userSpaceOnUse">
<stop stop-color="#1ACBFD"/>
<stop offset="1" stop-color="#345AFF"/>
</linearGradient>
<linearGradient id="paint9_linear" x1="420.832" y1="202.879" x2="370.59" y2="159.699" gradientUnits="userSpaceOnUse">
<stop stop-color="#FCE38A"/>
<stop offset="1" stop-color="#F38181"/>
</linearGradient>
</defs>
</svg>
