<svg xmlns="http://www.w3.org/2000/svg" width="101" height="31" viewBox="0 0 101 31"><g><g opacity=".85"><g opacity=".85"><path fill="#a3bde1" d="M47.36 12.688c0 .569-.118 1.06-.354 1.47a3.106 3.106 0 0 1-.986 1.04c-.414.294-.887.51-1.42.628a6.422 6.422 0 0 1-1.754.215c-.414 0-.808-.039-1.183-.058a5.192 5.192 0 0 1-1.123-.236 6.306 6.306 0 0 1-1.065-.47 5.132 5.132 0 0 1-.985-.706c-.04-.04-.04-.098 0-.118l1.34-1.765c.04-.039.099-.059.118-.039.454.353.927.628 1.36.765.474.176.986.274 1.46.274.354 0 .65-.039.886-.098.237-.059.454-.157.592-.274a.774.774 0 0 0 .296-.334.796.796 0 0 0 .098-.353.963.963 0 0 0-.118-.45 1.539 1.539 0 0 0-.414-.353c-.197-.118-.454-.216-.769-.334-.335-.117-.71-.235-1.183-.353-.532-.157-.985-.294-1.4-.47-.413-.177-.749-.393-1.005-.647a3.066 3.066 0 0 1-.63-.922c-.158-.353-.217-.765-.217-1.235 0-.51.098-.98.295-1.353.217-.393.473-.745.868-1.04.354-.294.808-.51 1.3-.647a5.631 5.631 0 0 1 1.657-.235c.65 0 1.3.059 1.932.176.63.118 1.241.393 1.892.824.04.04.06.098.04.118l-1.065 1.921c-.04.04-.099.06-.118.04-.513-.295-.947-.51-1.4-.589a7.74 7.74 0 0 0-1.34-.117c-.415 0-.75.058-1.006.215-.276.157-.394.353-.394.687 0 .156.04.274.118.392.099.117.217.235.414.333.217.118.453.216.769.333.335.099.71.216 1.163.353.71.216 1.301.412 1.715.648.414.235.769.51 1.005.803.237.295.395.589.474.922a4.7 4.7 0 0 1 .138 1.04"/></g><g opacity=".85"><path fill="#a3bde1" d="M60.842 12.455c0 .627-.118 1.157-.355 1.588-.236.451-.571.824-.946 1.157-.414.294-.867.53-1.4.686a6.001 6.001 0 0 1-1.695.236 6.247 6.247 0 0 1-1.656-.236 4.651 4.651 0 0 1-1.4-.686 3.133 3.133 0 0 1-.985-1.157c-.237-.45-.355-1-.355-1.588V8.239c0-.627.118-1.157.394-1.588.276-.451.592-.824 1.006-1.098.414-.275.887-.51 1.4-.647a5.463 5.463 0 0 1 1.576-.216c.533 0 1.065.098 1.597.235a4.763 4.763 0 0 1 1.42.687c.414.294.749.686 1.005 1.117.276.451.394 1 .394 1.589zM58.26 8.788c0-.333-.06-.588-.158-.823-.118-.236-.237-.412-.414-.53a1.298 1.298 0 0 0-.591-.294 2.35 2.35 0 0 0-.631-.098c-.217 0-.453.04-.65.098a2.375 2.375 0 0 0-.592.294c-.178.157-.335.334-.414.53-.118.235-.158.51-.158.823v3.157c0 .333.06.588.158.824.118.235.236.411.414.53.177.156.355.234.591.293.217.06.414.098.65.098.218 0 .415-.039.632-.098.216-.059.414-.176.591-.294a2.14 2.14 0 0 0 .414-.53c.118-.235.158-.51.158-.823z"/></g><g opacity=".85"><path fill="#a3bde1" d="M66.01 15.899V4.898c0-.059.04-.098.099-.098h2.365c.06 0 .099.04.099.098v8.706c0 .06.04.098.098.098h5.165c.06 0 .099.04.099.098v2.118c0 .059-.04.098-.099.098h-7.708c-.059-.04-.118-.098-.118-.117"/></g><g opacity=".85"><path fill="#a3bde1" d="M84.322 13.781h-3.49c-.039 0-.059.04-.098.059l-.631 2.098c0 .04-.06.059-.099.059h-2.602c-.059 0-.118-.06-.098-.118l3.923-11c0-.04.059-.059.098-.059h2.543c.04 0 .06.04.099.059l3.824 11c.04.059-.039.118-.098.118H85.13c-.04 0-.06-.04-.099-.06l-.65-2.097c0-.04-.02-.059-.06-.059m-2.779-2.137h2.07c.06 0 .099-.06.099-.118l-.217-.647-.887-3.098h-.06l-.886 3.098-.217.647c0 .059.039.118.098.118"/></g><g opacity=".85"><path fill="#a3bde1" d="M97.275 4.8c.631 0 1.163.098 1.577.294.454.216.809.47 1.065.824.276.333.473.706.591 1.157.119.411.178.862.178 1.294 0 .294-.04.588-.119.882a4.666 4.666 0 0 1-.355.863c-.157.274-.354.51-.591.745a3.912 3.912 0 0 1-.71.569c-.039.039-.059.058-.039.117l1.932 4.373c.04.059-.04.118-.099.118h-2.562c-.04 0-.06-.04-.099-.06l-1.656-4.019c0-.04-.059-.059-.098-.059h-1.46c-.058 0-.098.04-.098.098v3.922c0 .059-.04.098-.098.098h-2.405c-.06 0-.099-.04-.099-.098v-11c0-.06.04-.098.099-.098h5.046zm-2.464 4.706c0 .059.04.098.099.098h1.833c.473 0 .828-.118 1.045-.353a1.26 1.26 0 0 0 .335-.882 1.26 1.26 0 0 0-.335-.883c-.217-.235-.572-.353-1.045-.353H94.91c-.06 0-.099.04-.099.098z"/></g><g opacity=".85"><g opacity=".85"><path fill="#a3bde1" d="M43.229 23.098c0 .272-.076.544-.201.793-.126.25-.277.454-.503.613a1.702 1.702 0 0 1-.73.385c-.277.113-.578.136-.88.136h-2.34c-.075 0-.125-.045-.125-.114v-5.668c0-.067.05-.113.126-.113h2.339c.302 0 .603.046.88.136.277.09.503.204.73.386.2.181.352.385.503.612.125.25.15.521.15.793v2.04zm-.906-1.907c0-.249-.05-.452-.125-.61a.85.85 0 0 0-.353-.407 2.48 2.48 0 0 0-.503-.25 2.538 2.538 0 0 0-.578-.067h-1.258c-.075 0-.125.045-.125.113v4.25c0 .068.05.113.125.113h1.258c.201 0 .352-.045.528-.067.201-.046.352-.136.503-.249.151-.113.277-.249.377-.407.126-.18.151-.384.151-.61z"/></g><g opacity=".85"><path fill="#a3bde1" d="M47.201 19.523c0-.135-.075-.226-.15-.317a.542.542 0 0 0-.378-.136.467.467 0 0 0-.352.136c-.1.068-.151.182-.151.317 0 .137.025.227.15.34.076.091.227.137.353.137.15 0 .252-.023.377-.136.1-.09.151-.204.151-.34m-.905 5.395c0 .069.05.114.126.114H47c.075 0 .126-.045.126-.114v-4.012c0-.069-.05-.114-.126-.114h-.578c-.076 0-.126.045-.126.114v4.012"/></g><g opacity=".85"><path fill="#a3bde1" d="M52.228 20.883c.226.068.528.204.88.408l.076-.385c0-.045.075-.068.125-.068h.528c.076 0 .126.045.126.113v4.399c0 .25-.05.453-.15.657a2.14 2.14 0 0 1-.454.476c-.2.136-.427.25-.654.272a2.746 2.746 0 0 1-.754.114c-.252 0-.578-.046-.88-.136a1.959 1.959 0 0 1-.755-.386c-.05-.045-.05-.113 0-.136l.428-.453c.075.068.15.136.276.181.126.068.202.114.302.136.101.023.227.068.352.068.126.046.202.046.302.046.151 0 .302 0 .453-.046.15-.045.276-.113.377-.181.126-.068.202-.181.277-.317a.885.885 0 0 0 .125-.454v-.476c-.301.181-.603.317-.83.34-.276.068-.452.113-.653.113-.453 0-.83-.136-1.132-.385-.302-.272-.453-.612-.453-1.134v-1.292c0-.476.151-.861.453-1.134.201-.317.578-.453 1.031-.453.15 0 .377.045.604.113zm.878 1.18c0-.046 0-.069-.05-.114a4.76 4.76 0 0 0-.678-.34 1.732 1.732 0 0 0-.678-.136c-.276 0-.452.068-.603.204-.15.136-.225.385-.225.725v1.134c0 .34.075.544.225.68.151.136.352.204.603.204.2 0 .427-.045.678-.136.226-.068.451-.181.678-.272.05-.045.05-.068.05-.113z"/></g><g opacity=".85"><path fill="#a3bde1" d="M57.843 19.523a.393.393 0 0 0-.151-.317.542.542 0 0 0-.378-.136.467.467 0 0 0-.353.136c-.1.068-.151.182-.151.317 0 .137.025.227.151.34.076.091.227.137.353.137a.488.488 0 0 0 .378-.136c.1-.09.151-.204.151-.34m-.908 5.395c0 .069.075.114.126.114h.58c.077 0 .127-.045.127-.114v-4.012c0-.069-.05-.114-.126-.114h-.581c-.076 0-.126.045-.126.114v4.012"/></g><g opacity=".85"><path fill="#a3bde1" d="M63.679 24.848c0 .068-.05.113-.075.113-.151.046-.302.068-.503.114-.202.045-.352.045-.453.045-.503 0-.88-.113-1.107-.317-.226-.205-.352-.545-.352-1.02v-2.177c0-.068-.05-.114-.125-.114h-.428c-.075 0-.126-.045-.126-.113v-.453c0-.068.05-.114.126-.114h.452c.05 0 .126-.045.126-.068l.151-.816c0-.045.05-.068.126-.068h.377c.076 0 .126.045.126.113v.726c0 .068.05.113.126.113h1.056c.076 0 .126.046.126.114v.453c0 .068-.05.113-.126.113H62.12c-.076 0-.126.046-.126.114v1.972c0 .182 0 .318.05.408.05.114.076.205.151.272a.6.6 0 0 0 .226.136c.076.046.202.046.302.046.101 0 .227 0 .353-.046.125 0 .276-.045.427-.045z"/></g><g opacity=".85"><path fill="#a3bde1" d="M69.034 24.594c-.377.182-.68.317-.906.386-.226.068-.453.068-.654.068-.452 0-.83-.114-1.106-.34-.277-.25-.428-.544-.428-.93 0-.25.076-.454.201-.59.126-.18.277-.271.453-.385a1.48 1.48 0 0 1 .578-.204c.202-.045.378-.068.529-.068h1.358v-.317c0-.318-.075-.522-.277-.612a1.862 1.862 0 0 0-.804-.182c-.152 0-.378.046-.604.068a1.582 1.582 0 0 0-.604.272c-.05.046-.126.046-.15-.045l-.277-.386c-.05-.045-.05-.113.05-.136.276-.18.578-.317.83-.34.302-.068.603-.113.88-.113.604 0 1.057.136 1.358.385.302.25.453.612.453 1.134v2.698c0 .068-.05.113-.126.113h-.603zm.05-1.36c0-.068-.05-.113-.126-.113h-1.132c-.125 0-.226 0-.352.045-.125 0-.226.045-.352.113a.821.821 0 0 0-.276.204c-.076.114-.126.204-.126.34 0 .204.075.386.226.454a.984.984 0 0 0 .604.181c.125 0 .226 0 .377-.045.126-.045.277-.068.377-.113.126-.046.227-.114.353-.136.125-.069.226-.114.301-.137v-.793z"/></g><g opacity=".85"><path fill="#a3bde1" d="M73.81 23.895c0 .25.05.385.151.408.075.045.227.068.428.068.075 0 .125.046.125.114v.589c-.075 0-.2.045-.276.045h-.227c-.226 0-.427-.045-.528-.067a1.412 1.412 0 0 1-.352-.205.394.394 0 0 1-.151-.34c-.05-.136-.05-.272-.05-.453v-5.01c0-.069.05-.114.126-.114h.578c.076 0 .126.045.126.113v4.875h.05z"/></g></g><g opacity=".85"><g opacity=".85"><path fill="#93b2dc" d="M15.35.1C23.843.1 30.7 6.956 30.7 15.369S23.81 30.638 15.35 30.638C6.892 30.638 0 23.782 0 15.368 0 6.957 6.875.1 15.35.1m-4.407 11.138c-.409.407-.409 1.033.017 1.456.204.203.46.305.715.305.255 0 .51-.102.714-.305l7.267-7.211a1.018 1.018 0 0 0 0-1.456 1.031 1.031 0 0 0-1.463 0l-7.25 7.211m6.858 3.25a1.05 1.05 0 0 0 .034-1.455 1.031 1.031 0 0 0-1.463 0l-3.608 3.589a1.018 1.018 0 0 0 0 1.455c.204.203.46.305.714.305.256 0 .511-.102.715-.305l3.608-3.588m1.974 5.245a1.016 1.016 0 0 0 0-1.454 1.032 1.032 0 0 0-1.463 0l-7.216 7.204a1.016 1.016 0 0 0 0 1.454c.204.203.46.304.715.304.255 0 .51-.101.714-.304l7.25-7.204"/></g></g></g></g></svg>