<svg xmlns="http://www.w3.org/2000/svg" width="104" height="121"><defs><mask id="b" width="2" height="2" x="-1" y="-1"><path fill="#fff" d="M8 54h88v46H8z"/><path d="M8.804 77.106c0-12.649 19.47-22.903 43.486-22.903 24.017 0 43.486 10.254 43.486 22.903s-19.47 22.903-43.486 22.903c-24.017 0-43.486-10.254-43.486-22.903z"/></mask><filter id="a" width="132" height="102" x="-14" y="32" filterUnits="userSpaceOnUse"><feOffset dy="12" in="SourceGraphic" result="FeOffset1083Out"/><feGaussianBlur in="FeOffset1083Out" result="FeGaussianBlur1084Out" stdDeviation="4.8 4.8"/></filter><mask id="d" width="2" height="2" x="-1" y="-1"><path fill="#fff" d="M21 46h63v34H21z"/><path d="M21.097 63.106c0-9.073 13.966-16.428 31.193-16.428 17.227 0 31.193 7.355 31.193 16.428S69.517 79.534 52.29 79.534c-17.227 0-31.193-7.355-31.193-16.428z"/></mask><filter id="c" width="107" height="90" x="-1" y="24" filterUnits="userSpaceOnUse"><feOffset dy="12" in="SourceGraphic" result="FeOffset1099Out"/><feGaussianBlur in="FeOffset1099Out" result="FeGaussianBlur1100Out" stdDeviation="4.8 4.8"/></filter></defs><g filter="url(#a)"><path fill="none" d="M8.804 77.106c0-12.649 19.47-22.903 43.486-22.903 24.017 0 43.486 10.254 43.486 22.903s-19.47 22.903-43.486 22.903c-24.017 0-43.486-10.254-43.486-22.903z" mask="url(&quot;#b&quot;)"/><path fill-opacity=".12" d="M8.804 77.106c0-12.649 19.47-22.903 43.486-22.903 24.017 0 43.486 10.254 43.486 22.903s-19.47 22.903-43.486 22.903c-24.017 0-43.486-10.254-43.486-22.903z"/></g><path fill="#fff" d="M8.804 77.106c0-12.649 19.47-22.903 43.486-22.903 24.017 0 43.486 10.254 43.486 22.903s-19.47 22.903-43.486 22.903c-24.017 0-43.486-10.254-43.486-22.903z"/><g filter="url(#c)"><path fill="none" d="M21.097 63.106c0-9.073 13.966-16.428 31.193-16.428 17.227 0 31.193 7.355 31.193 16.428S69.517 79.534 52.29 79.534c-17.227 0-31.193-7.355-31.193-16.428z" mask="url(&quot;#d&quot;)"/><path fill-opacity=".12" d="M21.097 63.106c0-9.073 13.966-16.428 31.193-16.428 17.227 0 31.193 7.355 31.193 16.428S69.517 79.534 52.29 79.534c-17.227 0-31.193-7.355-31.193-16.428z"/></g><path fill="#fff" d="M21.097 63.106c0-9.073 13.966-16.428 31.193-16.428 17.227 0 31.193 7.355 31.193 16.428S69.517 79.534 52.29 79.534c-17.227 0-31.193-7.355-31.193-16.428z"/><path fill="#81c837" d="M88.314 38.73c-.653-1.899-1.646-3.53-2.981-4.897-1.337-1.368-3.026-2.433-5.077-3.197-2.044-.769-4.46-1.15-7.25-1.15H60.59l.057 7.163v16.7s8.058-2.016 8.058-8.678c0-2.93.06-6.364.088-8.091l4.213-.035c2.492 0 4.42.668 5.784 2.01 1.364 1.337 2.048 3.461 2.048 6.375 0 2.91-.684 5.035-2.048 6.376-1.365 1.338-3.292 2.005-5.784 2.005h-4.183s-4.965 1.444-8.233 7.06h12.416c2.79 0 5.206-.382 7.25-1.146 2.051-.764 3.74-1.83 5.077-3.197 1.335-1.368 2.328-2.995 2.98-4.878.653-1.88.983-3.954.983-6.22 0-2.234-.33-4.3-.982-6.2z"/><g><path fill="#444f43" d="M71.846 4.735v20.651H57.394l-.832-4.127H45.005v2.631H40.87V.608h18.587l.824 4.127z"/></g><g><path fill="#538c32" d="M56.018 30.417v20.65h-14.46l-.824-4.127H29.169v14.453h-4.127V26.29h18.587l.824 4.127z"/></g></svg>