<svg xmlns="http://www.w3.org/2000/svg" width="104" height="108"><defs><mask id="b" width="2" height="2" x="-1" y="-1"><path fill="#fff" d="M8 41h88v46H8z"/><path d="M8.804 64.106c0-12.649 19.47-22.903 43.486-22.903 24.017 0 43.486 10.254 43.486 22.903S76.306 87.009 52.29 87.009c-24.017 0-43.486-10.254-43.486-22.903z"/></mask><filter id="a" width="132" height="102" x="-14" y="19" filterUnits="userSpaceOnUse"><feOffset dy="12" in="SourceGraphic" result="FeOffset1134Out"/><feGaussianBlur in="FeOffset1134Out" result="FeGaussianBlur1135Out" stdDeviation="4.8 4.8"/></filter><mask id="d" width="2" height="2" x="-1" y="-1"><path fill="#fff" d="M21 33h63v34H21z"/><path d="M21.097 50.106c0-9.073 13.966-16.428 31.193-16.428 17.227 0 31.193 7.355 31.193 16.428S69.517 66.534 52.29 66.534c-17.227 0-31.193-7.355-31.193-16.428z"/></mask><filter id="c" width="107" height="90" x="-1" y="11" filterUnits="userSpaceOnUse"><feOffset dy="12" in="SourceGraphic" result="FeOffset1150Out"/><feGaussianBlur in="FeOffset1150Out" result="FeGaussianBlur1151Out" stdDeviation="4.8 4.8"/></filter></defs><g filter="url(#a)"><path fill="none" d="M8.804 64.106c0-12.649 19.47-22.903 43.486-22.903 24.017 0 43.486 10.254 43.486 22.903S76.306 87.009 52.29 87.009c-24.017 0-43.486-10.254-43.486-22.903z" mask="url(&quot;#b&quot;)"/><path fill-opacity=".12" d="M8.804 64.106c0-12.649 19.47-22.903 43.486-22.903 24.017 0 43.486 10.254 43.486 22.903S76.306 87.009 52.29 87.009c-24.017 0-43.486-10.254-43.486-22.903z"/></g><path fill="#fff" d="M8.804 64.106c0-12.649 19.47-22.903 43.486-22.903 24.017 0 43.486 10.254 43.486 22.903S76.306 87.009 52.29 87.009c-24.017 0-43.486-10.254-43.486-22.903z"/><g filter="url(#c)"><path fill="none" d="M21.097 50.106c0-9.073 13.966-16.428 31.193-16.428 17.227 0 31.193 7.355 31.193 16.428S69.517 66.534 52.29 66.534c-17.227 0-31.193-7.355-31.193-16.428z" mask="url(&quot;#d&quot;)"/><path fill-opacity=".12" d="M21.097 50.106c0-9.073 13.966-16.428 31.193-16.428 17.227 0 31.193 7.355 31.193 16.428S69.517 66.534 52.29 66.534c-17.227 0-31.193-7.355-31.193-16.428z"/></g><path fill="#fff" d="M21.097 50.106c0-9.073 13.966-16.428 31.193-16.428 17.227 0 31.193 7.355 31.193 16.428S69.517 66.534 52.29 66.534c-17.227 0-31.193-7.355-31.193-16.428z"/><path fill="#444f43" d="M39.461 26.1L28.153 37.407a9.628 9.628 0 0 0-4.47-5.436L34.02 21.635a9.647 9.647 0 0 0 5.441 4.464zM51.995 30.796l-5.252-5.252a9.699 9.699 0 0 0 4.69-5.215l5.593 5.598a9.673 9.673 0 0 0-5.03 4.869zM76.086 24.097l-6.634 6.634a9.657 9.657 0 0 0-5.069-4.831l6.586-6.586a13.334 13.334 0 0 0 5.117 4.783z"/><path fill="#81c837" d="M94.017 12.313c0 6.456-5.257 11.708-11.713 11.708a11.64 11.64 0 0 1-5.014-1.128 11.78 11.78 0 0 1-5.145-4.755 11.636 11.636 0 0 1-1.554-5.825C70.59 5.853 75.843.6 82.304.6c6.456 0 11.713 5.252 11.713 11.713z"/><path fill="#538c32" d="M50.425 16.95a7.84 7.84 0 0 1-.281 2.09 8.037 8.037 0 0 1-4.62 5.284 7.929 7.929 0 0 1-3.105.626c-.561 0-1.112-.06-1.64-.168a8.043 8.043 0 0 1-5.56-4.345 7.935 7.935 0 0 1-.8-3.487c0-4.415 3.59-8.005 8-8.005s8.006 3.59 8.006 8.005z"/><g><path fill="#538c32" d="M27.003 40.371c0 3.412-2.148 6.332-5.166 7.476-.048.022-.097.038-.14.054a6.803 6.803 0 0 1-3.417.432c-4.075-.361-7.282-3.794-7.282-7.962 0-4.415 3.59-8.005 8-8.005 1.252 0 2.434.286 3.493.8a8.058 8.058 0 0 1 4.345 5.559c.108.534.167 1.085.167 1.646z"/></g><g><path fill="#538c32" d="M68.74 34.806c0 4.41-3.59 8-8 8-4.416 0-8.005-3.59-8.005-8 0-.971.173-1.91.496-2.774a8.028 8.028 0 0 1 5.058-4.848 8.002 8.002 0 0 1 2.45-.383c.832 0 1.63.124 2.381.362a8.022 8.022 0 0 1 5.62 7.643z"/></g></svg>