<svg xmlns="http://www.w3.org/2000/svg" width="104" height="107"><defs><mask id="b" width="2" height="2" x="-1" y="-1"><path fill="#fff" d="M8 40h88v46H8z"/><path d="M8.804 63.106c0-12.649 19.47-22.903 43.486-22.903 24.017 0 43.486 10.254 43.486 22.903S76.306 86.009 52.29 86.009c-24.017 0-43.486-10.254-43.486-22.903z"/></mask><filter id="a" width="132" height="102" x="-14" y="18" filterUnits="userSpaceOnUse"><feOffset dy="12" in="SourceGraphic" result="FeOffset1032Out"/><feGaussianBlur in="FeOffset1032Out" result="FeGaussianBlur1033Out" stdDeviation="4.8 4.8"/></filter><mask id="d" width="2" height="2" x="-1" y="-1"><path fill="#fff" d="M21 32h63v34H21z"/><path d="M21.097 49.106c0-9.073 13.966-16.428 31.193-16.428 17.227 0 31.193 7.355 31.193 16.428S69.517 65.534 52.29 65.534c-17.227 0-31.193-7.355-31.193-16.428z"/></mask><filter id="c" width="107" height="90" x="-1" y="10" filterUnits="userSpaceOnUse"><feOffset dy="12" in="SourceGraphic" result="FeOffset1048Out"/><feGaussianBlur in="FeOffset1048Out" result="FeGaussianBlur1049Out" stdDeviation="4.8 4.8"/></filter></defs><g filter="url(#a)"><path fill="none" d="M8.804 63.106c0-12.649 19.47-22.903 43.486-22.903 24.017 0 43.486 10.254 43.486 22.903S76.306 86.009 52.29 86.009c-24.017 0-43.486-10.254-43.486-22.903z" mask="url(&quot;#b&quot;)"/><path fill-opacity=".12" d="M8.804 63.106c0-12.649 19.47-22.903 43.486-22.903 24.017 0 43.486 10.254 43.486 22.903S76.306 86.009 52.29 86.009c-24.017 0-43.486-10.254-43.486-22.903z"/></g><path fill="#fff" d="M8.804 63.106c0-12.649 19.47-22.903 43.486-22.903 24.017 0 43.486 10.254 43.486 22.903S76.306 86.009 52.29 86.009c-24.017 0-43.486-10.254-43.486-22.903z"/><g filter="url(#c)"><path fill="none" d="M21.097 49.106c0-9.073 13.966-16.428 31.193-16.428 17.227 0 31.193 7.355 31.193 16.428S69.517 65.534 52.29 65.534c-17.227 0-31.193-7.355-31.193-16.428z" mask="url(&quot;#d&quot;)"/><path fill-opacity=".12" d="M21.097 49.106c0-9.073 13.966-16.428 31.193-16.428 17.227 0 31.193 7.355 31.193 16.428S69.517 65.534 52.29 65.534c-17.227 0-31.193-7.355-31.193-16.428z"/></g><path fill="#fff" d="M21.097 49.106c0-9.073 13.966-16.428 31.193-16.428 17.227 0 31.193 7.355 31.193 16.428S69.517 65.534 52.29 65.534c-17.227 0-31.193-7.355-31.193-16.428z"/><path fill="#444f43" d="M82.118.59c-5.428 0-9.829 4.4-9.829 9.829s4.401 9.829 9.83 9.829c5.428 0 9.829-4.4 9.829-9.83 0-5.427-4.4-9.828-9.83-9.828zm-30.715 0v3.686c0 10.198 5.43 19.117 13.515 24.08v11.55h36.859v-4.914c0-6.537-13.097-9.83-19.659-9.83h-.614c-11.672 0-21.5-9.829-21.5-20.886V.59"/><g><path fill="#538c32" d="M49.136 8.391a7.879 7.879 0 1 0 0 15.757 7.879 7.879 0 0 0 0-15.757zm-24.62 0v2.955c0 8.174 4.352 15.324 10.832 19.303v9.257h29.546v-3.94c0-5.239-10.499-7.878-15.758-7.878h-.492c-9.356 0-17.235-7.879-17.235-16.742V8.39"/></g><g><path fill="#81c837" d="M22.707 14.687a6.305 6.305 0 1 0 0 12.61 6.305 6.305 0 0 0 0-12.61zm-19.702 0v2.364c0 6.541 3.484 12.263 8.67 15.447v7.408h23.642v-3.153c0-4.192-8.401-6.304-12.61-6.304h-.393c-7.487 0-13.792-6.305-13.792-13.398v-2.364"/></g></svg>