<svg xmlns="http://www.w3.org/2000/svg" width="68" height="68"><path fill="#81c837" d="M0 33.87C0 15.165 15.164 0 33.87 0c18.707 0 33.871 15.164 33.871 33.87 0 18.707-15.164 33.871-33.87 33.871C15.164 67.741 0 52.577 0 33.871z"/><path fill="#fff" d="M48.09 28.305c-.578-1.68-1.456-3.123-2.638-4.333s-2.677-2.152-4.49-2.828c-1.81-.68-3.947-1.018-6.415-1.018H23.562l.05 6.337V41.24s7.13-1.784 7.13-7.679c0-2.591.054-5.63.078-7.157l3.727-.031c2.204 0 3.91.591 5.117 1.778 1.207 1.183 1.812 3.062 1.812 5.641 0 2.575-.605 4.454-1.812 5.64-1.207 1.183-2.913 1.775-5.117 1.775h-3.702s-4.392 1.277-7.283 6.246h10.985c2.468 0 4.605-.339 6.414-1.015 1.814-.676 3.309-1.619 4.491-2.828 1.182-1.21 2.06-2.65 2.637-4.316.577-1.664.87-3.498.87-5.502 0-1.978-.293-3.805-.87-5.486z"/></svg>