<svg xmlns="http://www.w3.org/2000/svg" width="34" height="35"><path fill="#83c242" d="M4.4 30.025V18.489a3.1 3.1 0 0 1 0-.476v-.505c.007-6.9 5.605-12.49 12.506-12.487 6.9.003 12.494 5.596 12.497 12.497.003 6.9-5.587 12.499-12.488 12.507H4.4zm12.458 4.326c9.301 0 16.842-7.541 16.842-16.843C33.7 8.207 26.16.666 16.858.666S.016 8.206.016 17.508v.346a7.63 7.63 0 0 0 0 .98v15.517h16.842z"/><path fill="#83c242" d="M14.724 14.322h3.1v12.112h-3.1zm.158-2.25a1.947 1.947 0 0 1-.533-1.442 1.947 1.947 0 0 1 .533-1.442 1.831 1.831 0 0 1 1.442-.562 1.875 1.875 0 0 1 1.442.533c.356.36.55.85.534 1.356a2.048 2.048 0 0 1-.534 1.442 1.99 1.99 0 0 1-2.783 0z"/></svg>