<svg xmlns="http://www.w3.org/2000/svg" width="44" height="30"><path fill="#82c53d" d="M38.673 14.187a3.126 3.126 0 0 0-3.126 3.132 3.065 3.065 0 0 0 .405 1.536l-.223.162a11.25 11.25 0 0 1 2.46 3.2h5.22a4.77 4.77 0 0 0-2.021-3.369 3.126 3.126 0 0 0-2.695-4.668z"/><path fill="#82c53d" d="M21.331.666c4.218.04 8.102 2.179 10.222 5.629a10.78 10.78 0 0 1 .108 11.185c.644.414 1.258.867 1.838 1.358 3.274 2.795 5.358 6.623 5.861 10.767H3.334c.588-4.882 3.36-9.292 7.612-12.114a10.726 10.726 0 0 1-1.163-8.34C11.143 4.166 15.889.68 21.33.665zm0 5.142c-2.966.015-5.549 1.92-6.285 4.638a5.828 5.828 0 0 0 .63 4.535l2.436 4.114-4.056 2.674a12.709 12.709 0 0 0-2.98 2.756h20.542a12.275 12.275 0 0 0-1.73-1.81 11.97 11.97 0 0 0-1.239-.936l-4.078-2.674 2.447-4.113a5.784 5.784 0 0 0 .837-3.014c0-3.407-2.92-6.17-6.524-6.17"/><path fill="#82c53d" d="M4.715 8.66a3.126 3.126 0 0 0-3.125 3.133c.005.541.154 1.071.43 1.536A4.763 4.763 0 0 0 0 16.697h6.615c.445-.434.925-.83 1.435-1.185a7.376 7.376 0 0 1-.721-5.463A3.119 3.119 0 0 0 4.715 8.66z"/></svg>