<svg xmlns="http://www.w3.org/2000/svg" width="42" height="43"><path fill="#82c53d" d="M41.592 21.685a20.924 20.924 0 0 1-1.597 8.113v-.112l-2.283-1.12-.543-.27-.122-2.8v-.37a10.886 10.886 0 0 0-2.284-1.625 11.97 11.97 0 0 0 .122-1.793c.014-7.68-6.022-13.978-13.617-14.206-7.595-.228-13.99 5.695-14.427 13.363-.438 7.668 5.242 14.295 12.813 14.95l1.851 1.277-.288 2.98h-.421a18.651 18.651 0 0 1-3.736-.38l-.532 2.566a20.958 20.958 0 0 1-8.336-3.855l1.574-2.095A18.33 18.33 0 0 1 4.611 30.1l-2.305 1.222A21.03 21.03 0 0 1 0 22.358l2.605-.079v-.582a18.343 18.343 0 0 1 1.53-7.373l-2.395-1.12a21.197 21.197 0 0 1 5.432-7.407L8.868 7.79a17.766 17.766 0 0 1 7.062-3.83l-.676-2.543c2.977-.82 6.095-.97 9.134-.437l-.443 2.588a17.845 17.845 0 0 1 7.383 3.137l1.518-2.14a21.002 21.002 0 0 1 6.108 6.902l-2.261 1.278a18.458 18.458 0 0 1 2.217 7.776l2.594-.168c.066.482.089.885.089 1.333z"/><path fill="#82c53d" d="M28.77 34.748a2.032 2.032 0 0 1-1.843-1.308 1.794 1.794 0 0 1-.213-.831 2.044 2.044 0 0 1 2.044-1.985h.059a2.044 2.044 0 0 1 0 4.088zm8.437-4.944l-.987.345-1.307.44a6.5 6.5 0 0 0-1.759-2.734l1.628-1.782a9.09 9.09 0 0 0-1.188-.927 8.77 8.77 0 0 0-2.674-1.188l-.582 2.376a6.322 6.322 0 0 0-1.355-.19h-.19a6.453 6.453 0 0 0-1.663.214l-.618-2.377a8.984 8.984 0 0 0-3.863 2.163l1.688 1.842a6.643 6.643 0 0 0-1.711 2.721l-2.294-.736a8.698 8.698 0 0 0-.428 2.46 6.43 6.43 0 0 0 0 .677c.022.423.074.844.155 1.26l2.377-.452c.07.408.185.806.344 1.188a6.132 6.132 0 0 0 1.022 1.747l-1.877 1.545c.358.432.756.83 1.188 1.188a7.33 7.33 0 0 0 1.01.713c.417.268.859.495 1.32.678l.914-2.246a6.31 6.31 0 0 0 2.234.475h.95l.12 1.034.154 1.366a8.782 8.782 0 0 0 4.124-1.58L32.75 38.3l-.178-.25a6.476 6.476 0 0 0 2.08-2.448l2.174 1.058a8.615 8.615 0 0 0 .903-3.648 6.201 6.201 0 0 0 0-.666 9.28 9.28 0 0 0-.522-2.543z"/></svg>