<svg xmlns="http://www.w3.org/2000/svg" width="218" height="32"><defs><linearGradient id="a" x1="90.22" x2="120.37" y1="29.79" y2="20" gradientUnits="userSpaceOnUse"><stop offset="0" stop-color="#34591f" stop-opacity=".62"/><stop offset=".72" stop-color="#66ae3d" stop-opacity=".62"/><stop offset=".99" stop-color="#66ae3d" stop-opacity=".23"/></linearGradient></defs><path fill="#fff" d="M58.072.66v30.794H49.86V19.707H38.323v11.747h-8.21V.66h8.21v11.792H49.86V5.054C49.86.015 58.072.66 58.072.66zM88.571.66v19.047c0 2.32-.408 4.27-1.224 5.855-.812 1.581-1.877 2.857-3.192 3.824-1.317.971-2.81 1.665-4.484 2.091a20.445 20.445 0 0 1-5.08.636 20.44 20.44 0 0 1-5.08-.636c-1.673-.426-3.167-1.12-4.479-2.09-1.32-.968-2.385-2.244-3.197-3.825-.816-1.585-1.224-3.535-1.224-5.855V.66h8.213v18.61c0 2.083.521 3.534 1.573 4.353 1.05.823 2.451 1.235 4.194 1.235 1.743 0 3.142-.412 4.194-1.235 1.047-.819 1.575-2.27 1.575-4.353V5.378c0-5.69 8.211-4.719 8.211-4.719zM.911 9.877c.607-1.894 1.527-3.52 2.765-4.884 1.24-1.364 2.807-2.426 4.71-3.187C10.28 1.04 12.523.66 15.11.66h11.518s.928 7.142-5.216 7.142c-5.78 0-6.302-.104-6.302-.104-2.312 0-4.098.667-5.363 2.004-1.267 1.333-1.9 3.452-1.9 6.358 0 2.901.633 5.02 1.9 6.356 1.265 1.334 3.051 2.001 5.363 2.001h3.881l2.8-.073c1.852.095 4.463 2.122 4.837 7.111H15.11c-2.586 0-4.83-.38-6.725-1.142-1.902-.762-3.469-1.825-4.709-3.189C2.438 25.76 1.518 24.138.911 22.26c-.608-1.875-.91-3.942-.91-6.2 0-2.23.302-4.29.91-6.183zM146.35 16.06c.074 4.115-2.084 6.135-2.084 6.135-.787.673-1.54 1.378-2.576 1.805-1.036.423-2.22.637-3.55.637-1.333 0-2.514-.214-3.55-.637-1.036-.427-1.892-1.029-2.575-1.805-.682-.777-1.197-1.688-1.555-2.728-.353-1.039-.528-2.178-.528-3.408 0-1.235.175-2.369.528-3.41.358-1.043.873-1.95 1.555-2.727.683-.777 1.54-1.379 2.575-1.805 1.036-.426 2.217-.636 3.55-.636 1.33 0 2.514.21 3.55.636 1.036.426 1.893 1.028 2.576 1.805a8.027 8.027 0 0 1 1.548 2.727c.356 1.041.542 2.175.535 3.41zm-23.808 6.111a14.623 14.623 0 0 0 3.126 5.128c1.392 1.481 3.124 2.654 5.194 3.52 2.071.864 4.497 1.294 7.278 1.294 2.78 0 5.207-.43 7.275-1.295 2.072-.865 3.801-2.038 5.191-3.519a14.65 14.65 0 0 0 3.131-5.128 17.987 17.987 0 0 0 1.044-6.112c0-2.14-.35-4.179-1.044-6.117a14.651 14.651 0 0 0-3.13-5.124c-1.39-1.48-3.12-2.655-5.192-3.519C143.347.434 140.92 0 138.14 0c-2.78 0-5.207.434-7.278 1.3-2.07.863-3.802 2.037-5.194 3.518a14.624 14.624 0 0 0-3.126 5.124c-.698 1.938-1.043 3.976-1.043 6.117 0 2.14.345 4.178 1.043 6.112zM165.953 31.454L154.283.66h8.874l7.007 21.117s4.774-14.539 5.756-17.335C177.883-.799 186.053.66 186.053.66l-11.67 30.795zM208.91 19.467a7.987 7.987 0 0 1-1.553 2.728c-.678.776-1.539 1.378-2.57 1.805-1.036.423-2.222.637-3.555.637-1.33 0-2.514-.214-3.546-.637-1.035-.427-1.895-1.029-2.575-1.805a7.994 7.994 0 0 1-1.555-2.728c-.353-1.039-.532-2.178-.532-3.408 0-1.235.18-2.369.532-3.41a7.961 7.961 0 0 1 1.555-2.727c.68-.777 1.54-1.379 2.575-1.805 1.032-.426 2.215-.636 3.546-.636 1.333 0 2.52.21 3.554.636 1.032.426 1.893 1.028 2.571 1.805a7.955 7.955 0 0 1 1.553 2.727c.356 1.041.535 2.175.535 3.41 0 1.23-.179 2.37-.535 3.408zm-23.276 2.704a14.705 14.705 0 0 0 3.13 5.128c1.392 1.481 3.12 2.654 5.194 3.52 2.067.864 4.497 1.294 7.274 1.294 2.784 0 5.207-.43 7.28-1.295 2.071-.865 3.8-2.038 5.19-3.519a14.614 14.614 0 0 0 3.128-5.128c.696-1.934 1.043-3.972 1.043-6.112s-.347-4.179-1.043-6.117a14.615 14.615 0 0 0-3.128-5.124c-1.39-1.48-3.119-2.655-5.19-3.519C206.438.434 204.015 0 201.231 0c-2.777 0-5.207.434-7.274 1.3-2.075.863-3.802 2.037-5.194 3.518a14.707 14.707 0 0 0-3.13 5.124 18.002 18.002 0 0 0-1.04 6.117c0 2.14.346 4.178 1.04 6.112z"/><path fill="#66ae3d" d="M118.41 9.877c-.65-1.894-1.642-3.52-2.972-4.884-1.333-1.364-3.018-2.426-5.062-3.187-2.038-.766-4.448-1.147-7.229-1.147h-12.38l.057 7.142v16.652s8.034-2.01 8.034-8.654c0-2.92.061-6.345.088-8.066l4.201-.036c2.484 0 4.406.667 5.767 2.004 1.36 1.333 2.042 3.452 2.042 6.358 0 2.901-.682 5.02-2.042 6.356-1.36 1.334-3.283 2.001-5.767 2.001h-4.17s-4.952 1.44-8.21 7.038h12.38c2.781 0 5.191-.38 7.23-1.142 2.043-.762 3.728-1.825 5.061-3.189 1.33-1.363 2.321-2.985 2.971-4.863.651-1.875.98-3.942.98-6.2 0-2.23-.329-4.29-.98-6.183z"/><path fill="url(#a)" d="M90.767 31.454l13.327-.064s8.166.182 12.371-5.546c0 0 2.316-3.108 2.743-7.008.426-3.902.061-.245.061-.245s-3.414.61-8.313-2.532c0 0 .512 4.726-3.085 7.347 0 0-2.739 1.592-8.895 1.01 0 0-4.389 1.108-8.209 7.038z"/></svg>