<svg xmlns="http://www.w3.org/2000/svg" width="23" height="27"><g clip-path="url(#clip-51c4d25a-2a0c-423b-95d7-b088ecc2bdc1)"><path fill="#fff" d="M22.177 1.092c.112.163.112.352 0 .566l-8.068 14.271v.016l5.134 9.397c.112.204.117.392.016.565-.102.153-.265.23-.49.23h-3.651c-.428 0-.764-.23-1.009-.688l-5.18-9.504L17.043 1.55c.255-.459.58-.688.978-.688h3.682c.224 0 .382.076.474.23zm-12.316 9.81c-.102.184-1.41 2.506-3.927 6.968-.275.469-.606.703-.993.703H1.289a.511.511 0 0 1-.474-.26c-.102-.173-.102-.356 0-.55l3.866-6.846c.01 0 .01-.005 0-.015L2.221 6.64c-.122-.224-.127-.413-.015-.565.092-.153.254-.23.489-.23h3.652c.407 0 .743.23 1.008.688z"/></g></svg>