<svg xmlns="http://www.w3.org/2000/svg" width="30" height="30"><path fill="#fff" d="M5.758 10.49h4.457V23.9H5.758zm15.403-.316c2.934 0 5.132 1.915 5.132 6.035V23.9h-4.458v-7.175c0-1.802-.646-3.033-2.26-3.033-1.231 0-1.962.828-2.283 1.63-.118.286-.15.687-.15 1.088v7.49h-4.457s.059-12.152 0-13.41h4.457v1.901c.591-.914 1.651-2.217 4.02-2.217zM8.02 4.02c1.524 0 2.464 1.003 2.492 2.32 0 1.287-.97 2.315-2.524 2.315H7.96c-1.496 0-2.465-1.029-2.465-2.316 0-1.316.999-2.319 2.525-2.319zM4.398.329A4.482 4.482 0 0 0-.083 4.81v20.7a4.482 4.482 0 0 0 4.48 4.481h20.704a4.479 4.479 0 0 0 4.477-4.48V4.81A4.479 4.479 0 0 0 25.101.33z"/></svg>