<svg xmlns="http://www.w3.org/2000/svg" width="28" height="29"><path fill="#fff" d="M15.43 16.985c-.644.868-1.414 1.307-2.31 1.307-.61 0-1.102-.32-1.472-.959-.377-.639-.565-1.432-.565-2.385 0-1.175.262-2.123.787-2.841.525-.72 1.176-1.085 1.952-1.085.673 0 1.272.269 1.797.81.525.543.787 1.262.787 2.163-.005 1.124-.33 2.117-.975 2.99zm8.412-13.13C21.29 1.505 18.118.33 14.329.33 10.347.33 6.951 1.664 4.15 4.34c-2.8 2.677-4.205 6.003-4.205 9.986 0 3.818 1.336 7.099 4 9.849 2.677 2.75 6.271 4.125 10.796 4.125 2.728 0 5.404-.559 8.029-1.683a1.711 1.711 0 0 0 .924-2.208 1.706 1.706 0 0 0-2.26-.924c-2.282.981-4.519 1.472-6.698 1.472-3.47 0-6.157-1.056-8.063-3.173-1.9-2.111-2.853-4.593-2.853-7.44 0-3.093 1.021-5.673 3.058-7.744 2.032-2.065 4.537-3.104 7.504-3.104 2.733 0 5.044.85 6.927 2.55 1.883 1.701 2.825 3.84 2.825 6.42 0 1.763-.434 3.235-1.296 4.405-.861 1.176-1.757 1.758-2.687 1.758-.502 0-.754-.269-.754-.81 0-.44.035-.954.097-1.547l1.062-8.679h-3.652l-.234.85c-.93-.759-1.952-1.141-3.059-1.141-1.757 0-3.263.702-4.513 2.1-1.255 1.398-1.877 3.2-1.877 5.404 0 2.15.553 3.891 1.666 5.21 1.113 1.323 2.448 1.98 4.011 1.98 1.398 0 2.59-.589 3.584-1.758.747 1.124 1.848 1.683 3.304 1.683 2.14 0 3.988-.93 5.546-2.796 1.558-1.86 2.34-4.108 2.34-6.739 0-3.332-1.273-6.18-3.83-8.53z"/></svg>