<svg xmlns="http://www.w3.org/2000/svg" width="21" height="12"><path fill="#707070" d="M20.892 10.459a1.393 1.393 0 0 0-.068-.133c-.353-.634-1.026-1.412-2.019-2.335l-.02-.021-.011-.01-.011-.011h-.01c-.451-.43-.737-.72-.857-.867-.218-.282-.267-.567-.148-.856.085-.219.402-.68.951-1.384.29-.374.518-.673.687-.899 1.22-1.62 1.748-2.656 1.585-3.106L20.91.73c-.043-.063-.152-.121-.328-.174-.176-.053-.402-.062-.676-.027L16.86.551a.395.395 0 0 0-.211.006c-.092.02-.138.032-.138.032l-.053.026-.042.032a.47.47 0 0 0-.116.11.725.725 0 0 0-.105.186 17.255 17.255 0 0 1-1.131 2.377c-.261.437-.5.816-.72 1.136-.217.32-.4.557-.548.708a3.83 3.83 0 0 1-.402.365c-.12.092-.211.13-.275.116a7.745 7.745 0 0 1-.18-.042.703.703 0 0 1-.237-.26 1.16 1.16 0 0 1-.122-.411 4.543 4.543 0 0 1-.037-.428 8.94 8.94 0 0 1 .006-.508c.007-.218.01-.366.01-.443 0-.268.005-.559.016-.872l.026-.745c.008-.183.01-.377.01-.581 0-.205-.012-.365-.036-.481a1.644 1.644 0 0 0-.11-.339.57.57 0 0 0-.217-.253 1.22 1.22 0 0 0-.354-.143c-.374-.084-.85-.13-1.427-.137-1.31-.014-2.152.07-2.526.254a1.424 1.424 0 0 0-.401.316c-.127.156-.145.24-.053.254.422.063.722.215.898.454l.063.127c.05.092.099.254.148.486.05.233.081.49.095.772.036.514.036.954 0 1.32-.035.367-.068.652-.1.857a1.713 1.713 0 0 1-.27.729.182.182 0 0 1-.052.053.791.791 0 0 1-.286.053c-.098 0-.218-.05-.359-.148a2.535 2.535 0 0 1-.438-.407 5.438 5.438 0 0 1-.513-.724c-.19-.31-.388-.677-.592-1.1l-.169-.306c-.106-.197-.25-.484-.433-.861a16.61 16.61 0 0 1-.486-1.094A.697.697 0 0 0 4.74.7L4.687.667a.723.723 0 0 0-.169-.09A1.12 1.12 0 0 0 4.275.51L1.38.529C1.084.53.883.598.777.732L.735.794a.342.342 0 0 0-.032.17.82.82 0 0 0 .064.284c.422.994.882 1.952 1.379 2.875.496.923.928 1.666 1.294 2.23.366.563.74 1.095 1.12 1.595.38.5.633.821.756.962.123.141.22.247.29.317l.265.254c.169.169.417.371.745.607.327.236.69.469 1.088.698a5.93 5.93 0 0 0 1.39.56 4.805 4.805 0 0 0 1.543.174h1.215c.247-.021.433-.099.56-.232l.042-.053a.7.7 0 0 0 .08-.196c.024-.088.037-.185.037-.29a3.482 3.482 0 0 1 .068-.819c.053-.243.113-.426.18-.55a1.35 1.35 0 0 1 .407-.464.688.688 0 0 1 .084-.037c.17-.057.368-.002.597.164.23.165.444.37.645.613s.442.515.724.818c.282.303.528.529.74.677l.211.127c.141.084.324.162.55.232.225.07.422.088.591.053l2.706-.042c.267 0 .475-.045.623-.132.148-.088.236-.185.264-.291a.818.818 0 0 0 .006-.36 1.327 1.327 0 0 0-.075-.28z"/></svg>