<svg xmlns="http://www.w3.org/2000/svg" width="238" height="52"><path d="M27.25 43.7l-3.4 8.4h14.2l3.6-9.8c-2.3.5-8.7 1.7-14.4 1.4"/><path d="M209.65 28.1h-3.8V8.7h3.8c5.7 0 8.7 4.1 8.7 9.7.1 6.1-3.3 9.7-8.7 9.7m-56.2 0h-2.8V8.7h2.8c7.2 0 9.8 4.6 9.8 9.7 0 6.1-3.4 9.7-9.8 9.7m-54.4 1.5c-2.5 0-5.6.4-5.9.4l5.9-15.5 5.8 15.5c-.3 0-3.2-.4-5.8-.4m-49.6 0c-1.1 0-2.1 0-3.1.1l5.7-15.3 5.8 16c-.4-.1-3.8-.8-8.4-.8M214.55.2h-27.6V50l-14.8-16.1c2.3-1 10.5-5 10.5-15.4S174.25.2 157.05.2h-25.3v48l-18.5-48h-21.1l-13.3 32.6L66.25.2h-21.1l-12.7 31c-1.6.2-3.3.3-5.3.3-11.7 0-21.9-6.6-22.9-7.3l-4.1 9.9c.6.4 11.1 7.8 26.4 7.8 9.4 0 15.2-2.2 24.2-2.2 11.7 0 19.9 4.1 22.8 5.9l-.8 2c-1.8-1.1-5.4-3-10.2-4.2l3.2 8.7h19.3l4.3-11.5c.2 0 4.7-.8 9.7-.8 5 0 9.2.8 9.5.8l4.2 11.5h37.9V31.2l15.9 20.9h39.3V36.7h8.7c14.5 0 23.3-7.2 23.3-18.3 0-10.5-8-18.2-23.3-18.2"/></svg>