<svg xmlns="http://www.w3.org/2000/svg" width="57" height="57"><path fill="#007096" d="M49.598 45.968c-.395-4.357-3.564-7.917-7.723-8.909a6.42 6.42 0 0 0 2.254-4.882 6.443 6.443 0 0 0-6.435-6.435 6.443 6.443 0 0 0-6.436 6.435c0 1.8.745 3.428 1.94 4.597H28.5a1.84 1.84 0 0 1-1.839-1.839v-8.733a3.221 3.221 0 0 0-3.217-3.218 3.221 3.221 0 0 0-3.218 3.218v10.717a7.35 7.35 0 0 0 6.039 7.236l2.941.536a1.37 1.37 0 0 1 1.118 1.277H1.839V9.194H55.16v36.774zm-8.568-7.026l-1.077 4.308-1.076-1.076zm-5.596 4.308l-1.078-4.309 2.154 3.232zm2.26-2.617l-1.346-2.02h2.692zm-4.597-8.456a4.602 4.602 0 0 1 4.597-4.596 4.602 4.602 0 0 1 4.596 4.596 4.602 4.602 0 0 1-4.596 4.597 4.602 4.602 0 0 1-4.597-4.597zm14.71 22.984h-2.759V43.21H43.21v11.95H32.177v-9.113a3.214 3.214 0 0 0-2.642-3.166l-2.94-.535a5.515 5.515 0 0 1-4.53-5.428V26.202c0-.76.618-1.38 1.379-1.38.76 0 1.379.62 1.379 1.38v8.733a3.681 3.681 0 0 0 3.677 3.678h3.88l2.057 8.234 3.257-3.257 3.256 3.257 1.885-7.542c2.922 1.278 4.971 4.193 4.971 7.582zM42.29 1.84v5.516H1.84V1.839zm12.871 5.516H44.13V1.839h11.032zM57 0H0v47.806h30.339V57h19.306v-9.194H57z"/><path fill="#007096" d="M12.871 38.613H5.516v-7.355h7.355v.539l-3.677 3.677-2.109-2.108-1.3 1.3 3.409 3.408 3.677-3.677zm4.866-11.682l-3.027 3.027v-.539H3.677v11.033H14.71v-7.894l4.327-4.327z"/><path fill="#007096" d="M12.871 25.742H5.516v-7.355h7.355v.539l-3.677 3.677-2.109-2.108-1.3 1.3 3.409 3.408 3.677-3.677zm1.839-8.655v-.539H3.677v11.033H14.71v-7.894l4.327-4.327-1.3-1.3zM29.42 18.387h23.903v1.839H29.419zM29.42 22.065h23.903v1.838H29.419zM51.484 25.742h1.839v1.839h-1.84zM47.806 25.742h1.84v1.839h-1.84zM44.129 25.742h1.839v1.839h-1.839zM36.774 45.968h1.839v1.838h-1.839zM36.774 49.645h1.839v1.839h-1.839zM3.677 3.677h1.84v1.84h-1.84zM7.355 3.677h1.839v1.84h-1.84zM11.032 3.677h1.839v1.84h-1.839z"/></svg>