<svg xmlns="http://www.w3.org/2000/svg" width="57" height="57"><path fill="#007096" d="M20.226 28.5a3.681 3.681 0 0 0 3.677-3.677h-1.838a1.84 1.84 0 0 1-1.84 1.838 1.84 1.84 0 0 1-1.838-1.838h-1.839a3.681 3.681 0 0 0 3.678 3.677zM16.548 19.306a.92.92 0 1 1-1.838 0 .92.92 0 0 1 1.838 0zM25.742 19.306a.92.92 0 1 1-1.839 0 .92.92 0 0 1 1.839 0z"/><path fill="#007096" d="M33.097 55.161V29.42h16.548v5.516h5.516v20.226zM9.194 49.645V44.13h-1.84v5.516H1.84v-7.057a4.59 4.59 0 0 1 3.143-4.36l6.273-2.09 1.913 9.566 7.058-5.042 7.059 5.042 1.913-9.567 2.06.686v12.822zm5.267-14.577l4.347 4.347-4.394 3.14-1.402-7.005zm5.765-1.971a10.05 10.05 0 0 0 4.597-1.116v1.654l-4.597 4.597-4.597-4.597v-1.654a10.047 10.047 0 0 0 4.597 1.116zm-8.274-10.113v-5.057a3.221 3.221 0 0 1 3.217-3.217c.693 0 1.378.229 1.932.643l3.125 2.345 3.126-2.345a3.239 3.239 0 0 1 1.93-.643 3.221 3.221 0 0 1 3.218 3.217v5.057c0 4.562-3.711 8.274-8.274 8.274-4.563 0-8.274-3.712-8.274-8.274zm-1.663-6.36a4.548 4.548 0 0 0-2.015.867v-3.7c0-6.59 5.362-11.952 11.952-11.952S32.177 7.2 32.177 13.79v3.701a4.548 4.548 0 0 0-2.015-.867c-.577-2.157-2.544-3.753-4.88-3.753-1.087 0-2.164.36-3.033 1.012L20.226 15.4l-2.022-1.516a5.088 5.088 0 0 0-3.035-1.012c-2.336 0-4.302 1.596-4.88 3.753zm-2.015 4.521c0-1.197.771-2.208 1.839-2.589v4.428c0 .257.02.51.039.762a2.754 2.754 0 0 1-1.878-2.6zM30.3 23.746a9.62 9.62 0 0 0 .039-.762v-4.428a2.754 2.754 0 0 1 1.838 2.59c0 1.21-.79 2.23-1.877 2.6zM27.44 35.55l-1.402 7.004-4.395-3.14 4.347-4.346zm24.044-4.83l2.377 2.377h-2.377zm-20.226-3.14v7.306l-4.597-1.533v-2.575a10.128 10.128 0 0 0 3.3-5.091c2.277-.271 4.055-2.193 4.055-4.542V13.79C34.016 6.186 27.83 0 20.226 0c-7.604 0-13.79 6.186-13.79 13.79v7.355c0 2.35 1.778 4.27 4.055 4.542a10.128 10.128 0 0 0 3.3 5.091v2.575L4.4 36.485A6.425 6.425 0 0 0 0 42.588v8.896h31.258V57H57V33.635l-6.055-6.054z"/><path fill="#007096" d="M45.968 45.968h5.516v5.516h-5.516zm-1.839 7.355h9.194v-9.194h-9.194zM34.935 51.484h7.355v1.839h-7.355zM34.935 47.806h7.355v1.84h-7.355zM34.935 44.129h7.355v1.839h-7.355zM34.935 31.258h1.84v1.839h-1.84zM38.613 31.258h9.193v1.839h-9.193zM34.935 34.935h12.871v1.84h-12.87zM51.484 38.613h1.839v1.839h-1.84zM34.935 38.613h14.71v1.839h-14.71zM46.887 7.355c2.248 0 4.287.903 5.78 2.363l-6.797 7.414-3.925-3.14-1.15 1.435 5.268 4.215 7.775-8.482a8.208 8.208 0 0 1 1.323 4.469c0 4.563-3.711 8.274-8.274 8.274-4.563 0-8.274-3.711-8.274-8.274 0-4.563 3.711-8.274 8.274-8.274zm0 18.387C52.463 25.742 57 21.205 57 15.629c0-2.184-.703-4.204-1.885-5.86l1.643-1.793-1.356-1.242-1.496 1.631a10.072 10.072 0 0 0-7.019-2.849c-5.576 0-10.113 4.537-10.113 10.113s4.537 10.113 10.113 10.113z"/></svg>