<svg xmlns="http://www.w3.org/2000/svg" width="57" height="57"><path fill="#007096" d="M3.677 11.032H14.71v1.839H3.677zM3.677 14.71h7.355v1.838H3.677zM12.871 14.71h1.839v1.838h-1.84z"/><path fill="#007096" d="M48.726 55.161H8.274c-3.237 0-5.922-2.401-6.37-5.516h17.495a4.605 4.605 0 0 0 4.504 3.678h9.194a4.605 4.605 0 0 0 4.504-3.678h17.495c-.448 3.115-3.133 5.516-6.37 5.516zm-13.04-5.516a2.754 2.754 0 0 1-2.59 1.839h-9.193a2.754 2.754 0 0 1-2.589-1.839zM3.677 20.225h1.84v25.743h45.967V33.335a18.484 18.484 0 0 0 1.839-2.124v16.595H3.677zM1.84 10.114a.92.92 0 0 1 .92-.92h12.87a.92.92 0 0 1 .92.92v7.355a.92.92 0 0 1-.92.92h-4.597v4.29c0 .253-.356.392-.528.211l-2.62-4.502H2.757a.92.92 0 0 1-.92-.92zm19.22 4.596c-.187.6-.333 1.216-.46 1.838h-2.214V14.71zm6.305 20.03c3.113 2.418 7.01 3.873 11.247 3.873 4.142 0 7.955-1.393 11.032-3.712v9.228h-30.43zM12.87 41.445c0-.77.332-1.505.907-2.011l9.865-8.57c.69.967 1.47 1.863 2.328 2.679l-8.401 9.674a2.682 2.682 0 0 1-4.699-1.772zm-5.516-20.31l1.596 2.74.059.09a2.156 2.156 0 0 0 1.716.858 2.148 2.148 0 0 0 2.145-2.145v-2.452h2.758a2.754 2.754 0 0 0 2.589-1.839h2.109c-.06.607-.101 1.218-.101 1.839 0 3.3.886 6.393 2.415 9.073l-10.072 8.75a4.523 4.523 0 0 0-1.537 3.396c0 1.009.343 1.931.903 2.684h-4.58zM29.958 6.12a9.12 9.12 0 0 0-.517 2.628c-3.515 2.808-5.538 6.958-5.538 11.477 0 8.11 6.6 14.71 14.71 14.71 8.11 0 14.71-6.6 14.71-14.71 0-4.519-2.023-8.669-5.539-11.477a9.12 9.12 0 0 0-.516-2.628c4.867 2.971 7.893 8.244 7.893 14.105 0 9.124-7.423 16.548-16.548 16.548-9.125 0-16.548-7.424-16.548-16.548 0-5.863 3.025-11.134 7.893-14.105zm8.655-4.282c4.055 0 7.355 3.3 7.355 7.355v12.35l-4.151-2.49a.927.927 0 0 1-.446-.788v-.311a8.216 8.216 0 0 0 3.677-6.872V8.274h-1.996a5.324 5.324 0 0 1-3.79-1.57l-.65-.65-.65.65a5.322 5.322 0 0 1-3.789 1.57h-1.996v2.81a8.216 8.216 0 0 0 3.678 6.872v.31c0 .32-.171.623-.447.788l-4.15 2.49V9.194c0-4.056 3.3-7.355 7.355-7.355zm2.758 25.203l1.418 1.418 1.451-5.808 1.78 1.067a5.598 5.598 0 0 1 2.686 4.47 12.88 12.88 0 0 1-7.335 4.603zm-3.677-1.839l.919-.92.92.92v7.847c-.306.022-.61.047-.92.047-.31 0-.614-.025-.92-.047zm-2.212-4.05l1.83 1.83-1.878 1.88-.8-3.2zm4.17-4.314l-1.04.52-1.038-.52a6.402 6.402 0 0 1-3.558-5.755v-.971h.157a7.14 7.14 0 0 0 4.44-1.53 7.14 7.14 0 0 0 4.44 1.53h.157v.97a6.4 6.4 0 0 1-3.558 5.756zm-1.04 2.576l1.006-.503c.105.431.318.825.608 1.158l-1.613 1.614-1.614-1.614c.291-.333.504-.727.609-1.157zm1.3 3.569l1.831-1.83.849.509-.8 3.2zm-8.704.734l1.778-1.067 1.451 5.808 1.418-1.417v5.75a12.882 12.882 0 0 1-7.335-4.603 5.6 5.6 0 0 1 2.687-4.47zm-1.789-.981a7.458 7.458 0 0 0-2.3 3.249 12.773 12.773 0 0 1-1.377-5.76c0-3.421 1.33-6.597 3.677-8.987zm22.065-2.511a12.78 12.78 0 0 1-1.377 5.76 7.453 7.453 0 0 0-2.3-3.25V11.24a12.739 12.739 0 0 1 3.677 8.987zm3.677 7.961A18.246 18.246 0 0 0 57 20.226c0-7.519-4.478-14.171-11.42-17.015A9.172 9.172 0 0 0 38.613 0a9.17 9.17 0 0 0-6.968 3.212c-4.545 1.862-8.024 5.356-9.89 9.659h-3.368v-2.758a2.761 2.761 0 0 0-2.758-2.758H2.759A2.761 2.761 0 0 0 0 10.113v7.355c0 1.197.771 2.208 1.839 2.589v27.75H0v.919C0 53.288 3.712 57 8.274 57h40.452C53.288 57 57 53.288 57 48.726v-.92h-1.839z"/><path fill="#007096" d="M45.968 40.452h1.838v1.838h-1.838zM42.29 40.452h1.839v1.838H42.29zM38.613 40.452h1.839v1.838h-1.84zM34.935 40.452h1.84v1.838h-1.84zM9.194 27.58h7.354v1.84H9.194zM9.194 31.258h7.354v1.839H9.194zM18.427 37.265l1.3-1.3 1.3 1.3-1.3 1.3zM21.027 34.665l1.3-1.3 1.3 1.3-1.3 1.3zM15.892 39.798l1.235-1.235 1.3 1.3-1.235 1.235z"/></svg>