<svg xmlns="http://www.w3.org/2000/svg" width="54" height="57"><path fill="#007096" d="M30.4 50.35V47.5h-1.9v2.85a.95.95 0 0 1-.95.95H2.85a.951.951 0 0 1-.95-.95V6.65a.95.95 0 0 1 .95-.95h24.7a.95.95 0 0 1 .95.95v3.8h1.9v-3.8a2.853 2.853 0 0 0-2.85-2.85H2.85A2.853 2.853 0 0 0 0 6.65v43.7a2.853 2.853 0 0 0 2.85 2.85h24.7a2.853 2.853 0 0 0 2.85-2.85z"/><path fill="#007096" d="M16.15 7.6h1.9v1.9h-1.9zM14.25 47.5h1.9v1.9h-1.9zM12.35 7.6h1.9v1.9h-1.9zM50.35 3.8H32.3v1.9h18.05a.95.95 0 0 1 .95.95v43.7a.95.95 0 0 1-.95.95H32.3v1.9h18.05a2.853 2.853 0 0 0 2.85-2.85V6.65a2.853 2.853 0 0 0-2.85-2.85z"/><path fill="#007096" d="M38.95 7.6h1.9v1.9h-1.9zM37.05 47.5h1.9v1.9h-1.9zM35.15 7.6h1.9v1.9h-1.9zM37.05 23.75a1.902 1.902 0 0 1-1.9 1.9h-20.9a.95.95 0 0 0-.672.278L11.4 28.107V26.6a.95.95 0 0 0-.95-.95h-1.9a1.902 1.902 0 0 1-1.9-1.9v-7.6a1.902 1.902 0 0 1 1.9-1.9h26.6a1.902 1.902 0 0 1 1.9 1.9zm-28.5-11.4a3.804 3.804 0 0 0-3.8 3.8v7.6a3.804 3.804 0 0 0 3.8 3.8h.95v2.85a.95.95 0 0 0 1.622.672l3.521-3.522H35.15a3.804 3.804 0 0 0 3.8-3.8v-7.6a3.804 3.804 0 0 0-3.8-3.8z"/><path fill="#007096" d="M46.55 34.2v7.6a1.902 1.902 0 0 1-1.9 1.9h-1.9a.95.95 0 0 0-.95.95v1.507l-2.178-2.179a.95.95 0 0 0-.672-.278h-20.9a1.902 1.902 0 0 1-1.9-1.9v-7.6a1.902 1.902 0 0 1 1.9-1.9h26.6a1.902 1.902 0 0 1 1.9 1.9zm-32.3 0v7.6a3.804 3.804 0 0 0 3.8 3.8h20.507l3.521 3.522a.95.95 0 0 0 1.622-.672V45.6h.95a3.804 3.804 0 0 0 3.8-3.8v-7.6a3.804 3.804 0 0 0-3.8-3.8h-26.6a3.804 3.804 0 0 0-3.8 3.8zM9.5 17.1h1.9V19H9.5zM13.3 17.1h20.9V19H13.3zM9.5 20.9h24.7v1.9H9.5z"/><path fill="#007096" d="M19 35.15h1.9v1.9H19zM22.8 35.15h20.9v1.9H22.8zM19 38.95h24.7v1.9H19zM8.55 0h22.8v1.9H8.55zM22.8 55.1h22.8V57H22.8zM33.25 0h1.9v1.9h-1.9z"/></svg>