<svg xmlns="http://www.w3.org/2000/svg" width="57" height="57"><path fill="#007096" d="M17.58 39.753a8.25 8.25 0 0 1 6.323-2.979 8.25 8.25 0 0 1 6.324 2.979 9.151 9.151 0 0 1-6.324 2.537 9.151 9.151 0 0 1-6.323-2.537zm2.646-8.495a3.681 3.681 0 0 1 3.677-3.677 3.681 3.681 0 0 1 3.678 3.677 3.681 3.681 0 0 1-3.678 3.677 3.681 3.681 0 0 1-3.677-3.677zm3.677-7.355c5.07 0 9.194 4.124 9.194 9.194a9.131 9.131 0 0 1-1.65 5.24 10.13 10.13 0 0 0-4.093-2.783 5.505 5.505 0 0 0 2.065-4.296 5.522 5.522 0 0 0-5.516-5.516 5.522 5.522 0 0 0-5.516 5.516c0 1.736.808 3.285 2.065 4.297a10.115 10.115 0 0 0-4.093 2.782 9.136 9.136 0 0 1-1.65-5.24c0-5.07 4.125-9.194 9.194-9.194zm0-1.838c-6.083 0-11.032 4.948-11.032 11.032 0 6.083 4.949 11.032 11.032 11.032 6.084 0 11.032-4.949 11.032-11.032 0-6.084-4.948-11.032-11.032-11.032z"/><path fill="#007096" d="M52.403 45.968H31.01c4.529-2.511 7.604-7.337 7.604-12.871 0-5.535-3.075-10.36-7.604-12.871h24.15V43.21a2.761 2.761 0 0 1-2.758 2.758zm-41.37-12.871c0-7.098 5.773-12.871 12.87-12.871 7.098 0 12.871 5.773 12.871 12.87 0 7.098-5.773 12.872-12.87 12.872-7.098 0-12.872-5.774-12.872-12.871zM5.817 54.478c-.44.44-1.026.683-1.649.683a2.334 2.334 0 0 1-2.33-2.331c0-.624.242-1.208.682-1.649l9.478-9.478A14.836 14.836 0 0 0 15.296 45zm5.214-34.252h5.766a14.803 14.803 0 0 0-5.766 5.765zm29.8-3.678l2.87-2.87a2.743 2.743 0 0 1 1.95-.807h6.751a2.761 2.761 0 0 1 2.758 2.758v2.758H11.2a2.754 2.754 0 0 1 2.59-1.839zM15.63 1.838h34.936v9.194h-4.913a4.567 4.567 0 0 0-3.25 1.346L40.07 14.71H15.629zM52.403 0H13.79v14.71a4.602 4.602 0 0 0-4.596 4.596v13.79c0 2.543.649 4.936 1.789 7.025L1.22 49.88A4.144 4.144 0 0 0 0 52.83C0 55.13 1.87 57 4.17 57a4.141 4.141 0 0 0 2.948-1.222l9.761-9.76a14.618 14.618 0 0 0 7.024 1.788h28.5A4.602 4.602 0 0 0 57 43.21V15.629a4.602 4.602 0 0 0-4.597-4.597z"/><path fill="#007096" d="M47.806 14.71h1.84v1.838h-1.84zM51.484 14.71h1.839v1.838h-1.84zM44.129 14.71h1.839v1.838h-1.839zM51.484 42.29h-7.355v-1.838h7.355zm0-3.677h-7.355a1.84 1.84 0 0 0-1.839 1.839v1.838a1.84 1.84 0 0 0 1.839 1.839h7.355a1.84 1.84 0 0 0 1.839-1.839v-1.838a1.84 1.84 0 0 0-1.84-1.84zM19.306 5.516h12.871v5.516h-12.87zm-1.838 7.355h16.548V3.677H17.468zM35.855 3.677h12.87v1.84h-12.87zM35.855 7.355h12.87v1.839h-12.87zM35.855 11.032h1.839v1.839h-1.84zM39.532 11.032h1.839v1.839h-1.839zM51.484 22.065h1.839v1.838h-1.84zM51.484 25.742h1.839v1.839h-1.84zM51.484 29.42h1.839v1.838h-1.84z"/></svg>