<svg xmlns="http://www.w3.org/2000/svg" width="57" height="56"><path fill="#007096" d="M55.918 22.352c-.109.023-2.684.558-4.859 1.21-2.91.872-4.58 2.709-4.58 5.039V39.12h-7.367c-1.82 0-3.3 1.48-3.3 3.3V56.1h1.8V42.42c0-.827.673-1.5 1.5-1.5h9.168V28.6c0-2.025 2.065-2.946 3.296-3.315a59.155 59.155 0 0 1 3.624-.934v17.483c0 2.15-1.75 3.9-3.9 3.9h-9.964L40.035 56.1h1.785l1.1-8.565h8.38c3.143 0 5.7-2.557 5.7-5.7V22.128zM55.2 16.636a3.664 3.664 0 0 1-3.66 3.66h-3.18v-3h-1.566l1.566-3.593v-.188a3.423 3.423 0 0 1 3.42-3.42 3.423 3.423 0 0 1 3.42 3.42v3.12zm-3.42-8.34a5.226 5.226 0 0 0-5.217 5.023l-2.517 5.777h2.514v3h4.98c3.01 0 5.46-2.45 5.46-5.46v-3.121a5.225 5.225 0 0 0-5.22-5.22zM17.887 39.12H10.52V28.601c0-2.33-1.669-4.167-4.58-5.04-2.174-.651-4.75-1.186-4.858-1.209L0 22.128v19.707c0 3.143 2.557 5.7 5.7 5.7h8.38l1.1 8.565h1.785l-1.3-10.365H5.7c-2.15 0-3.9-1.75-3.9-3.9V24.352c.95.217 2.372.559 3.624.934 1.23.369 3.296 1.29 3.296 3.315V40.92h9.167c.828 0 1.5.673 1.5 1.5V56.1h1.8V42.42c0-1.82-1.48-3.3-3.3-3.3zM8.64 20.295H5.46a3.664 3.664 0 0 1-3.66-3.66v-3.12a3.423 3.423 0 0 1 3.42-3.42 3.423 3.423 0 0 1 3.42 3.42v.187l1.566 3.593H8.64zm1.796-6.976A5.226 5.226 0 0 0 5.22 8.295 5.225 5.225 0 0 0 0 13.515v3.12c0 3.011 2.45 5.46 5.46 5.46h4.98v-3h2.514z"/><path fill="#007096" d="M15.3 33.6v-1.8h26.4v1.8zM13.5 30v5.4h12.63v20.7h1.8V35.4h1.8v20.7h1.8V35.4H43.5V30zM38.88 12.9v3.9h-17.4v-3h14.16V7.756h-1.8V12H21.48V6.6h17.4v3.412l2.363 2.888zm1.8-3.531V4.8h-5.04V0h-21v4.569L10.278 9.9h4.362v3.9h3.76V12h-1.96V8.1h-2.363l2.363-2.888V1.8h17.4v3H19.68v13.8h21v-3.9h4.362zM22.56 25.32v-1.8h1.8v1.8zM27.6 25.32v-1.8h1.8v1.8zM32.64 25.32v-1.8h1.8v1.8z"/></svg>