<svg xmlns="http://www.w3.org/2000/svg" width="1198" height="62"><defs><clipPath id="a"><path fill="#fff" d="M-.5 62.5v-63h1198v63zM1159.721 60h37.202V48.964h-24.119v-13.35h19.758V24.667h-19.758V13.008h23.229V1.972h-36.312zm-27.59 1.068c7.565 0 13.973-2.937 18.779-8.544l-6.942-8.188c-2.848 3.026-6.586 5.429-11.303 5.429-8.544 0-14.062-6.942-14.062-18.868 0-11.659 6.319-18.69 14.24-18.69 4.183 0 7.298 1.958 10.235 4.628l6.942-8.366c-3.916-4.005-9.968-7.565-17.444-7.565-14.685 0-27.412 11.214-27.412 30.438 0 19.491 12.282 29.726 26.967 29.726zM1048.738 60h12.46V39.441c0-6.853-1.068-14.596-1.602-21.004h.356l5.696 12.638L1080.778 60h13.439V1.972h-12.46v20.47c0 6.853 1.068 15.041 1.602 21.182h-.356l-5.696-12.816-15.13-28.836h-13.439zm-58.384 0h13.35l3.56-13.795h17.711l3.56 13.795h13.884l-18.156-58.028h-15.753zm21.004-29.37c1.602-5.785 3.115-12.549 4.539-18.69h.356c1.513 6.052 3.115 12.905 4.717 18.69l1.335 5.34h-12.371zM952.173 60h36.045V48.964h-22.962V1.972h-13.083zm-31.15 1.068c8.099 0 15.13-3.115 19.135-7.031v-26.7h-21.182v10.68h9.612v9.968c-1.424 1.157-3.827 1.78-6.23 1.78-10.858 0-16.287-6.942-16.287-18.868 0-11.659 6.319-18.69 15.308-18.69 4.984 0 8.01 2.047 10.947 4.628l6.853-8.366C935.352 4.553 929.3.904 920.934.904c-15.486 0-28.302 11.214-28.302 30.438 0 19.491 12.46 29.726 28.391 29.726zM819.207 60h13.35l3.56-13.795h17.711L857.388 60h13.884L853.116 1.972h-15.753zm21.004-29.37c1.602-5.785 3.115-12.549 4.539-18.69h.356c1.513 6.052 3.115 12.905 4.717 18.69l1.335 5.34h-12.371zM770.613 60h13.172V13.008h15.931V1.972h-45.034v11.036h15.931zm-63.19 0h13.35l3.56-13.795h17.711L745.604 60h13.884L741.332 1.972h-15.753zm21.004-29.37c1.602-5.785 3.115-12.549 4.539-18.69h.356c1.513 6.052 3.115 12.905 4.717 18.69l1.335 5.34h-12.371zm-63.19 30.438c13.884 0 21.894-8.366 21.894-17.978 0-8.188-4.45-12.905-11.481-15.753l-7.476-3.026c-4.984-2.047-8.811-3.293-8.811-6.853 0-3.293 2.848-5.251 7.387-5.251 4.628 0 8.188 1.691 12.015 4.628l6.675-8.277C680.456 3.574 673.425.904 666.75.904c-12.104 0-20.648 7.654-20.648 17.266 0 8.455 5.696 13.439 11.659 15.842l7.565 3.204c5.073 2.136 8.366 3.293 8.366 6.942 0 3.471-2.67 5.607-8.099 5.607-4.806 0-10.146-2.492-14.329-6.052l-7.476 8.989c5.874 5.518 13.884 8.366 21.449 8.366zM598.754 60h37.202V48.964h-24.119v-13.35h19.758V24.667h-19.758V13.008h23.23V1.972h-36.313zm-31.15 1.068c8.1 0 15.13-3.115 19.135-7.031v-26.7h-21.182v10.68h9.612v9.968c-1.424 1.157-3.827 1.78-6.23 1.78-10.858 0-16.287-6.942-16.287-18.868 0-11.659 6.32-18.69 15.308-18.69 4.984 0 8.01 2.047 10.947 4.628l6.853-8.366c-3.827-3.916-9.879-7.565-18.245-7.565-15.486 0-28.302 11.214-28.302 30.438 0 19.491 12.46 29.726 28.391 29.726zM484.478 60h13.35l3.56-13.795H519.1L522.66 60h13.884L518.387 1.972h-15.753zm21.004-29.37c1.602-5.785 3.115-12.549 4.54-18.69h.355c1.513 6.052 3.115 12.905 4.717 18.69l1.335 5.34h-12.37zM457.244 60h13.172V13.008h15.931V1.972h-45.034v11.036h15.931zm-70.488 0h12.46V39.441c0-6.853-1.068-14.596-1.602-21.004h.356l5.696 12.638L418.796 60h13.439V1.972h-12.46v20.47c0 6.853 1.068 15.041 1.602 21.182h-.356l-5.696-12.816-15.13-28.836h-13.439zm-58.384 0h13.35l3.56-13.795h17.711L366.553 60h13.884L362.281 1.972h-15.753zm21.004-29.37c1.602-5.785 3.115-12.549 4.539-18.69h.356c1.513 6.052 3.115 12.905 4.717 18.69l1.335 5.34h-12.371zM297.934 60h15.753l17.444-58.028h-13.35l-6.853 27.056c-1.69 6.319-2.937 12.193-4.628 18.601h-.356c-1.78-6.408-2.937-12.282-4.717-18.601l-6.942-27.056h-13.884zm-52.599-10.591V12.563h2.492c9.879 0 16.465 4.272 16.465 18.156 0 13.884-6.586 18.69-16.465 18.69zM232.252 60h17.088c16.999 0 28.391-9.345 28.391-29.281S266.339 1.972 248.628 1.972h-16.376zm-58.384 0h13.35l3.56-13.795h17.711L212.05 60h13.884L207.777 1.972h-15.753zm21.004-29.37c1.602-5.785 3.115-12.549 4.539-18.69h.356c1.513 6.052 3.115 12.905 4.717 18.69l1.335 5.34h-12.371zM114.683 60h37.202V48.964h-24.119v-13.35h19.758V24.667h-19.758V13.008h23.23V1.972h-36.313zm-59.986 0H67.78V35.792h20.025V60h13.172V1.972H87.805v22.339H67.78V1.972H54.697zm-38.181 0h13.172V13.008H45.62V1.972H.585v11.036h15.931z"/></clipPath></defs><path fill="#7f8e94" d="M1159.721 1.972h36.312v11.036h-23.229v11.659h19.758v10.947h-19.758v13.35h24.119V60h-37.202zm-54.557 29.37c0-19.224 12.727-30.438 27.412-30.438 7.476 0 13.528 3.56 17.444 7.565l-6.942 8.366c-2.937-2.67-6.052-4.628-10.235-4.628-7.921 0-14.24 7.031-14.24 18.69 0 11.926 5.518 18.868 14.062 18.868 4.717 0 8.455-2.403 11.303-5.429l6.942 8.188c-4.806 5.607-11.214 8.544-18.779 8.544-14.685 0-26.967-10.235-26.967-29.726zm-56.426-29.37h13.439l15.13 28.836 5.696 12.816h.356c-.534-6.141-1.602-14.329-1.602-21.182V1.972h12.46V60h-13.439l-15.13-28.925-5.696-12.638h-.356c.534 6.408 1.602 14.151 1.602 21.004V60h-12.46zm-40.228 0h15.753L1042.419 60h-13.884l-3.56-13.795h-17.711L1003.704 60h-13.35zm1.424 33.998h12.371l-1.335-5.34c-1.602-5.785-3.204-12.638-4.717-18.69h-.356c-1.424 6.141-2.937 12.905-4.539 18.69zM952.173 1.972h13.083v46.992h22.962V60h-36.045zm-31.15 59.096c-15.931 0-28.391-10.235-28.391-29.726 0-19.224 12.816-30.438 28.302-30.438 8.366 0 14.418 3.649 18.245 7.565l-6.853 8.366c-2.937-2.581-5.963-4.628-10.947-4.628-8.989 0-15.308 7.031-15.308 18.69 0 11.926 5.429 18.868 16.287 18.868 2.403 0 4.806-.623 6.23-1.78v-9.968h-9.612v-10.68h21.182v26.7c-4.005 3.916-11.036 7.031-19.135 7.031zm-83.66-59.096h15.753L871.272 60h-13.884l-3.56-13.795h-17.711L832.557 60h-13.35zm1.424 33.998h12.371l-1.335-5.34c-1.602-5.785-3.204-12.638-4.717-18.69h-.356c-1.424 6.141-2.937 12.905-4.539 18.69zm-68.174-22.962h-15.931V1.972h45.034v11.036h-15.931V60h-13.172zM725.579 1.972h15.753L759.488 60h-13.884l-3.56-13.795h-17.711L720.773 60h-13.35zm1.424 33.998h12.371l-1.335-5.34c-1.602-5.785-3.204-12.638-4.717-18.69h-.356c-1.424 6.141-2.937 12.905-4.539 18.69zm-83.215 16.732l7.476-8.989c4.183 3.56 9.523 6.052 14.329 6.052 5.429 0 8.099-2.136 8.099-5.607 0-3.649-3.293-4.806-8.366-6.942l-7.565-3.204c-5.963-2.403-11.659-7.387-11.659-15.842 0-9.612 8.544-17.266 20.648-17.266 6.675 0 13.706 2.67 18.69 7.654l-6.675 8.277c-3.827-2.937-7.387-4.628-12.015-4.628-4.539 0-7.387 1.958-7.387 5.251 0 3.56 3.827 4.806 8.811 6.853l7.476 3.026c7.031 2.848 11.481 7.565 11.481 15.753 0 9.612-8.01 17.978-21.894 17.978-7.565 0-15.575-2.848-21.449-8.366zm-45.034-50.73h36.312v11.036h-23.229v11.659h19.758v10.947h-19.758v13.35h24.12V60h-37.203zm-59.54 29.37c0-19.224 12.815-30.438 28.301-30.438 8.366 0 14.418 3.649 18.245 7.565l-6.853 8.366c-2.937-2.581-5.963-4.628-10.947-4.628-8.989 0-15.308 7.031-15.308 18.69 0 11.926 5.43 18.868 16.287 18.868 2.403 0 4.806-.623 6.23-1.78v-9.968h-9.612v-10.68h21.182v26.7c-4.005 3.916-11.036 7.031-19.135 7.031-15.93 0-28.39-10.235-28.39-29.726zm-36.58-29.37h15.753L536.543 60H522.66l-3.56-13.795h-17.71L497.828 60h-13.35zm1.424 33.998h12.371l-1.335-5.34c-1.602-5.785-3.204-12.638-4.717-18.69h-.356c-1.424 6.141-2.937 12.905-4.539 18.69zm-46.814-22.962h-15.931V1.972h45.034v11.036h-15.93V60h-13.173zM386.756 1.972h13.44l15.129 28.836 5.696 12.816h.356c-.534-6.141-1.602-14.329-1.602-21.182V1.972h12.46V60h-13.439l-15.13-28.925-5.696-12.638h-.356c.534 6.408 1.602 14.151 1.602 21.004V60h-12.46zm-40.228 0h15.753L380.437 60h-13.884l-3.56-13.795h-17.711L341.722 60h-13.35zm1.424 33.998h12.371l-1.335-5.34c-1.602-5.785-3.204-12.638-4.717-18.69h-.356c-1.424 6.141-2.937 12.905-4.539 18.69zM280.401 1.972h13.884l6.942 27.056c1.78 6.319 2.937 12.193 4.717 18.601h.356c1.691-6.408 2.937-12.282 4.628-18.601l6.853-27.056h13.35L313.687 60h-15.753zm-32.574 47.437c9.88 0 16.465-4.806 16.465-18.69s-6.586-18.156-16.465-18.156h-2.492v36.846zM232.252 1.972h16.376c17.711 0 29.103 8.811 29.103 28.747S266.339 60 249.341 60h-17.089zm-40.228 0h15.753L225.933 60H212.05l-3.56-13.795h-17.71L187.218 60h-13.351zm1.424 33.998h12.371l-1.335-5.34c-1.602-5.785-3.204-12.638-4.717-18.69h-.356c-1.424 6.141-2.937 12.905-4.539 18.69zM114.683 1.972h36.312v11.036h-23.229v11.659h19.758v10.947h-19.758v13.35h24.119V60h-37.202zm-59.986 0H67.78v22.339h20.025V1.972h13.172V60H87.805V35.792H67.78V60H54.697zM16.516 13.008H.585V1.972h45.034v11.036H29.688V60H16.516z"/><path fill="none" stroke="#b1b1b1" stroke-miterlimit="50" d="M1159.721 1.972h36.312v11.036h-23.229v11.659h19.758v10.947h-19.758v13.35h24.119V60h-37.202zm-54.557 29.37c0-19.224 12.727-30.438 27.412-30.438 7.476 0 13.528 3.56 17.444 7.565l-6.942 8.366c-2.937-2.67-6.052-4.628-10.235-4.628-7.921 0-14.24 7.031-14.24 18.69 0 11.926 5.518 18.868 14.062 18.868 4.717 0 8.455-2.403 11.303-5.429l6.942 8.188c-4.806 5.607-11.214 8.544-18.779 8.544-14.685 0-26.967-10.235-26.967-29.726zm-56.426-29.37h13.439l15.13 28.836 5.696 12.816h.356c-.534-6.141-1.602-14.329-1.602-21.182V1.972h12.46V60h-13.439l-15.13-28.925-5.696-12.638h-.356c.534 6.408 1.602 14.151 1.602 21.004V60h-12.46zm-40.228 0h15.753L1042.419 60h-13.884l-3.56-13.795h-17.711L1003.704 60h-13.35zm1.424 33.998h12.371l-1.335-5.34c-1.602-5.785-3.204-12.638-4.717-18.69h-.356c-1.424 6.141-2.937 12.905-4.539 18.69zM952.173 1.972h13.083v46.992h22.962V60h-36.045zm-31.15 59.096c-15.931 0-28.391-10.235-28.391-29.726 0-19.224 12.816-30.438 28.302-30.438 8.366 0 14.418 3.649 18.245 7.565l-6.853 8.366c-2.937-2.581-5.963-4.628-10.947-4.628-8.989 0-15.308 7.031-15.308 18.69 0 11.926 5.429 18.868 16.287 18.868 2.403 0 4.806-.623 6.23-1.78v-9.968h-9.612v-10.68h21.182v26.7c-4.005 3.916-11.036 7.031-19.135 7.031zm-83.66-59.096h15.753L871.272 60h-13.884l-3.56-13.795h-17.711L832.557 60h-13.35zm1.424 33.998h12.371l-1.335-5.34c-1.602-5.785-3.204-12.638-4.717-18.69h-.356c-1.424 6.141-2.937 12.905-4.539 18.69zm-68.174-22.962h-15.931V1.972h45.034v11.036h-15.931V60h-13.172zM725.579 1.972h15.753L759.488 60h-13.884l-3.56-13.795h-17.711L720.773 60h-13.35zm1.424 33.998h12.371l-1.335-5.34c-1.602-5.785-3.204-12.638-4.717-18.69h-.356c-1.424 6.141-2.937 12.905-4.539 18.69zm-83.215 16.732l7.476-8.989c4.183 3.56 9.523 6.052 14.329 6.052 5.429 0 8.099-2.136 8.099-5.607 0-3.649-3.293-4.806-8.366-6.942l-7.565-3.204c-5.963-2.403-11.659-7.387-11.659-15.842 0-9.612 8.544-17.266 20.648-17.266 6.675 0 13.706 2.67 18.69 7.654l-6.675 8.277c-3.827-2.937-7.387-4.628-12.015-4.628-4.539 0-7.387 1.958-7.387 5.251 0 3.56 3.827 4.806 8.811 6.853l7.476 3.026c7.031 2.848 11.481 7.565 11.481 15.753 0 9.612-8.01 17.978-21.894 17.978-7.565 0-15.575-2.848-21.449-8.366zm-45.034-50.73h36.312v11.036h-23.229v11.659h19.758v10.947h-19.758v13.35h24.12V60h-37.203zm-59.54 29.37c0-19.224 12.815-30.438 28.301-30.438 8.366 0 14.418 3.649 18.245 7.565l-6.853 8.366c-2.937-2.581-5.963-4.628-10.947-4.628-8.989 0-15.308 7.031-15.308 18.69 0 11.926 5.43 18.868 16.287 18.868 2.403 0 4.806-.623 6.23-1.78v-9.968h-9.612v-10.68h21.182v26.7c-4.005 3.916-11.036 7.031-19.135 7.031-15.93 0-28.39-10.235-28.39-29.726zm-36.58-29.37h15.753L536.543 60H522.66l-3.56-13.795h-17.71L497.828 60h-13.35zm1.424 33.998h12.371l-1.335-5.34c-1.602-5.785-3.204-12.638-4.717-18.69h-.356c-1.424 6.141-2.937 12.905-4.539 18.69zm-46.814-22.962h-15.931V1.972h45.034v11.036h-15.93V60h-13.173zM386.756 1.972h13.44l15.129 28.836 5.696 12.816h.356c-.534-6.141-1.602-14.329-1.602-21.182V1.972h12.46V60h-13.439l-15.13-28.925-5.696-12.638h-.356c.534 6.408 1.602 14.151 1.602 21.004V60h-12.46zm-40.228 0h15.753L380.437 60h-13.884l-3.56-13.795h-17.711L341.722 60h-13.35zm1.424 33.998h12.371l-1.335-5.34c-1.602-5.785-3.204-12.638-4.717-18.69h-.356c-1.424 6.141-2.937 12.905-4.539 18.69zM280.401 1.972h13.884l6.942 27.056c1.78 6.319 2.937 12.193 4.717 18.601h.356c1.691-6.408 2.937-12.282 4.628-18.601l6.853-27.056h13.35L313.687 60h-15.753zm-32.574 47.437c9.88 0 16.465-4.806 16.465-18.69s-6.586-18.156-16.465-18.156h-2.492v36.846zM232.252 1.972h16.376c17.711 0 29.103 8.811 29.103 28.747S266.339 60 249.341 60h-17.089zm-40.228 0h15.753L225.933 60H212.05l-3.56-13.795h-17.71L187.218 60h-13.351zm1.424 33.998h12.371l-1.335-5.34c-1.602-5.785-3.204-12.638-4.717-18.69h-.356c-1.424 6.141-2.937 12.905-4.539 18.69zM114.683 1.972h36.312v11.036h-23.229v11.659h19.758v10.947h-19.758v13.35h24.119V60h-37.202zm-59.986 0H67.78v22.339h20.025V1.972h13.172V60H87.805V35.792H67.78V60H54.697zM16.516 13.008H.585V1.972h45.034v11.036H29.688V60H16.516z" clip-path="url(&quot;#a&quot;)"/></svg>