<svg xmlns="http://www.w3.org/2000/svg" width="115" height="36"><path fill="#111" d="M105.06 13.844v-2.601c1.3 1.074 2.854 1.695 4.525 1.695 1.624 0 2.761-.597 2.761-1.91 0-1.146-.72-1.6-1.995-2.101l-2.066-.764c-1.902-.716-3.34-1.766-3.34-4.177 0-2.577 2.18-3.986 4.802-3.986 1.601 0 3.063.43 4.2 1.194v2.554c-1.183-.93-2.484-1.576-4.154-1.576-1.438 0-2.505.573-2.505 1.766 0 1.075.673 1.505 1.856 1.935l2.297.858c2.227.836 3.248 2.125 3.248 4.25 0 2.673-2.204 4.152-5.104 4.152-1.902 0-3.527-.572-4.524-1.29zm-14.57-2.601c1.298 1.074 2.852 1.695 4.523 1.695 1.625 0 2.761-.597 2.761-1.91 0-1.146-.72-1.6-1.995-2.101l-2.066-.764c-1.902-.716-3.34-1.766-3.34-4.177C90.373 1.41 92.553 0 95.175 0c1.601 0 3.063.43 4.2 1.194v2.554c-1.183-.93-2.483-1.576-4.153-1.576-1.439 0-2.505.573-2.505 1.766 0 1.075.672 1.505 1.856 1.935l2.297.858c2.227.836 3.248 2.125 3.248 4.25 0 2.673-2.205 4.152-5.104 4.152-1.903 0-3.527-.572-4.524-1.289zM84.872.252v2.194h-6.264v3.528h5.617v2.17h-5.617v4.546h6.264v2.218h-8.63V.252zM57.684 14.886V0l9.792 9.598V.226h2.318v14.887L60.01 5.351v9.535zm-6.883.018h-2.412V.248H50.8zm-18.25-1.05v-2.601c1.299 1.073 2.853 1.695 4.524 1.695 1.624 0 2.761-.597 2.761-1.91 0-1.146-.72-1.6-1.995-2.101l-2.066-.764c-1.902-.716-3.34-1.766-3.34-4.177 0-2.577 2.181-3.986 4.802-3.986 1.601 0 3.063.43 4.2 1.193v2.555c-1.183-.932-2.483-1.576-4.153-1.576-1.439 0-2.505.573-2.505 1.766 0 1.075.672 1.505 1.856 1.933l2.296.86c2.228.835 3.248 2.125 3.248 4.25 0 2.671-2.204 4.152-5.104 4.152-1.902 0-3.527-.572-4.525-1.289zM15.454 9.056V.248h2.413v8.545c0 2.817 1.16 4.131 3.294 4.131 2.134 0 3.295-1.314 3.295-4.13V.247h2.412V9.08c0 4.01-2.297 6.063-5.707 6.063-3.387 0-5.707-2.053-5.707-6.087zM2.343 8.46zm0 0v4.297h3.063c1.623 0 2.505-.836 2.505-2.149 0-1.337-.88-2.148-2.506-2.148zm2.623-2.053c1.647 0 2.529-.645 2.529-2.029s-.88-1.98-2.529-1.98H2.343v4.009zm2.992.93c1.345.454 2.32 1.815 2.32 3.367 0 2.745-1.857 4.201-4.826 4.201H0V.248h4.988c2.97 0 4.826 1.361 4.826 3.987 0 1.575-.813 2.72-1.856 3.103zm89.526 22.511v5.784H95.13V21.379h5.047c2.877 0 4.739 1.482 4.739 4.272 0 2.387-1.034 3.757-3.235 4.11l5.007 5.87h-2.679L99.16 29.85h-1.674zm0-2.015h2.647c1.567 0 2.45-.86 2.45-2.182 0-1.321-.883-2.182-2.45-2.182h-2.647zm-9.466-6.454v2.134h-6.455v3.43h5.789v2.11h-5.79v4.422h6.456v2.157h-8.892V21.379zm-25.785 0h5.49c4.225 0 6.957 2.784 6.957 7.123 0 4.342-2.732 7.13-6.958 7.13h-5.49zm5.4 12.096c3.006 0 4.613-1.929 4.613-4.973 0-3.067-1.608-4.989-4.613-4.989H64.66v9.962zM52.455 21.379h2.667V35.63h-2.667zM36.572 31.966c1.3 1.013 2.862 1.599 4.536 1.599 1.63 0 2.773-.561 2.773-1.8 0-1.08-.729-1.504-2.006-1.977l-2.068-.718c-1.906-.677-3.356-1.666-3.356-3.939 0-2.43 2.195-3.752 4.82-3.752 1.607 0 3.072.404 4.217 1.12v2.41c-1.19-.879-2.493-1.485-4.167-1.485-1.44 0-2.517.538-2.517 1.66 0 1.013.676 1.418 1.866 1.826l2.304.808c2.232.785 3.257 2.002 3.257 4.004 0 2.519-2.216 3.91-5.123 3.91-1.911 0-3.536-.535-4.536-1.21zM18.67 21.379l10.065 9.053v-8.84h2.382v14.04L21.06 26.425v8.993h-2.39zm-9.78 0h2.668V35.63H8.89z"/></svg>