<svg xmlns="http://www.w3.org/2000/svg" width="1473" height="60"><defs><linearGradient id="a" x1=".03" x2="1472.93" y1=".8" y2="60" gradientUnits="userSpaceOnUse"><stop offset="0" stop-color="#e2e8e6"/><stop offset=".5" stop-color="#dbe6e9"/><stop offset="1" stop-color="#d8d8d8"/></linearGradient></defs><path fill="url(#a)" d="M1451.388 60c-7.444 0-15.325-2.802-21.105-8.232l7.356-8.845c4.116 3.503 9.37 5.955 14.1 5.955 5.342 0 7.969-2.102 7.969-5.517 0-3.59-3.24-4.729-8.232-6.83l-7.444-3.153c-5.867-2.365-11.472-7.27-11.472-15.589 0-9.458 8.407-16.989 20.317-16.989 6.568 0 13.486 2.627 18.39 7.531l-6.568 8.145c-3.765-2.89-7.268-4.554-11.822-4.554-4.466 0-7.269 1.927-7.269 5.167 0 3.503 3.766 4.729 8.67 6.743l7.356 2.977c6.919 2.803 11.297 7.444 11.297 15.501 0 9.458-7.881 17.69-21.543 17.69zm-75.138-27.498V1.85h12.96v31.964c0 11.21 3.504 15.063 9.897 15.063 6.393 0 10.07-3.853 10.07-15.063V1.851h12.436V32.5c0 19.18-7.794 27.499-22.506 27.499-14.8 0-22.857-8.32-22.857-27.498zm-54.734-19.792h-15.676V1.85h44.313v10.86h-15.676v46.24h-12.96zM1274.664 60c-14.8 0-22.857-8.32-22.857-27.498V1.85h12.961v31.964c0 11.21 3.503 15.063 9.896 15.063 6.393 0 10.071-3.853 10.071-15.063V1.851h12.436V32.5c0 19.18-7.795 27.499-22.507 27.499zm-46.502-29.863c0-11.384-4.904-18.215-12.698-18.215-7.794 0-12.698 6.83-12.698 18.215 0 11.472 4.904 18.741 12.698 18.741 7.794 0 12.698-7.269 12.698-18.74zM1215.464 60c-15.413 0-25.922-11.21-25.922-29.863S1200.051.8 1215.464.8s25.922 10.772 25.922 29.337c0 18.654-10.509 29.863-25.922 29.863zm-56.047-11.034c7.006 0 10.596-2.452 10.596-7.707 0-4.992-3.503-7.006-10.596-7.006h-7.269v14.713zm-1.226-24.258c6.305 0 9.02-2.628 9.02-6.743 0-4.467-2.89-6.13-8.933-6.13h-6.13v12.873zM1139.275 1.85h19.529c11.822 0 21.017 3.24 21.017 14.187 0 5.08-2.802 10.596-7.443 12.348v.35c5.78 1.489 10.246 5.78 10.246 13.399 0 11.647-9.809 16.814-22.156 16.814h-21.193zm-39.584 0h15.5l17.866 57.098h-13.662l-3.503-13.574h-17.427l-3.503 13.574h-13.136zm1.401 33.453h12.173l-1.313-5.254c-1.577-5.693-3.153-12.436-4.642-18.39h-.35c-1.401 6.042-2.89 12.697-4.466 18.39zm-65.68 3.328l-17.252-36.78h13.837l5.079 13.136c1.576 4.291 3.065 8.232 4.641 12.61h.35c1.664-4.378 3.24-8.319 4.817-12.61l5.167-13.136h13.486l-17.252 36.781v20.317h-12.873zm-47.815-36.78h15.5l17.865 57.098h-13.661l-3.503-13.574H986.37l-3.502 13.574H969.73zm1.4 33.453h12.174l-1.314-5.254c-1.576-5.693-3.153-12.436-4.642-18.39h-.35c-1.401 6.042-2.89 12.697-4.466 18.39zm-64.366 16.464l7.356-8.845c4.116 3.503 9.37 5.955 14.1 5.955 5.342 0 7.969-2.102 7.969-5.517 0-3.59-3.24-4.729-8.232-6.83l-7.444-3.153c-5.867-2.365-11.472-7.27-11.472-15.589C926.908 8.331 935.315.8 947.225.8c6.568 0 13.486 2.627 18.39 7.531l-6.568 8.145c-3.765-2.89-7.268-4.554-11.822-4.554-4.466 0-7.269 1.927-7.269 5.167 0 3.503 3.766 4.729 8.67 6.743l7.356 2.977c6.919 2.803 11.297 7.444 11.297 15.501 0 9.458-7.881 17.69-21.543 17.69-7.444 0-15.325-2.802-21.105-8.232zm-66.206 0l7.356-8.845c4.116 3.503 9.37 5.955 14.1 5.955 5.342 0 7.969-2.102 7.969-5.517 0-3.59-3.24-4.729-8.232-6.83l-7.444-3.153c-5.867-2.365-11.472-7.27-11.472-15.589C860.702 8.331 869.109.8 881.019.8c6.568 0 13.486 2.627 18.39 7.531l-6.568 8.145c-3.765-2.89-7.268-4.554-11.822-4.554-4.466 0-7.269 1.927-7.269 5.167 0 3.503 3.766 4.729 8.67 6.743l7.356 2.977c6.919 2.803 11.297 7.444 11.297 15.501 0 9.458-7.881 17.69-21.543 17.69-7.444 0-15.325-2.802-21.105-8.232zm-29.25-23.645c6.743 0 10.422-2.89 10.422-8.495 0-5.604-3.679-7.531-10.422-7.531h-6.655v16.026zM809.646 1.851h20.58c12.085 0 21.981 4.203 21.981 17.777 0 8.407-4.028 13.75-10.158 16.464l12.96 22.857h-14.45l-10.946-20.58h-7.093v20.58h-12.874zm-47.99 0h35.73v10.86h-22.857v11.471h19.442v10.772h-19.442V48.09h23.733v10.86h-36.606zm-66.732 0h14.1l9.195 25.396c1.138 3.328 2.19 7.006 3.328 10.51h.35c1.139-3.504 2.102-7.182 3.24-10.51l9.02-25.396h14.012v57.098h-11.735V38.02c0-5.605 1.051-13.924 1.664-19.441h-.35l-4.641 13.573-8.145 21.806h-7.093l-8.145-21.806-4.553-13.573h-.35c.612 5.517 1.663 13.836 1.663 19.44V58.95h-11.56zM670.93 30.137c0-11.384-4.904-18.215-12.698-18.215-7.794 0-12.698 6.83-12.698 18.215 0 11.472 4.904 18.741 12.698 18.741 7.794 0 12.698-7.269 12.698-18.74zM658.231 60c-15.413 0-25.922-11.21-25.922-29.863S642.818.8 658.23.8s25.922 10.772 25.922 29.337c0 18.654-10.51 29.863-25.922 29.863zm-58.324-47.29H584.23V1.85h44.312v10.86h-15.675v46.24h-12.961zM559.272 60c-7.444 0-15.325-2.802-21.105-8.232l7.356-8.845c4.116 3.503 9.37 5.955 14.1 5.955 5.342 0 7.969-2.102 7.969-5.517 0-3.59-3.24-4.729-8.232-6.83l-7.444-3.153c-5.867-2.365-11.472-7.27-11.472-15.589C540.444 8.331 548.85.8 560.76.8c6.568 0 13.486 2.627 18.39 7.531l-6.567 8.145c-3.766-2.89-7.27-4.554-11.823-4.554-4.466 0-7.269 1.927-7.269 5.167 0 3.503 3.766 4.729 8.67 6.743l7.356 2.977c6.919 2.803 11.297 7.444 11.297 15.501 0 9.458-7.881 17.69-21.543 17.69zm-75.138-27.498V1.85h12.96v31.964c0 11.21 3.504 15.063 9.897 15.063 6.393 0 10.07-3.853 10.07-15.063V1.851h12.436V32.5c0 19.18-7.794 27.499-22.506 27.499-14.8 0-22.857-8.32-22.857-27.498zM458.913 60c-14.45 0-26.535-10.071-26.535-29.25C432.378 11.834 444.9.8 459.35.8c7.357 0 13.312 3.503 17.165 7.444l-6.83 8.232c-2.89-2.627-5.956-4.554-10.072-4.554-7.794 0-14.012 6.918-14.012 18.39 0 11.735 5.43 18.566 13.837 18.566 4.641 0 8.32-2.364 11.122-5.342l6.83 8.057C472.663 57.11 466.357 60 458.914 60zm-75.49-31.877c6.744 0 10.422-2.89 10.422-8.495 0-5.604-3.678-7.531-10.421-7.531h-6.656v16.026zM363.896 1.851h20.58c12.085 0 21.98 4.203 21.98 17.777 0 8.407-4.028 13.75-10.158 16.464l12.961 22.857h-14.45l-10.946-20.58h-7.094v20.58h-12.873zM305.308 32.5V1.852h12.96v31.964c0 11.21 3.504 15.063 9.897 15.063 6.393 0 10.07-3.853 10.07-15.063V1.851h12.436V32.5c0 19.18-7.794 27.499-22.506 27.499-14.8 0-22.857-8.32-22.857-27.498zm-23.645-2.364c0-11.384-4.904-18.215-12.698-18.215-7.795 0-12.699 6.83-12.699 18.215 0 11.472 4.904 18.741 12.699 18.741 7.794 0 12.698-7.269 12.698-18.74zM268.965 60c-15.413 0-25.922-11.21-25.922-29.863S253.552.8 268.965.8s25.921 10.772 25.921 29.337c0 18.654-10.508 29.863-25.921 29.863zm-78.291-47.29h-15.676V1.85h44.312v10.86h-15.676v46.24h-12.96zM146.36 1.85h15.5l17.866 57.1h-13.662l-3.503-13.575h-17.427l-3.503 13.574h-13.136zm1.401 33.454h12.173l-1.314-5.254c-1.576-5.693-3.152-12.436-4.641-18.39h-.35c-1.401 6.042-2.89 12.697-4.467 18.39zM76.74 1.851h12.873v21.98h19.704V1.852h12.961V58.95h-12.96V35.13H89.612v23.82H76.74zm-76.715 0h13.224l3.94 26.71c.701 5.955 1.577 11.998 2.277 18.04h.35a6847.967 6847.967 0 0 1 3.416-18.04l6.13-26.71H40.31l6.13 26.71c1.139 5.78 2.277 11.91 3.416 18.04h.35c.788-6.13 1.576-12.173 2.364-18.04l3.941-26.71h12.348L58.7 58.949H42.498l-5.604-25.922c-.964-4.378-1.664-9.02-2.277-13.223h-.35c-.701 4.203-1.402 8.845-2.365 13.223L26.56 58.95H10.62z"/></svg>