<svg xmlns="http://www.w3.org/2000/svg" width="1262" height="161"><defs><linearGradient id="a" x1=".05" x2="1261.98" y1="-.09" y2="200.26" gradientUnits="userSpaceOnUse"><stop offset="0" stop-color="#e2e8e6"/><stop offset=".5" stop-color="#dbe6e9"/><stop offset="1" stop-color="#d8d8d8"/></linearGradient></defs><path fill="url(#a)" d="M890.982 152.88c0-4.717 3.293-8.277 7.832-8.277 4.54 0 7.921 3.56 7.921 8.277 0 4.628-3.382 8.188-7.92 8.188-4.54 0-7.833-3.56-7.833-8.188zm2.136-13.439c-1.78-12.193 11.214-17.266 11.214-23.941 0-3.649-2.403-5.607-5.963-5.607-3.293 0-5.696 1.691-8.099 4.094l-7.209-6.586c4.183-4.806 10.057-8.099 17-8.099 9.522 0 16.82 4.717 16.82 15.219 0 11.036-13.35 14.329-12.282 24.92h-11.48zm-38.626 21.627c-7.565 0-15.574-2.848-21.448-8.366l7.476-8.989c4.182 3.56 9.522 6.052 14.328 6.052 5.43 0 8.1-2.136 8.1-5.607 0-3.649-3.293-4.806-8.366-6.942l-7.565-3.204c-5.964-2.403-11.66-7.387-11.66-15.842 0-9.612 8.544-17.266 20.648-17.266 6.675 0 13.707 2.67 18.69 7.654l-6.674 8.277c-3.828-2.937-7.387-4.628-12.016-4.628-4.539 0-7.386 1.958-7.386 5.251 0 3.56 3.826 4.806 8.81 6.853l7.477 3.026c7.03 2.848 11.48 7.565 11.48 15.753 0 9.612-8.01 17.978-21.893 17.978zm-42.808 0c-14.685 0-26.968-10.235-26.968-29.726 0-19.224 12.727-30.438 27.412-30.438 7.476 0 13.528 3.56 17.444 7.565l-6.942 8.366c-2.937-2.67-6.052-4.628-10.234-4.628-7.922 0-14.24 7.031-14.24 18.69 0 11.926 5.517 18.868 14.061 18.868 4.717 0 8.455-2.403 11.304-5.429l6.941 8.188c-4.806 5.607-11.213 8.544-18.778 8.544zm-50.998-59.096h13.084V160h-13.084zm-33.553 27.946c7.21 0 10.68-3.204 10.68-9.256s-3.916-8.277-11.036-8.277h-6.052v17.533zm-19.49-27.946h19.936c12.727 0 23.05 4.628 23.05 18.69 0 13.617-10.412 19.669-22.694 19.669h-7.21V160h-13.083zm-24.387 28.747c0-11.57-4.984-18.512-12.905-18.512-7.92 0-12.905 6.942-12.905 18.512 0 11.659 4.984 19.046 12.905 19.046 7.921 0 12.905-7.387 12.905-19.046zm-39.249 0c0-18.957 10.68-29.815 26.344-29.815 15.664 0 26.344 10.947 26.344 29.815 0 18.957-10.68 30.349-26.344 30.349-15.664 0-26.344-11.392-26.344-30.349zm-32.93-17.711h-15.93v-11.036h45.033v11.036h-15.93V160h-13.173zm-63.813 15.664c6.853 0 10.591-2.937 10.591-8.633s-3.738-7.654-10.59-7.654H540.5v16.287zm-19.846-26.7h20.915c12.282 0 22.339 4.272 22.339 18.067 0 8.544-4.094 13.973-10.324 16.732L573.52 160h-14.685l-11.125-20.915h-7.21V160h-13.082zm-59.542 31.15v-31.15h13.172v32.485c0 11.392 3.56 15.308 10.057 15.308s10.235-3.916 10.235-15.308v-32.485h12.638v31.15c0 19.491-7.92 27.946-22.873 27.946-15.04 0-23.229-8.455-23.229-27.946zm-24.03-2.403c0-11.57-4.984-18.512-12.905-18.512-7.92 0-12.904 6.942-12.904 18.512 0 11.659 4.983 19.046 12.905 19.046 7.92 0 12.905-7.387 12.905-19.046zm-39.249 0c0-18.957 10.68-29.815 26.345-29.815 15.664 0 26.343 10.947 26.343 29.815 0 18.957-10.68 30.349-26.343 30.349-15.664 0-26.345-11.392-26.345-30.349zm-32.395 8.633l-17.534-37.38h14.062l5.162 13.35c1.602 4.361 3.115 8.366 4.717 12.816h.356c1.691-4.45 3.293-8.455 4.895-12.816l5.251-13.35h13.707l-17.533 37.38V160h-13.083zm867.883-79.284c-7.565 0-15.575-2.848-21.45-8.366l7.477-8.989c4.183 3.56 9.523 6.052 14.329 6.052 5.429 0 8.099-2.136 8.099-5.607 0-3.649-3.293-4.806-8.366-6.942l-7.565-3.204c-5.963-2.403-11.66-7.387-11.66-15.842 0-9.612 8.545-17.266 20.649-17.266 6.675 0 13.706 2.67 18.69 7.654l-6.675 8.277c-3.827-2.937-7.387-4.628-12.015-4.628-4.539 0-7.387 1.958-7.387 5.251 0 3.56 3.827 4.806 8.81 6.853l7.477 3.026c7.03 2.848 11.48 7.565 11.48 15.753 0 9.612-8.01 17.978-21.893 17.978zM1173.602.972h36.312v11.036h-23.23v11.659h19.759v10.947h-19.758v13.35h24.119V59h-37.202zm-56.96 0h13.884l6.942 27.056c1.78 6.319 2.937 12.193 4.717 18.601h.356c1.691-6.408 2.937-12.282 4.628-18.601l6.853-27.056h13.35L1149.928 59h-15.753zm-31.595 0h13.083v46.992h22.962V59h-36.045zm-24.386 28.747c0-11.57-4.984-18.512-12.905-18.512-7.921 0-12.905 6.942-12.905 18.512 0 11.659 4.984 19.046 12.905 19.046 7.92 0 12.905-7.387 12.905-19.046zm-39.25 0c0-18.957 10.68-29.815 26.345-29.815 15.664 0 26.344 10.947 26.344 29.815 0 18.957-10.68 30.349-26.344 30.349-15.664 0-26.344-11.392-26.344-30.349zm-29.013 30.349c-7.565 0-15.575-2.848-21.45-8.366l7.477-8.989c4.183 3.56 9.523 6.052 14.329 6.052 5.429 0 8.099-2.136 8.099-5.607 0-3.649-3.293-4.806-8.366-6.942l-7.565-3.204c-5.963-2.403-11.66-7.387-11.66-15.842 0-9.612 8.545-17.266 20.649-17.266 6.675 0 13.706 2.67 18.69 7.654l-6.675 8.277c-3.827-2.937-7.387-4.628-12.015-4.628-4.54 0-7.387 1.958-7.387 5.251 0 3.56 3.827 4.806 8.81 6.853l7.477 3.026c7.03 2.848 11.48 7.565 11.48 15.753 0 9.612-8.01 17.978-21.893 17.978zm-76.451-11.659c9.879 0 16.465-4.806 16.465-18.69s-6.586-18.156-16.465-18.156h-2.492v36.846zM900.372.972h16.376c17.71 0 29.103 8.811 29.103 28.747S934.459 59 917.46 59h-17.088zm-48.772 0h36.312v11.036h-23.229v11.659h19.758v10.947h-19.758v13.35h24.119V59H851.6zm-38.181 11.036h-15.931V.972h45.034v11.036H826.59V59h-13.172zm-64.792 18.334c0-19.224 12.727-30.438 27.412-30.438 7.476 0 13.528 3.56 17.444 7.565l-6.942 8.366c-2.937-2.67-6.052-4.628-10.235-4.628-7.921 0-14.24 7.031-14.24 18.69 0 11.926 5.518 18.868 14.062 18.868 4.717 0 8.455-2.403 11.303-5.429l6.942 8.188c-4.806 5.607-11.214 8.544-18.779 8.544-14.685 0-26.967-10.235-26.967-29.726zM702.614.972h36.312v11.036h-23.229v11.659h19.758v10.947h-19.758v13.35h24.119V59h-37.202zm-59.185 0h13.439l15.13 28.836 5.696 12.816h.356c-.534-6.141-1.602-14.329-1.602-21.182V.972h12.46V59h-13.439l-15.13-28.925-5.696-12.638h-.356c.534 6.408 1.602 14.151 1.602 21.004V59h-12.46zm-59.185 0h13.439l15.13 28.836 5.696 12.816h.356c-.534-6.141-1.602-14.329-1.602-21.182V.972h12.46V59h-13.439l-15.13-28.925-5.696-12.638h-.356c.534 6.408 1.602 14.151 1.602 21.004V59h-12.46zm-24.386 28.747c0-11.57-4.984-18.512-12.905-18.512-7.921 0-12.905 6.942-12.905 18.512 0 11.659 4.984 19.046 12.905 19.046 7.921 0 12.905-7.387 12.905-19.046zm-39.249 0c0-18.957 10.68-29.815 26.344-29.815 15.664 0 26.344 10.947 26.344 29.815 0 18.957-10.68 30.349-26.344 30.349-15.664 0-26.344-11.392-26.344-30.349zm-48.505.623c0-19.224 12.727-30.438 27.412-30.438 7.476 0 13.528 3.56 17.444 7.565l-6.942 8.366c-2.937-2.67-6.052-4.628-10.235-4.628-7.921 0-14.24 7.031-14.24 18.69 0 11.926 5.518 18.868 14.062 18.868 4.717 0 8.455-2.403 11.303-5.429l6.942 8.188c-4.806 5.607-11.214 8.544-18.779 8.544-14.685 0-26.967-10.235-26.967-29.726zM402.417.972H415.5v23.763h.356L433.122.972h14.418l-17.533 23.14L450.744 59h-14.329l-14.151-24.475-6.764 8.9V59h-13.083zm-34.71 26.7c6.853 0 10.591-2.937 10.591-8.633s-3.738-7.654-10.591-7.654h-6.764v16.287zM347.86.972h20.915c12.282 0 22.339 4.272 22.339 18.067 0 8.544-4.094 13.973-10.324 16.732L393.962 59h-14.685l-11.125-20.915h-7.209V59H347.86zm-48.772 0H335.4v11.036h-23.229v11.659h19.758v10.947h-19.758v13.35h24.119V59h-37.202zm-77.964 0h13.439l4.005 27.145c.712 6.052 1.602 12.193 2.314 18.334h.356a7022.857 7022.857 0 0 1 3.471-18.334l6.23-27.145h11.125l6.23 27.145c1.157 5.874 2.314 12.104 3.471 18.334h.356a3284.22 3284.22 0 0 1 2.403-18.334L278.529.972h12.549L280.754 59h-16.465l-5.696-26.344c-.979-4.45-1.691-9.167-2.314-13.439h-.356c-.712 4.272-1.424 8.989-2.403 13.439L248.091 59h-16.198zm-35.333 47.437c9.879 0 16.465-4.806 16.465-18.69s-6.586-18.156-16.465-18.156h-2.492v36.846zM170.216.972h16.376c17.711 0 29.103 8.811 29.103 28.747S204.303 59 187.304 59h-17.088zm-59.185 0h13.439l15.13 28.836 5.696 12.816h.356c-.534-6.141-1.602-14.329-1.602-21.182V.972h12.46V59h-13.439l-15.13-28.925-5.696-12.638h-.356c.534 6.408 1.602 14.151 1.602 21.004V59h-12.46zm-40.228 0h15.753L104.712 59H90.828l-3.56-13.795H69.557L65.997 59h-13.35zm1.424 33.998h12.371l-1.335-5.34c-1.602-5.785-3.204-12.638-4.717-18.69h-.356c-1.424 6.141-2.937 12.905-4.539 18.69zM.048.972h13.083v22.339h20.025V.972h13.172V59H33.156V34.792H13.131V59H.048z"/></svg>