<svg xmlns="http://www.w3.org/2000/svg" width="145" height="37"><path d="M72.772 10.73c-1.022-.511-2.117-.73-3.358-.73-1.24 0-2.482.51-3.868 1.533-1.387 1.021-2.41 2.408-3.212 4.306l.073-5.84-11.095 2.19v1.022l1.095.073c1.387.146 2.19 1.241 2.336 3.212.438 4.525.438 9.343 0 14.452-.146 1.97-.949 2.993-2.336 3.212l-1.095.146v1.386h15.474v-1.386l-1.97-.146c-1.387-.146-2.19-1.241-2.336-3.212a74.565 74.565 0 0 1-.146-13.43c.438-.73 1.387-1.168 2.847-1.314 1.46-.146 3.138.292 4.89 1.314zm70.217.657c-1.971-.876-4.453-1.387-7.445-1.387-3.066 0-5.475.803-7.3 2.335-1.824 1.533-2.773 3.431-2.773 5.694 0 1.97.584 3.503 1.679 4.598 1.095 1.095 2.846 2.044 5.11 2.847 2.043.73 3.503 1.46 4.233 2.116.73.73 1.167 1.533 1.167 2.628 0 1.022-.365 1.97-1.167 2.7-.73.804-1.752 1.169-3.066 1.169-3.212 0-5.62-2.336-7.3-7.007l-1.24.364.292 7.3c2.628 1.021 5.547 1.532 8.759 1.532 3.357 0 5.912-.73 7.81-2.262 1.898-1.46 2.846-3.577 2.846-6.205 0-1.751-.437-3.211-1.386-4.306-.95-1.095-2.482-2.044-4.672-2.92-2.408-.876-4.087-1.678-4.963-2.408-.876-.73-1.314-1.606-1.314-2.701s.292-1.97.949-2.7c.657-.73 1.46-1.022 2.482-1.022 2.92 0 5.036 2.116 6.35 6.277l1.24-.365zm-33.868 2.92c.803-1.753 1.825-2.628 3.212-2.628 2.19 0 3.284 2.773 3.284 8.393l-7.737.146c.073-2.19.438-4.16 1.241-5.912zm-5.401 18.32c2.408 2.409 5.474 3.65 9.124 3.65 2.262 0 4.233-.439 5.985-1.387 1.752-.876 3.138-1.971 4.087-3.285l-.73-.876c-1.605 1.24-3.43 1.825-5.547 1.825-2.92 0-5.182-.95-6.715-2.92-1.606-1.97-2.336-4.452-2.19-7.664h15.62c0-3.503-.876-6.35-2.7-8.613-1.825-2.19-4.38-3.284-7.664-3.284-4.088 0-7.227 1.314-9.49 3.868-2.262 2.555-3.357 5.693-3.357 9.416 0 3.795 1.168 6.861 3.577 9.27zM42.043 14.89c.876 2.117 1.24 4.89 1.24 8.248 0 7.737-1.605 11.533-4.744 11.533-1.606 0-2.847-1.095-3.722-3.285-.876-2.19-1.241-4.963-1.241-8.248 0-7.664 1.605-11.46 4.744-11.46 1.606-.072 2.847 1.022 3.723 3.212zm-16.277 8.321c0 3.796 1.095 6.934 3.211 9.416 2.117 2.481 5.256 3.65 9.197 3.65 3.942 0 7.153-1.241 9.489-3.796 2.336-2.482 3.43-5.62 3.43-9.416 0-3.795-1.094-6.934-3.211-9.416-2.117-2.481-5.255-3.65-9.197-3.65-3.941 0-7.153 1.242-9.489 3.796-2.335 2.482-3.43 5.62-3.43 9.416zM29.196.73H0v1.46l1.533.146c1.168.219 1.97.657 2.481 1.314.511.73.803 1.897.876 3.503.584 7.883.584 15.255 0 22.043-.146 1.606-.438 2.774-.876 3.504-.51.73-1.313 1.168-2.481 1.314L0 34.233v1.46h18.832v-1.46l-1.971-.146c-1.168-.146-1.97-.657-2.482-1.314-.51-.73-.803-1.898-.876-3.504a134.08 134.08 0 0 1-.365-10l3.942.074c2.117.073 3.576 1.678 4.306 4.89h1.46V12.335h-1.46c-.73 3.139-2.116 4.745-4.306 4.818l-3.942.073c0-6.57.146-11.24.365-14.087h5.767c4.087 0 6.86 2.627 8.466 7.883l1.752-.511zm52.991 33.576c-.146-2.336-.291-9.343-.291-20.803.656-.219 1.532-.365 2.627-.365 1.752 0 3.139.876 4.16 2.701 1.023 1.825 1.533 4.014 1.533 6.788 0 3.43-.583 6.204-1.751 8.54-1.168 2.263-2.628 3.43-4.453 3.43-.584-.145-1.168-.218-1.825-.291zm-.218-22.482c0-4.233.073-8.174.291-11.824L71.093 2.117v1.022l1.095.146c.803.073 1.314.365 1.606.802.292.511.51 1.241.656 2.336.146 2.117.292 6.934.22 14.525 0 7.518-.074 12.263-.22 14.088 4.015.875 7.154 1.24 9.49 1.24 4.379 0 7.81-1.24 10.29-3.795 2.483-2.482 3.796-5.985 3.796-10.292 0-3.43-.948-6.277-2.846-8.54-1.898-2.262-4.307-3.357-7.153-3.357-1.898 0-3.869.51-6.058 1.532z"/></svg>