<svg xmlns="http://www.w3.org/2000/svg" width="105" height="37"><path d="M0 8.33h4.618V27.8H0v7.712h24.706V27.8h-4.665V8.33h4.665V0H0zM62.741 27.8V17.566c0-6.522-4.76-8.902-10.663-8.902-4.189 0-7.378 1.142-10.14 4.332a5.23 5.23 0 0 1-.713.761V8.378H25.99v7.76h3.476V27.8H25.99v7.76h19.327V27.8h-3.665v-6.712c0-2.856 2.142-4.95 4.998-4.95 2.238 0 3.999 1.094 3.999 3.522v8.093h-3.57v7.76h18.898v-7.617c0-.048-.047-.096-.047-.143h-3.19z"/><path d="M96.73 25.515H86.353c0 2.857-2.095 4.19-4.428 4.19-4.474 0-4.855-3.761-4.855-7.331v-.096c0-3.57.333-7.33 4.855-7.33 3.523 0 4.142 3.046 4.237 5.95l10.425-1.143C95.492 9.14 85.02 8.473 82.401 8.473h-.57c-8.617 0-17.09 4.237-17.09 13.853 0 2.047.38 3.856 1.094 5.427h.048v.143c2.57 5.712 9.235 8.283 15.947 8.283 5.475 0 13.139-1.333 14.853-9.76z"/><path d="M95.92 31.275a4.38 4.38 0 1 1 8.76 0 4.38 4.38 0 0 1-8.76 0z"/></svg>