<svg xmlns="http://www.w3.org/2000/svg" width="542" height="60"><defs><linearGradient id="a" x1="4.84" x2="541.11" y1="4.77" y2="60.07" gradientUnits="userSpaceOnUse"><stop offset="0" stop-color="#e2e8e6"/><stop offset=".5" stop-color="#dbe6e9"/><stop offset="1" stop-color="#d8d8d8"/></linearGradient></defs><path fill="url(#a)" d="M487.003.972h14.329l9.345 25.81c1.157 3.382 2.225 7.12 3.382 10.68h.356c1.157-3.56 2.136-7.298 3.293-10.68l9.167-25.81h14.24V59h-11.926V37.729c0-5.696 1.068-14.151 1.691-19.758h-.356l-4.717 13.795-8.277 22.161h-7.209l-8.277-22.161-4.628-13.795h-.356c.623 5.607 1.691 14.062 1.691 19.758V59h-11.748zm-24.386 28.747c0-11.57-4.984-18.512-12.905-18.512-7.921 0-12.905 6.942-12.905 18.512 0 11.659 4.984 19.046 12.905 19.046 7.921 0 12.905-7.387 12.905-19.046zm-39.249 0c0-18.957 10.68-29.815 26.344-29.815 15.664 0 26.344 10.947 26.344 29.815 0 18.957-10.68 30.349-26.344 30.349-15.664 0-26.344-11.392-26.344-30.349zm-31.951-2.047c6.853 0 10.591-2.937 10.591-8.633s-3.738-7.654-10.591-7.654h-6.764v16.287zM371.57.972h20.915c12.282 0 22.339 4.272 22.339 18.067 0 8.544-4.094 13.973-10.324 16.732L417.672 59h-14.685l-11.125-20.915h-7.209V59H371.57zm-46.636 0h36.579v11.036h-23.496v13.439h20.114v11.036h-20.114V59h-13.083zm-76.985 0h13.439l15.13 28.836 5.696 12.816h.356c-.534-6.141-1.602-14.329-1.602-21.182V.972h12.46V59h-13.439l-15.13-28.925-5.696-12.638h-.356c.534 6.408 1.602 14.151 1.602 21.004V59h-12.46zm-77.964 0h13.439l4.005 27.145c.712 6.052 1.602 12.193 2.314 18.334h.356a7010.372 7010.372 0 0 1 3.471-18.334L199.8.972h11.125l6.23 27.145c1.157 5.874 2.314 12.104 3.471 18.334h.356a3284.22 3284.22 0 0 1 2.403-18.334L227.39.972h12.549L229.615 59H213.15l-5.696-26.344c-.979-4.45-1.691-9.167-2.314-13.439h-.356c-.712 4.272-1.424 8.989-2.403 13.439L196.952 59h-16.198zm-18.779 28.747c0-11.57-4.984-18.512-12.905-18.512-7.921 0-12.905 6.942-12.905 18.512 0 11.659 4.984 19.046 12.905 19.046 7.921 0 12.905-7.387 12.905-19.046zm-39.249 0c0-18.957 10.68-29.815 26.344-29.815 15.664 0 26.344 10.947 26.344 29.815 0 18.957-10.68 30.349-26.344 30.349-15.664 0-26.344-11.392-26.344-30.349zM55.531.972H68.97L84.1 29.808l5.696 12.816h.356c-.534-6.141-1.602-14.329-1.602-21.182V.972h12.46V59H87.571l-15.13-28.925-5.696-12.638h-.356c.534 6.408 1.602 14.151 1.602 21.004V59h-12.46zM.885.972h13.083v23.763h.356L31.59.972h14.418l-17.533 23.14L49.212 59H34.883L20.732 34.525l-6.764 8.9V59H.885z"/></svg>