<svg xmlns="http://www.w3.org/2000/svg" width="37" height="37"><path fill="#dae1e3" d="M31.308 30.834h-5.491v-8.836c0-2.219-.794-3.734-2.781-3.734-1.518 0-2.42 1.02-2.817 2.008-.144.353-.182.844-.182 1.339v9.223h-5.492s.073-14.966 0-16.515h5.492v2.34c.73-1.123 2.032-2.728 4.949-2.728 3.613 0 6.322 2.36 6.322 7.433zm-22.58-18.77c-1.842 0-3.036-1.268-3.036-2.854 0-1.62 1.229-2.853 3.108-2.853s3.034 1.233 3.07 2.853c0 1.586-1.191 2.855-3.106 2.855zm2.78 18.77h-5.49V14.32h5.49zM0 .096v37h37v-37z"/></svg>