<svg xmlns="http://www.w3.org/2000/svg" width="198" height="59"><path fill="#fff" d="M29.398 58.895C13.11 58.895 0 45.686 0 29.497 0 13.21 13.21 0 29.398 0c4.27 0 8.442.894 12.316 2.682l-.696 1.49a27.227 27.227 0 0 0-11.62-2.583C14.004 1.59 1.59 14.103 1.59 29.4c0 15.393 12.514 27.808 27.81 27.808 11.52 0 21.85-7.15 25.921-17.877l1.49.596c-4.27 11.322-15.196 18.87-27.412 18.97z"/><path fill="#fff" d="M47.772 51.943h-1.986V7.151h3.674v43.203zM13.309 52.44l-2.583-.497-1.191-1.49V8.045l1.29-.894 2.484-1.093z"/><path fill="#fff" d="M11.422 31.682v-3.774h36.151v3.774z"/><g><path fill="#fff" d="M91.085 47.424c-1.101 0-2.202-.44-2.863-1.211-1.101-1.101-1.101-2.422-1.101-4.294 0-1.872 0-3.193 1.101-4.294.66-.771 1.762-1.212 2.863-1.212 1.982-.11 3.743 1.432 3.964 3.414h-2.092c-.22-.991-1.101-1.652-2.203-1.542-.33.11-.77.22-.99.55-.44.441-.551.992-.551 3.084s.11 2.642.55 3.083c.33.33.881.55 1.322.55.88 0 1.651-.66 1.872-1.541h2.092c-.22 1.982-1.982 3.523-3.964 3.413zM103.527 42.029c0 2.092-.11 2.642-.55 3.083-.331.33-.771.55-1.322.55-.44 0-.991-.22-1.321-.55-.44-.55-.55-.991-.55-3.083s.11-2.643.55-3.083c.33-.33.77-.55 1.321-.55.44 0 .99.22 1.321.55.33.44.55.99.55 3.083zm2.092-.11c0-1.872 0-3.193-1.101-4.294a4.26 4.26 0 0 0-5.836 0c-1.1 1.1-1.1 2.422-1.1 4.294 0 1.872 0 3.193 1.1 4.294a4.26 4.26 0 0 0 5.836 0c1.1-1.101 1.1-2.422 1.1-4.294zM115.198 47.314l-4.294-6.606v6.606h-2.092v-10.79h1.872l4.294 6.606v-6.606h2.092v10.79zM127.09 47.314l-4.295-6.606v6.606h-2.092v-10.79h1.872l4.294 6.606v-6.606h2.092v10.79zM132.595 47.314v-10.79h7.157v1.871h-5.065v2.533h4.294V42.8h-4.294v2.642h5.065v1.872zM146.468 47.424c-1.1 0-2.202-.44-2.863-1.211-1.1-1.101-1.1-2.422-1.1-4.294 0-1.872 0-3.193 1.1-4.294.771-.771 1.872-1.212 2.863-1.212 1.982-.11 3.744 1.432 3.964 3.414h-2.092c-.22-.991-1.101-1.652-2.202-1.542-.33.11-.77.22-.991.55-.44.441-.55.992-.55 3.084s.11 2.642.55 3.083c.33.33.88.55 1.321.55.881 0 1.652-.66 1.872-1.541h2.092c-.22 1.982-1.982 3.523-3.964 3.413zM157.148 38.395v8.919h-2.092v-8.919h-2.862v-1.871h7.817v1.871zM162.764 47.314v-10.79h7.157v1.871h-5.065v2.533h4.294V42.8h-4.294v2.642h5.065v1.872zM178.73 41.919c0 1.651 0 2.422-.441 2.863-.33.44-.991.66-1.542.66h-1.651v-7.047h1.651c.55 0 1.101.22 1.542.661.44.44.44 1.211.44 2.863zm2.201-.11c0-1.542.11-3.083-1.1-4.294-.771-.661-1.762-.991-2.863-.991h-3.854v10.79h3.854c1.1.11 2.092-.33 2.862-.991 1.211-1.211 1.101-2.973 1.101-4.514zM78.312 26.944v-6.496h-5.175v6.496h-2.972V11.53h2.972v6.277h5.175V11.53h2.973v15.415zM93.507 21.66h-3.854l1.982-5.616zm4.735 5.284L92.626 11.53h-2.312L84.7 26.944h3.193l.99-2.752h5.506l.88 2.752zM110.904 26.944l-6.166-9.469v9.47h-2.973V11.528h2.643l6.055 9.47v-9.47h2.973v15.415zM126.98 19.017c0 2.422-.11 3.523-.661 4.184-.55.66-1.322.99-2.202.99h-2.313V14.173h2.313c.88 0 1.651.33 2.202.991.55.66.66 1.431.66 3.854zm2.972.11c0-2.312.22-4.404-1.541-6.166-1.101-.991-2.533-1.542-4.074-1.432h-5.616v15.305h5.616c1.541.11 2.973-.44 4.074-1.431 1.761-1.652 1.541-3.964 1.541-6.276zM147.46 26.944h-2.533l-2.863-9.359-2.753 9.36h-2.532l-4.074-15.416h3.193l2.422 9.69 2.863-9.69h2.202l2.863 9.69 2.422-9.69h2.973zM155.056 26.944V11.53h10.13v2.643h-7.157v3.634h6.056v2.642h-6.056v3.744h7.157v2.752zM177.628 16.154a2.09 2.09 0 0 1-2.092 2.092h-2.863v-4.074h2.863c1.101 0 2.092.77 2.092 1.982zm3.634 10.79l-3.414-6.606c1.762-.66 2.863-2.202 2.863-4.074v-.44c-.11-2.533-2.422-4.515-4.955-4.295h-6.055v15.415h2.972v-6.166h2.203l2.972 6.166zM194.364 26.944l-3.964-7.046-1.981 2.422v4.624h-2.973V11.53h2.973v6.717l5.395-6.717h3.633l-5.175 6.056 5.506 9.36z"/></g></svg>