<svg xmlns="http://www.w3.org/2000/svg" width="90" height="90"><defs><linearGradient id="a" x1="66" x2="66" y1="0" y2="51" gradientUnits="userSpaceOnUse"><stop offset="0" stop-color="#e2e8e6"/><stop offset=".5" stop-color="#dbe6e9"/><stop offset="1" stop-color="#d8d8d8"/></linearGradient><linearGradient id="b" x1="24" x2="24" y1="39" y2="90" gradientUnits="userSpaceOnUse"><stop offset="0" stop-color="#e2e8e6"/><stop offset=".5" stop-color="#dbe6e9"/><stop offset="1" stop-color="#d8d8d8"/></linearGradient><linearGradient id="c" x1="65.47" x2="65.47" y1="55.5" y2="85.5" gradientUnits="userSpaceOnUse"><stop offset="0" stop-color="#e2e8e6"/><stop offset=".5" stop-color="#dbe6e9"/><stop offset="1" stop-color="#d8d8d8"/></linearGradient><linearGradient id="d" x1="55.5" x2="55.5" y1="63" y2="66" gradientUnits="userSpaceOnUse"><stop offset="0" stop-color="#e2e8e6"/><stop offset=".5" stop-color="#dbe6e9"/><stop offset="1" stop-color="#d8d8d8"/></linearGradient><linearGradient id="e" x1="69.75" x2="69.75" y1="63" y2="66" gradientUnits="userSpaceOnUse"><stop offset="0" stop-color="#e2e8e6"/><stop offset=".5" stop-color="#dbe6e9"/><stop offset="1" stop-color="#d8d8d8"/></linearGradient><linearGradient id="f" x1="65.25" x2="65.25" y1="69" y2="72" gradientUnits="userSpaceOnUse"><stop offset="0" stop-color="#e2e8e6"/><stop offset=".5" stop-color="#dbe6e9"/><stop offset="1" stop-color="#d8d8d8"/></linearGradient><linearGradient id="g" x1="63.75" x2="63.75" y1="75" y2="78" gradientUnits="userSpaceOnUse"><stop offset="0" stop-color="#e2e8e6"/><stop offset=".5" stop-color="#dbe6e9"/><stop offset="1" stop-color="#d8d8d8"/></linearGradient><linearGradient id="h" x1="22.28" x2="22.28" y1="4.5" y2="34.5" gradientUnits="userSpaceOnUse"><stop offset="0" stop-color="#e2e8e6"/><stop offset=".5" stop-color="#dbe6e9"/><stop offset="1" stop-color="#d8d8d8"/></linearGradient><linearGradient id="i" x1="12" x2="12" y1="12" y2="15" gradientUnits="userSpaceOnUse"><stop offset="0" stop-color="#e2e8e6"/><stop offset=".5" stop-color="#dbe6e9"/><stop offset="1" stop-color="#d8d8d8"/></linearGradient><linearGradient id="j" x1="27.75" x2="27.75" y1="12" y2="15" gradientUnits="userSpaceOnUse"><stop offset="0" stop-color="#e2e8e6"/><stop offset=".5" stop-color="#dbe6e9"/><stop offset="1" stop-color="#d8d8d8"/></linearGradient><linearGradient id="k" x1="23.25" x2="23.25" y1="18" y2="21" gradientUnits="userSpaceOnUse"><stop offset="0" stop-color="#e2e8e6"/><stop offset=".5" stop-color="#dbe6e9"/><stop offset="1" stop-color="#d8d8d8"/></linearGradient><linearGradient id="l" x1="21.75" x2="21.75" y1="24" y2="27" gradientUnits="userSpaceOnUse"><stop offset="0" stop-color="#e2e8e6"/><stop offset=".5" stop-color="#dbe6e9"/><stop offset="1" stop-color="#d8d8d8"/></linearGradient><linearGradient id="m" x1="58.5" x2="58.5" y1="25.5" y2="37.5" gradientUnits="userSpaceOnUse"><stop offset="0" stop-color="#e2e8e6"/><stop offset=".5" stop-color="#dbe6e9"/><stop offset="1" stop-color="#d8d8d8"/></linearGradient><linearGradient id="n" x1="70.5" x2="70.5" y1="25.5" y2="28.5" gradientUnits="userSpaceOnUse"><stop offset="0" stop-color="#e2e8e6"/><stop offset=".5" stop-color="#dbe6e9"/><stop offset="1" stop-color="#d8d8d8"/></linearGradient><linearGradient id="o" x1="66" x2="66" y1="42" y2="45" gradientUnits="userSpaceOnUse"><stop offset="0" stop-color="#e2e8e6"/><stop offset=".5" stop-color="#dbe6e9"/><stop offset="1" stop-color="#d8d8d8"/></linearGradient><linearGradient id="p" x1="70.5" x2="70.5" y1="30" y2="33" gradientUnits="userSpaceOnUse"><stop offset="0" stop-color="#e2e8e6"/><stop offset=".5" stop-color="#dbe6e9"/><stop offset="1" stop-color="#d8d8d8"/></linearGradient><linearGradient id="q" x1="55.5" x2="55.5" y1="30" y2="33" gradientUnits="userSpaceOnUse"><stop offset="0" stop-color="#e2e8e6"/><stop offset=".5" stop-color="#dbe6e9"/><stop offset="1" stop-color="#d8d8d8"/></linearGradient><linearGradient id="r" x1="31.5" x2="31.5" y1="64.5" y2="76.5" gradientUnits="userSpaceOnUse"><stop offset="0" stop-color="#e2e8e6"/><stop offset=".5" stop-color="#dbe6e9"/><stop offset="1" stop-color="#d8d8d8"/></linearGradient><linearGradient id="s" x1="19.5" x2="19.5" y1="64.5" y2="67.5" gradientUnits="userSpaceOnUse"><stop offset="0" stop-color="#e2e8e6"/><stop offset=".5" stop-color="#dbe6e9"/><stop offset="1" stop-color="#d8d8d8"/></linearGradient><linearGradient id="t" x1="24" x2="24" y1="81" y2="84" gradientUnits="userSpaceOnUse"><stop offset="0" stop-color="#e2e8e6"/><stop offset=".5" stop-color="#dbe6e9"/><stop offset="1" stop-color="#d8d8d8"/></linearGradient><linearGradient id="u" x1="19.5" x2="19.5" y1="69" y2="72" gradientUnits="userSpaceOnUse"><stop offset="0" stop-color="#e2e8e6"/><stop offset=".5" stop-color="#dbe6e9"/><stop offset="1" stop-color="#d8d8d8"/></linearGradient><linearGradient id="v" x1="34.5" x2="34.5" y1="69" y2="72" gradientUnits="userSpaceOnUse"><stop offset="0" stop-color="#e2e8e6"/><stop offset=".5" stop-color="#dbe6e9"/><stop offset="1" stop-color="#d8d8d8"/></linearGradient></defs><path fill="url(#a)" d="M84 30a1.5 1.5 0 0 0-1.5 1.5V33c-.01 8.28-6.72 14.99-15 15h-3c-8.28-.01-14.99-6.72-15-15V19.5C49.5 10.387 56.887 3 66 3c9.112 0 16.5 7.387 16.5 16.5v3A1.5 1.5 0 0 0 84 24a3 3 0 0 1 0 6zm-39-3a3 3 0 0 1 1.5-2.594v5.188A3 3 0 0 1 45 27zm40.5-7.5C85.5 8.73 76.77 0 66 0S46.5 8.73 46.5 19.5v1.69a6 6 0 0 0 0 11.62V33c.011 9.936 8.063 17.989 18 18h3c9.936-.011 17.989-8.064 18-18v-.19a6 6 0 0 0 0-11.62z"/><path fill="url(#b)" d="M22.5 87c-8.28-.01-14.99-6.72-15-15v-1.5A1.5 1.5 0 0 0 6 69a3 3 0 0 1 0-6 1.5 1.5 0 0 0 1.5-1.5h6a7.461 7.461 0 0 0 4.5-1.504V60a1.5 1.5 0 0 0 1.5 1.5H21a10.592 10.592 0 0 0 9.003-5.087A10.521 10.521 0 0 0 39 61.5h1.5V72c-.01 8.28-6.72 14.99-15 15zm-4.335-45h11.67c5.887.007 10.658 4.777 10.665 10.665V58.5H39a7.506 7.506 0 0 1-7.5-7.5 1.5 1.5 0 1 0-3 0 7.514 7.514 0 0 1-7.5 7.5V54a1.5 1.5 0 1 0-3 0 4.505 4.505 0 0 1-4.5 4.5h-6v-5.835C7.507 46.777 12.278 42.007 18.165 42zM45 66a3 3 0 0 1-1.5 2.594v-5.188A3 3 0 0 1 45 66zm3 0a6.01 6.01 0 0 0-4.5-5.81v-7.525C43.49 45.12 37.378 39.008 29.835 39h-11.67c-7.543.008-13.656 6.12-13.665 13.665v7.524a6 6 0 0 0 0 11.62V72c.011 9.937 8.064 17.99 18 18h3c9.936-.01 17.989-8.063 18-18v-.19A6.01 6.01 0 0 0 48 66z"/><path fill="url(#c)" d="M85.5 55.5h-39v3H84v24H50.12l-4.06-4.061-2.122 2.121 4.5 4.5a1.5 1.5 0 0 0 1.06.44h36A1.5 1.5 0 0 0 87 84V57a1.5 1.5 0 0 0-1.5-1.5z"/><path fill="url(#d)" d="M54 63h3v3h-3z"/><path fill="url(#e)" d="M60 63h19.5v3H60z"/><path fill="url(#f)" d="M51 69h28.5v3H51z"/><path fill="url(#g)" d="M51 75h25.5v3H51z"/><path fill="url(#h)" d="M1.5 34.5H42v-3H3v-24h35.38l4.06 4.06 2.122-2.12-4.5-4.5A1.5 1.5 0 0 0 39 4.5H1.5A1.5 1.5 0 0 0 0 6v27a1.5 1.5 0 0 0 1.5 1.5z"/><path fill="url(#i)" d="M10.5 12h3v3h-3z"/><path fill="url(#j)" d="M16.5 12H39v3H16.5z"/><path fill="url(#k)" d="M7.5 18H39v3H7.5z"/><path fill="url(#l)" d="M7.5 24H36v3H7.5z"/><path fill="url(#m)" d="M64.5 37.5a1.5 1.5 0 1 0 0-3H63v-6a3.004 3.004 0 0 0-3-3h-7.5a1.5 1.5 0 1 0 0 3H60v6a3.004 3.004 0 0 0 3 3z"/><path fill="url(#n)" d="M73.5 25.5h-6a1.5 1.5 0 1 0 0 3h6a1.5 1.5 0 1 0 0-3z"/><path fill="url(#o)" d="M67.5 42h-3a1.5 1.5 0 1 0 0 3h3a1.5 1.5 0 1 0 0-3z"/><path fill="url(#p)" d="M69 31.5a1.5 1.5 0 1 1 3 0 1.5 1.5 0 0 1-3 0z"/><path fill="url(#q)" d="M54 31.5a1.5 1.5 0 1 1 3 0 1.5 1.5 0 0 1-3 0z"/><path fill="url(#r)" d="M37.5 64.5H30a3.004 3.004 0 0 0-3 3v6h-1.5a1.5 1.5 0 1 0 0 3H27a3.004 3.004 0 0 0 3-3v-6h7.5a1.5 1.5 0 1 0 0-3z"/><path fill="url(#s)" d="M24 66a1.5 1.5 0 0 0-1.5-1.5h-6a1.5 1.5 0 0 0 0 3h6A1.5 1.5 0 0 0 24 66z"/><path fill="url(#t)" d="M25.5 81h-3a1.5 1.5 0 1 0 0 3h3a1.5 1.5 0 0 0 0-3z"/><path fill="url(#u)" d="M18 70.5a1.5 1.5 0 1 1 3 0 1.5 1.5 0 0 1-3 0z"/><path fill="url(#v)" d="M33 70.5a1.5 1.5 0 1 1 3 0 1.5 1.5 0 0 1-3 0z"/></svg>