<svg xmlns="http://www.w3.org/2000/svg" width="90" height="90"><defs><linearGradient id="a" x1="21.78" x2="21.78" y1="11.61" y2="31.94" gradientUnits="userSpaceOnUse"><stop offset="0" stop-color="#e2e8e6"/><stop offset=".5" stop-color="#dbe6e9"/><stop offset="1" stop-color="#d8d8d8"/></linearGradient><linearGradient id="b" x1="56.61" x2="56.61" y1="79.84" y2="82.74" gradientUnits="userSpaceOnUse"><stop offset="0" stop-color="#e2e8e6"/><stop offset=".5" stop-color="#dbe6e9"/><stop offset="1" stop-color="#d8d8d8"/></linearGradient><linearGradient id="c" x1="50.81" x2="50.81" y1="79.84" y2="82.74" gradientUnits="userSpaceOnUse"><stop offset="0" stop-color="#e2e8e6"/><stop offset=".5" stop-color="#dbe6e9"/><stop offset="1" stop-color="#d8d8d8"/></linearGradient><linearGradient id="d" x1="45" x2="45" y1="0" y2="90" gradientUnits="userSpaceOnUse"><stop offset="0" stop-color="#e2e8e6"/><stop offset=".5" stop-color="#dbe6e9"/><stop offset="1" stop-color="#d8d8d8"/></linearGradient><linearGradient id="e" x1="68.23" x2="68.23" y1="0" y2="23.23" gradientUnits="userSpaceOnUse"><stop offset="0" stop-color="#e2e8e6"/><stop offset=".5" stop-color="#dbe6e9"/><stop offset="1" stop-color="#d8d8d8"/></linearGradient><linearGradient id="f" x1="18.85" x2="18.85" y1="11.66" y2="37.74" gradientUnits="userSpaceOnUse"><stop offset="0" stop-color="#e2e8e6"/><stop offset=".5" stop-color="#dbe6e9"/><stop offset="1" stop-color="#d8d8d8"/></linearGradient><linearGradient id="g" x1="24.7" x2="24.7" y1="5.81" y2="31.89" gradientUnits="userSpaceOnUse"><stop offset="0" stop-color="#e2e8e6"/><stop offset=".5" stop-color="#dbe6e9"/><stop offset="1" stop-color="#d8d8d8"/></linearGradient></defs><path fill="url(#a)" d="M23.226 17.42c.801 0 1.451.651 1.451 1.451h2.904a4.36 4.36 0 0 0-4.355-4.355v-2.903h-2.903v2.903h-4.355v4.355a4.36 4.36 0 0 0 4.355 4.355h2.903c.801 0 1.451.652 1.451 1.451v1.452h-4.354a1.453 1.453 0 0 1-1.452-1.452h-2.903a4.36 4.36 0 0 0 4.355 4.355v2.903h2.903v-2.903h4.355v-4.355a4.36 4.36 0 0 0-4.355-4.354h-2.903a1.453 1.453 0 0 1-1.452-1.452v-1.452z"/><path fill="url(#b)" d="M55.161 79.839h2.904v2.903H55.16z"/><path fill="url(#c)" d="M49.355 79.839h2.903v2.903h-2.903z"/><path fill="url(#d)" d="M87.097 49.355H81.29V20.924l5.807-5.807zm-14.516-3.36v-24.22h5.806v27.58h-3.453zm-8.71 3.36V28.26l5.806-4.838v22.573l-2.353 3.359zm-26.13-12.827a21.763 21.763 0 0 0 4.537-7.496h1.27v20.323h-5.806zM2.904 21.774c0-10.405 8.466-18.87 18.871-18.87s18.871 8.465 18.871 18.87c0 10.405-8.466 18.871-18.87 18.871-10.406 0-18.872-8.466-18.872-18.87zm49.355 27.58h-5.806V29.033h5.806zm2.903-20.322h5.807v20.323H55.16zM33.387 58.065h7.155c-.705 4.918-4.947 8.71-10.058 8.71h-7.155c.707-4.919 4.947-8.71 10.058-8.71zM13.065 75.484c-5.112 0-9.352-3.792-10.059-8.71h7.155c5.111 0 9.352 3.792 10.059 8.71zm20.322 2.903h7.155c-.705 4.918-4.947 8.71-10.058 8.71h-7.155c.707-4.918 4.947-8.71 10.058-8.71zM13.065 58.065c-5.112 0-9.352-3.792-10.059-8.71h7.155c5.111 0 9.352 3.791 10.059 8.71zM79.238 18.87h-8.634l-8.71 7.258H43.11c.286-1.408.438-2.864.438-4.355C43.548 9.768 33.78 0 21.774 0S0 9.768 0 21.774c0 11.516 8.993 20.948 20.323 21.7v7.848c-2.397-2.966-6.06-4.87-10.162-4.87H0v1.451c0 7.205 5.86 13.065 13.065 13.065h7.258v7.773c-2.397-2.966-6.06-4.87-10.162-4.87H0v1.452c0 7.204 5.86 13.064 13.065 13.064h7.258V90h10.16c7.205 0 13.065-5.86 13.065-13.065v-1.451h-10.16c-4.103 0-7.766 1.904-10.162 4.87V69.677h7.258c7.204 0 13.064-5.86 13.064-13.064V55.16h-10.16c-4.103 0-7.766 1.905-10.162 4.87V43.474a21.627 21.627 0 0 0 11.613-4.323v13.107h30.453L58.18 62.42h7.144v8.71H46.452v2.903h18.87a2.906 2.906 0 0 0 2.904-2.903V59.516h-4.47l7.373-10.533 7.373 10.533h-4.47v15.968a4.36 4.36 0 0 1-4.355 4.355h-8.71v2.903h8.71c4.003 0 7.259-3.256 7.259-7.258V62.419h7.143l-7.113-10.16H90V11.612h-3.504z"/><path fill="url(#e)" d="M81.29 0v2.903h3.754L74.883 13.065H67.7l-8.71 7.258H46.453v2.903h13.59l8.71-7.258h7.333L87.097 4.956V8.71H90V0z"/><path fill="url(#f)" d="M31.89 34.126l-1.84-2.246a13.083 13.083 0 0 1-8.276 2.959c-7.204 0-13.064-5.862-13.064-13.065 0-3.01 1.05-5.95 2.958-8.275l-2.246-1.843a15.999 15.999 0 0 0-3.616 10.118c0 8.804 7.164 15.968 15.968 15.968 3.68 0 7.273-1.285 10.116-3.616z"/><path fill="url(#g)" d="M21.774 8.71c7.205 0 13.065 5.861 13.065 13.064 0 3.01-1.051 5.95-2.959 8.276l2.246 1.842a15.999 15.999 0 0 0 3.616-10.118c0-8.804-7.164-15.968-15.968-15.968-3.68 0-7.272 1.285-10.116 3.616l1.84 2.246a13.083 13.083 0 0 1 8.276-2.958z"/></svg>