<svg xmlns="http://www.w3.org/2000/svg" width="90" height="90"><defs><linearGradient id="a" x1="45" x2="45" y1="0" y2="90" gradientUnits="userSpaceOnUse"><stop offset="0" stop-color="#e2e8e6"/><stop offset=".5" stop-color="#dbe6e9"/><stop offset="1" stop-color="#d8d8d8"/></linearGradient><linearGradient id="b" x1="25.5" x2="25.5" y1="19.5" y2="22.5" gradientUnits="userSpaceOnUse"><stop offset="0" stop-color="#e2e8e6"/><stop offset=".5" stop-color="#dbe6e9"/><stop offset="1" stop-color="#d8d8d8"/></linearGradient><linearGradient id="c" x1="31.5" x2="31.5" y1="28.5" y2="36" gradientUnits="userSpaceOnUse"><stop offset="0" stop-color="#e2e8e6"/><stop offset=".5" stop-color="#dbe6e9"/><stop offset="1" stop-color="#d8d8d8"/></linearGradient><linearGradient id="d" x1="25.5" x2="25.5" y1="24" y2="27" gradientUnits="userSpaceOnUse"><stop offset="0" stop-color="#e2e8e6"/><stop offset=".5" stop-color="#dbe6e9"/><stop offset="1" stop-color="#d8d8d8"/></linearGradient><linearGradient id="e" x1="37.5" x2="37.5" y1="19.5" y2="22.5" gradientUnits="userSpaceOnUse"><stop offset="0" stop-color="#e2e8e6"/><stop offset=".5" stop-color="#dbe6e9"/><stop offset="1" stop-color="#d8d8d8"/></linearGradient><linearGradient id="f" x1="37.5" x2="37.5" y1="24" y2="27" gradientUnits="userSpaceOnUse"><stop offset="0" stop-color="#e2e8e6"/><stop offset=".5" stop-color="#dbe6e9"/><stop offset="1" stop-color="#d8d8d8"/></linearGradient></defs><g clip-path="url(#clip-94c24e2f-c587-4ec0-91ee-fe2fb48afb85)"><path fill="url(#a)" d="M87 61.5h-4.5v-7.69a5.97 5.97 0 0 0 1.804-.805l.692.462A4.491 4.491 0 0 1 87 57.21zm-13.5 6H69v-7.69a5.97 5.97 0 0 0 1.804-.805l.692.462A4.491 4.491 0 0 1 73.5 63.21zM60 80.355a10.5 10.5 0 0 1-2.82-.942l-1.484-.742.907-4.538a3.956 3.956 0 0 0-6.178-3.994l-8.784 6.274-19.923-3.515A4.494 4.494 0 0 1 18 68.466V60h-3v8.466a7.49 7.49 0 0 0 6.197 7.386L40.5 79.258V87H18c-8.28-.01-14.99-6.72-15-15V51a4.515 4.515 0 0 1 2.233-3.887l14.166-8.264a15.086 15.086 0 0 0 6.101 4.895V45c0 .161.026.321.077.474l1.399 4.196-1.469 14.68a1.5 1.5 0 0 0 .432 1.21l4.5 4.5a1.5 1.5 0 0 0 2.122 0l4.5-4.5a1.5 1.5 0 0 0 .43-1.224L35.917 49.99l.006-.015 1.5-4.5A1.5 1.5 0 0 0 37.5 45v-1.256a15.086 15.086 0 0 0 6.101-4.895l4.427 2.583A6.035 6.035 0 0 0 48 42v6c0 .957.23 1.9.67 2.75l-.33.22A7.485 7.485 0 0 0 45 57.212V63a1.5 1.5 0 0 0 1.5 1.5h12V69a1.5 1.5 0 0 0 1.5 1.5zm4.096 2.983l3.745-.624a.43.43 0 0 1 .263.807l-4.741 2.37A10.552 10.552 0 0 1 58.667 87H43.5v-8.228l8.669-6.192a.956.956 0 0 1 1.492.965l-1.132 5.66a1.5 1.5 0 0 0 .8 1.637l2.51 1.254a13.42 13.42 0 0 0 8.257 1.242zM3 87v-5.062A18.146 18.146 0 0 0 8.062 87zM28.5 3h6a3.003 3.003 0 0 1 3 3v3.222a5.096 5.096 0 0 0-2.121 1.278L33 12.879a2.121 2.121 0 0 1-3 0L27.621 10.5c-2-2-5.242-2-7.242 0l-.853.853A9.01 9.01 0 0 1 28.5 3zm15 6v2.379l-.879-.879A5.096 5.096 0 0 0 40.5 9.222V6a3.003 3.003 0 0 1 3 3zm-12 33c-6.624-.007-11.993-5.376-12-12V15.621l3-3a2.121 2.121 0 0 1 3 0L27.879 15c2 2 5.242 2 7.242 0l2.379-2.379a2.121 2.121 0 0 1 3 0l3 3V30c-.007 6.624-5.376 11.992-12 12zm3 2.757L33.419 48H29.58l-1.08-3.243v-.059c1.98.403 4.02.403 6 0zm-.07 19.191l-2.93 2.93-2.937-2.936L29.857 51h3.153zM54 39h3v3h-6a3.003 3.003 0 0 1 3-3zm-3.996 14.467l.692-.462a5.97 5.97 0 0 0 1.804.805v7.69H48v-4.289a4.491 4.491 0 0 1 2.004-3.744zM54 51a3.003 3.003 0 0 1-3-3v-3h6v3a3.003 3.003 0 0 1-3 3zm6 7.714a7.472 7.472 0 0 0-1.3 2.786h-3.2v-7.69a5.97 5.97 0 0 0 1.804-.805l.692.462A4.491 4.491 0 0 1 60 57.21zM67.5 45h3v3h-6a3.003 3.003 0 0 1 3-3zm0 12a3.003 3.003 0 0 1-3-3v-3h6v3a3.003 3.003 0 0 1-3 3zm-6 6.211a4.491 4.491 0 0 1 2.004-3.744l.692-.462A5.97 5.97 0 0 0 66 59.81v7.69h-4.5zm15.504-9.744l.692-.462a5.97 5.97 0 0 0 1.804.805v7.69h-3.2a7.472 7.472 0 0 0-1.3-2.786v-1.503a4.491 4.491 0 0 1 2.004-3.744zM81 39h3v3h-6a3.003 3.003 0 0 1 3-3zm0 12a3.003 3.003 0 0 1-3-3v-3h6v3a3.003 3.003 0 0 1-3 3zm5.66-.03l-.33-.22A5.96 5.96 0 0 0 87 48v-9a3.003 3.003 0 0 0-3-3h-3a6.007 6.007 0 0 0-6 6v6c0 .957.23 1.9.67 2.75l-.33.22a7.504 7.504 0 0 0-1.84 1.744V45a3.003 3.003 0 0 0-3-3h-3a6.007 6.007 0 0 0-6 6v4.714a7.503 7.503 0 0 0-1.84-1.743l-.33-.22A5.96 5.96 0 0 0 60 48v-9a3.003 3.003 0 0 0-3-3h-3c-1.962 0-3.8.961-4.92 2.572l-3.956-2.307A14.906 14.906 0 0 0 46.5 30V9a6.007 6.007 0 0 0-6-6h-.807A6.002 6.002 0 0 0 34.5 0h-6c-6.624.007-11.993 5.376-12 12v18a14.906 14.906 0 0 0 1.376 6.265L3.721 44.522A7.525 7.525 0 0 0 0 51v37.5A1.5 1.5 0 0 0 1.5 90h57.167a13.57 13.57 0 0 0 6.038-1.425l4.74-2.37a3.43 3.43 0 0 0-2.097-6.45l-3.745.624a10.37 10.37 0 0 1-.603.08V70.5h12a1.5 1.5 0 0 0 1.5-1.5v-4.5h12A1.5 1.5 0 0 0 90 63v-5.789a7.485 7.485 0 0 0-3.34-6.24z"/><path fill="url(#b)" d="M22.5 22.5v-3h6v3z"/><path fill="url(#c)" d="M31.5 31.5c0 .828-.672 1.499-1.5 1.5h-1.5v3H30a4.505 4.505 0 0 0 4.5-4.5v-3h-3z"/><path fill="url(#d)" d="M24 25.5a1.5 1.5 0 1 1 3 0 1.5 1.5 0 0 1-3 0z"/><path fill="url(#e)" d="M34.5 22.5v-3h6v3z"/><path fill="url(#f)" d="M36 25.5a1.5 1.5 0 1 1 3 0 1.5 1.5 0 0 1-3 0z"/></g></svg>