<svg xmlns="http://www.w3.org/2000/svg" width="217" height="29"><path d="M212.772 20.08l-.117-4.228-1.41-1.174c-1.995 1.174-3.522 2.818-4.11 3.758.94-.587 1.88-.587 2.232-.587 1.409 0 2.818.939 3.405 2.23zm1.996-9.394c-.587.352-1.056.47-1.878.47-1.292 0-2.584-.94-3.053-2.114v4.11l1.291 1.056c1.057-.704 2.818-2.113 3.64-3.522zm1.292 3.522h.118v4.228l-5.05 3.053c-.352-.353-1.057-1.175-2.23-1.175-.94 0-1.41.588-1.41.94 0 .587.235.704.47.94l-.118.234c-.939-.352-1.526-1.174-1.526-2.348 0-.94.352-2.114 2.348-3.875l-1.996-1.527v-4.227l5.284-2.936c.587.705 1.175 1.174 2.114 1.174.94 0 1.409-.587 1.644-1.174h.235v.705c0 1.174-.587 2.935-2.114 4.227l2.231 1.761zm-13.738-.704l-2.584-4.11-.235.117v5.754zm3.17 4.11l-5.284 4.227-4.11-2.936v-7.984l6.106-3.288 2.818 4.227v.117l-5.519 3.758v1.409l2.936 2.348 2.936-2.23zm-10.333 1.409v.352l-3.64 2.466-2.701-2.466.822-.822v-7.045l-1.88-1.644-.938.587v7.75l1.056 1.057-2.583 2.348-2.7-2.231.939-.94V11.39l-1.762-1.644-1.056.705v7.985l1.056 1.056-2.583 2.349-2.7-2.231.939-.94v-7.632l-1.175-1.292-.822.587-.117-.352 3.405-2.348 2.114 2.466 3.288-2.466 2.7 2.466 3.523-2.466 2.701 2.466.94-.822.234.234-1.174.94v7.985l1.292 1.174.822-.587zm-19.61.117zm0 0l.117.352-3.522 2.349-2.584-2.349-.822.588-.117-.235 1.526-1.174v-7.633l-1.056-1.292-.822.587-.235-.352 3.405-2.348 2.114 2.466.822-.705.234.235-1.174.822v8.102l1.174 1.174zm-3.523-17.379l2.114 2.232v.117l-2.349 1.996h-.235l-1.996-2.23v-.118l2.349-1.997zm-14.208 6.811l-2.466 1.057c-.235.704-.352 1.644-.352 2.466 0 1.996.47 3.405 1.291 4.462l1.41-.705zm10.098-5.636c0 2.23-1.761 3.405-3.522 3.405v3.523l1.761 1.526v.118l-1.879 1.526v4.815c1.292-.705 2.349-2.114 3.053-3.64h.235c0 3.874-3.053 7.632-7.75 7.632-4.345 0-8.22-3.523-8.22-8.22 0-3.992 3.17-7.163 6.694-8.102l.117.235c-1.174.822-2.466 1.879-3.053 3.405l5.871-2.583v8.22l-4.814 2.348c1.291 1.41 2.818 1.879 4.58 1.879.939 0 1.995-.118 2.935-.705V13.27l-1.761-1.527v-.117l1.76-1.526V6.46c-.939-.118-2.7-.47-4.344-.94-1.879-.587-3.288-1.057-4.344-1.057-1.175 0-1.644.822-1.644 1.292 0 .704.352.94.704 1.174l-.117.235c-.47-.235-1.762-.822-1.762-2.583 0-1.997 1.644-3.758 3.993-3.758 1.174 0 2.583.47 4.11.94 1.291.47 3.053.939 3.875.939 1.056 0 1.409-.705 1.409-1.174 0-.822-.822-1.175-1.88-1.175V0c1.762 0 3.993.587 3.993 2.936zm-32.409 15.617V5.284c0-1.409-.704-1.526-1.174-1.761v-.235L138.56.47h.118v18.083l1.174 1.174.94-.587.234.235-3.523 2.349-2.583-2.349-.704.587-.235-.235 1.526-1.174zm12.917.587l-3.993 2.701-5.401-8.22 3.875-5.988h.235c.47.47 1.174.939 1.996.939.822 0 1.41-.47 1.761-.94h.235c-.117 2.35-1.761 3.758-2.935 3.758-1.175 0-1.762-.587-2.466-.94l-.353.588 5.872 8.69 1.174-.705zm-16.792-7.867c-.822 0-1.526-.587-2.113-1.174v8.22l1.409 1.173 1.057-.587.117.235-3.64 2.466-2.818-2.348-.705.587-.235-.235 1.527-1.174v-7.398l-1.174-1.292-.94.587L124 10.1l3.522-2.349 1.997 2.231 1.996-2.23h.235c.235.351.822.586 1.291.586.353 0 .705-.235 1.057-.47h.235c-.117 1.88-1.057 3.523-2.7 3.406zm-11.86 8.454V11.39l-2.935-2.113v8.454zm3.406-9.394v7.985l-5.871 3.523-3.758-2.818-.94.704-.117-.235 1.174-.939v-7.632l5.754-3.288 3.758 2.7zm-16.087 8.338v-5.05c-.353-.235-.822-.587-1.41-.587-.587 0-1.174.352-1.409.587v6.928h.94c1.292 0 1.879-.94 1.879-1.878zm0-8.572c-.235.234-.822.587-1.41.587-.587 0-1.174-.353-1.409-.587v3.053c.235-.235.822-.588 1.41-.588.587 0 1.174.353 1.409.588zm0-.47V5.167l-1.644-1.527-1.175.822V9.63c.235.352.822.704 1.41.704.587 0 1.056-.352 1.409-.704zM112.14 2.7l-1.41 1.174v14.443c0 2.466-1.526 3.053-3.287 3.053-1.174 0-2.466-.352-3.875-.704a14.077 14.077 0 0 0-3.64-.47c-1.996 0-2.818.822-2.818 1.761 0 1.175.939 1.527 1.761 1.527.47 0 2.114-.235 3.758-.587 1.409-.235 3.405-.587 4.344-.587 1.879 0 3.64 1.056 3.64 2.818 0 1.761-1.174 2.935-3.053 3.288v-.235c.47-.118.822-.47.822-1.292 0-.587-.352-1.057-1.291-1.057-.705 0-2.231.353-3.406.587-1.409.353-2.818.588-4.462.588-2.348 0-3.875-1.41-3.875-3.406 0-1.409.705-2.7 2.466-3.288v-7.28h-.47c-.939 0-1.526.235-1.526.94 0 .234.117.587.587.822v.234c-1.409 0-1.879-1.409-1.879-2.348 0-1.527 1.292-2.7 3.406-2.818v-4.58c0-1.526-.588-1.996-1.292-1.996-.705 0-1.057.587-1.174 1.292h-.353c0-1.644 1.41-3.288 3.523-3.288 2.114 0 2.936 1.644 2.936 2.818l.235 15.852c.822.235 1.878.47 2.23.47l-.117-19.023h.352v2.584l3.875-2.819 2.584 2.349 1.174-1.057zM90.064 8.924l.235.235-1.526 1.174v7.868l-6.224 3.64-3.288-1.996-2.935 1.996-2.701-2.349-1.174.94-.235-.235 1.291-.94v-6.81c0-1.057-.587-1.526-1.174-2.114-.587-.587-1.174-1.056-1.174-2.23 0-2.232 2.466-3.171 3.405-3.171v.235c-.352.235-1.057.587-1.057 1.291 0 .822.47 1.175 1.292 1.762.94.587 1.761 1.057 1.761 2.7v7.046l2.466 1.761.353-.235v-8.454l-1.057-1.057 2.583-2.348 2.7 2.583-.939.587v7.28l2.819 1.762v-8.807l-1.057-1.057 2.583-2.348 2.231 1.878.822-.587zm-22.193 4.58l-2.583-4.11-.235.117v5.754zm3.053 3.757l.118.47-5.285 4.227-3.992-2.935-1.057.822-.235-.235 1.175-.94v-7.75l6.106-3.287 2.818 4.227v.117l-5.52 3.758v1.409l2.936 2.348 2.936-2.23zM62.352 1.88c0 1.996-1.644 3.405-3.405 3.523V21.84h-.705L48.848 5.4v11.743c1.527.235 2.231.587 3.523 1.761l.822-.94.235.236-3.405 3.757c-.588-.704-1.41-1.291-2.349-1.291-.94 0-1.644.47-1.644 1.526 0 .822.587 1.41 1.879 1.527v.235c-2.114.117-3.992-.94-3.992-3.17 0-2.35 1.996-3.758 4.462-3.758v-4.932h-.587c-.822 0-1.292.47-1.292 1.057 0 .352.117.587.352.822v.234c-1.409-.352-1.879-1.761-1.879-2.7 0-1.762 1.41-2.701 3.523-2.701V4.932c-.352-.587-.94-1.174-1.526-1.174-.822 0-1.175.822-1.292 1.526h-.352c-.235-2.583 1.409-4.227 3.288-4.227 1.643 0 2.465 1.292 3.053 2.231l6.928 11.86V5.402c-1.644-.118-2.232-.588-2.936-1.175l-1.174 1.057-.235-.235 3.405-3.875c.47.47 1.174 1.057 2.231 1.057 1.174 0 1.644-.47 1.996-1.409h.235c.118.352.235.705.235 1.057zm-25.48 11.625l-2.584-4.11-.235.117v5.754zm3.052 3.757l.118.47-5.284 4.227-3.993-2.935-1.057.822-.235-.235 1.175-.94v-7.75l6.106-3.287 2.818 4.227v.117l-5.52 3.758v1.409l2.937 2.348 2.935-2.23zm-21.488 1.292l.117-13.269c0-1.291-.705-1.526-1.174-1.761v-.235L21.489.47h.234v9.629l3.288-2.466 2.936 2.466.94-.705.234.235-1.057.822v7.75c0 5.754-3.053 6.81-6.34 6.693v-.352c1.996-.705 2.935-1.41 2.935-5.871v-7.163l-1.996-1.644-.94.704v7.985l1.175 1.174.94-.587.117.235-3.523 2.349-2.584-2.349-.704.587-.235-.235 1.527-1.174zM5.989 8.572L3.523 9.629c-.235.704-.235 1.644-.235 2.466 0 1.996.47 3.405 1.292 4.462l1.409-.705zm10.215-5.636c0 2.23-1.76 3.405-3.522 3.405v3.64l1.879 1.527v.117l-1.88 1.527v4.814c1.292-.705 2.35-2.114 3.054-3.64h.235c0 3.875-3.053 7.632-7.75 7.632-4.345 0-8.22-3.522-8.22-8.22 0-3.992 3.17-7.28 6.693-8.219l.118.352c-1.292.705-2.584 1.762-3.053 3.288l5.87-2.583v8.102l-4.814 2.349c1.292 1.409 2.819 1.878 4.58 1.878.94 0 1.996-.117 2.936-.704v-5.05l-1.762-1.526v-.117L12.33 9.98V6.34c-.94-.117-2.701-.47-4.345-.94-1.879-.587-3.288-1.056-4.345-1.056-1.174 0-1.644.822-1.644 1.291 0 .705.352.94.587 1.175l-.117.235C1.996 6.81.705 6.224.705 4.462.705 2.466 2.348.705 4.697.705c1.174 0 2.583.47 4.11 1.056 1.291.47 3.053.94 3.875.94 1.057 0 1.409-.705 1.409-1.174 0-.822-.822-1.175-1.879-1.175V0c1.761 0 3.993.587 3.993 2.936z"/></svg>