<svg xmlns="http://www.w3.org/2000/svg" width="198" height="11"><defs><linearGradient id="a" x1="4.55" x2="197.67" y1="1.41" y2="10.18" gradientUnits="userSpaceOnUse"><stop offset="0" stop-color="#e2e8e6"/><stop offset=".5" stop-color="#dbe6e9"/><stop offset="1" stop-color="#ececec"/></linearGradient></defs><path fill="url(#a)" d="M195 8.8c0-.795.57-1.395 1.335-1.395s1.335.6 1.335 1.395c0 .78-.57 1.38-1.335 1.38S195 9.58 195 8.8zm-5.46-4.08c1.155 0 1.785-.495 1.785-1.455 0-.96-.63-1.29-1.785-1.29h-1.14V4.72zm-3.345-4.5h3.525c2.07 0 3.765.72 3.765 3.045 0 1.44-.69 2.355-1.74 2.82l2.22 3.915h-2.475l-1.875-3.525H188.4V10h-2.205zm-8.07 0h6.12v1.86h-3.915v1.965h3.33V5.89h-3.33v2.25h4.065V10h-6.27zm-5.205 9.96c-1.275 0-2.625-.48-3.615-1.41l1.26-1.515c.705.6 1.605 1.02 2.415 1.02.915 0 1.365-.36 1.365-.945 0-.615-.555-.81-1.41-1.17l-1.275-.54c-1.005-.405-1.965-1.245-1.965-2.67 0-1.62 1.44-2.91 3.48-2.91 1.125 0 2.31.45 3.15 1.29L175.2 2.725c-.645-.495-1.245-.78-2.025-.78-.765 0-1.245.33-1.245.885 0 .6.645.81 1.485 1.155l1.26.51c1.185.48 1.935 1.275 1.935 2.655 0 1.62-1.35 3.03-3.69 3.03zm-7.92 0c-1.275 0-2.625-.48-3.615-1.41l1.26-1.515c.705.6 1.605 1.02 2.415 1.02.915 0 1.365-.36 1.365-.945 0-.615-.555-.81-1.41-1.17l-1.275-.54c-1.005-.405-1.965-1.245-1.965-2.67 0-1.62 1.44-2.91 3.48-2.91 1.125 0 2.31.45 3.15 1.29l-1.125 1.395c-.645-.495-1.245-.78-2.025-.78-.765 0-1.245.33-1.245.885 0 .6.645.81 1.485 1.155l1.26.51c1.185.48 1.935 1.275 1.935 2.655 0 1.62-1.35 3.03-3.69 3.03zM153.945.22h6.12v1.86h-3.915v1.965h3.33V5.89h-3.33v2.25h4.065V10h-6.27zm-5.475 8.07c1.2 0 1.815-.42 1.815-1.32 0-.855-.6-1.2-1.815-1.2h-1.245v2.52zm-.21-4.155c1.08 0 1.545-.45 1.545-1.155 0-.765-.495-1.05-1.53-1.05h-1.05v2.205zM145.02.22h3.345c2.025 0 3.6.555 3.6 2.43 0 .87-.48 1.815-1.275 2.115v.06c.99.255 1.755.99 1.755 2.295 0 1.995-1.68 2.88-3.795 2.88h-3.63zm-4.59 8.58c0-.795.57-1.395 1.335-1.395s1.335.6 1.335 1.395c0 .78-.57 1.38-1.335 1.38s-1.335-.6-1.335-1.38zM130.71.22h2.205v3.765h3.375V.22h2.22V10h-2.22V5.92h-3.375V10h-2.205zm-4.5 9.96c-2.475 0-4.545-1.725-4.545-5.01 0-3.24 2.145-5.13 4.62-5.13 1.26 0 2.28.6 2.94 1.275l-1.17 1.41c-.495-.45-1.02-.78-1.725-.78-1.335 0-2.4 1.185-2.4 3.15 0 2.01.93 3.18 2.37 3.18.795 0 1.425-.405 1.905-.915l1.17 1.38c-.81.945-1.89 1.44-3.165 1.44zM115.65.22h2.655l3.06 9.78h-2.34l-.6-2.325h-2.985l-.6 2.325h-2.25zm.24 5.73h2.085l-.225-.9c-.27-.975-.54-2.13-.795-3.15h-.06c-.24 1.035-.495 2.175-.765 3.15zM106.71.22h6.165v1.86h-3.96v2.265h3.39v1.86h-3.39V10h-2.205zm-9.825 0h2.265l2.55 4.86.96 2.16h.06c-.09-1.035-.27-2.415-.27-3.57V.22h2.1V10h-2.265l-2.55-4.875-.96-2.13h-.06c.09 1.08.27 2.385.27 3.54V10h-2.1zm-4.365 0h2.205V10H92.52zm-8.07 0h6.12v1.86h-3.915v1.965h3.33V5.89h-3.33v2.25h4.065V10h-6.27zM79.86 8.8c0-.795.57-1.395 1.335-1.395s1.335.6 1.335 1.395c0 .78-.57 1.38-1.335 1.38s-1.335-.6-1.335-1.38zM68.82.22h2.415l1.575 4.35c.195.57.375 1.2.57 1.8h.06c.195-.6.36-1.23.555-1.8L75.54.22h2.4V10h-2.01V6.415c0-.96.18-2.385.285-3.33h-.06L75.36 5.41l-1.395 3.735H72.75L71.355 5.41l-.78-2.325h-.06c.105.945.285 2.37.285 3.33V10h-1.98zm-6.63 0h2.655l3.06 9.78h-2.34l-.6-2.325H61.98L61.38 10h-2.25zm.24 5.73h2.085l-.225-.9c-.27-.975-.54-2.13-.795-3.15h-.06c-.24 1.035-.495 2.175-.765 3.15zM51.555 8.77l1.26-1.515c.705.6 1.605 1.02 2.415 1.02.915 0 1.365-.36 1.365-.945 0-.615-.555-.81-1.41-1.17l-1.275-.54c-1.005-.405-1.965-1.245-1.965-2.67 0-1.62 1.44-2.91 3.48-2.91 1.125 0 2.31.45 3.15 1.29L57.45 2.725c-.645-.495-1.245-.78-2.025-.78-.765 0-1.245.33-1.245.885 0 .6.645.81 1.485 1.155l1.26.51c1.185.48 1.935 1.275 1.935 2.655 0 1.62-1.35 3.03-3.69 3.03-1.275 0-2.625-.48-3.615-1.41zM42.36.22h2.265l2.55 4.86.96 2.16h.06c-.09-1.035-.27-2.415-.27-3.57V.22h2.1V10H47.76l-2.55-4.875-.96-2.13h-.06c.09 1.08.27 2.385.27 3.54V10h-2.1zm-4.365 0H40.2V10h-2.205zm-8.07 0h6.12v1.86H32.13v1.965h3.33V5.89h-3.33v2.25h4.065V10h-6.27zm-11.28 0h2.415l1.575 4.35c.195.57.375 1.2.57 1.8h.06c.195-.6.36-1.23.555-1.8L25.365.22h2.4V10h-2.01V6.415c0-.96.18-2.385.285-3.33h-.06l-.795 2.325-1.395 3.735h-1.215L21.18 5.41l-.78-2.325h-.06c.105.945.285 2.37.285 3.33V10h-1.98zm-8.07 0h6.12v1.86H12.78v1.965h3.33V5.89h-3.33v2.25h4.065V10h-6.27zM.69 5.17C.69 1.93 2.85.04 5.46.04c1.41 0 2.43.615 3.075 1.275L7.38 2.725c-.495-.435-1.005-.78-1.845-.78-1.515 0-2.58 1.185-2.58 3.15 0 2.01.915 3.18 2.745 3.18.405 0 .81-.105 1.05-.3v-1.68H5.13v-1.8H8.7v4.5c-.675.66-1.86 1.185-3.225 1.185C2.79 10.18.69 8.455.69 5.17z"/></svg>