<svg width="125" height="39" viewBox="0 0 125 39" fill="none" xmlns="http://www.w3.org/2000/svg">
<path d="M4.13445 0.559814C4.13445 0.559814 0 1.40249 0 5.65591C0 9.90895 0 31.6729 0 31.6729C0 31.6729 0.459071 26.4316 4.13445 26.4316H82L74.0596 13.0347L82 0.559814H4.13445Z" fill="#DD133B"/>
<path d="M22.61 10.5714H24.09L26.68 17.6714H25L24.45 16.0814H22.24L21.7 17.6714H20.02L22.61 10.5714ZM24.18 14.9514L23.35 12.4414L22.5 14.9514H24.18ZM29.6492 13.3914H30.0192L32.0892 10.5714H33.9392L31.3892 14.0014L34.1692 17.6714H32.3392L30.1692 14.8814H29.6492V17.6714H28.0092V10.5714H29.6492V13.3914ZM40.4584 17.6714H35.3184V10.5714H36.9584V16.2314H39.3684V10.5714H41.0084V16.2314H42.0384V19.3914H40.4584V17.6714ZM45.1854 15.1214L48.5254 10.5714H49.7454V17.6714H48.1054V13.2314L44.8054 17.6714H43.5354V10.5714H45.1854V15.1214ZM55.4323 17.6714V15.1114H54.5823L53.0023 17.6714H51.2223L52.9423 14.9214C52.5423 14.7481 52.2257 14.4814 51.9923 14.1214C51.7657 13.7547 51.6523 13.3281 51.6523 12.8414C51.6523 12.5214 51.709 12.2247 51.8223 11.9514C51.9423 11.6781 52.1023 11.4381 52.3023 11.2314C52.509 11.0247 52.7523 10.8647 53.0323 10.7514C53.319 10.6314 53.6323 10.5714 53.9723 10.5714H57.0723V17.6714H55.4323ZM55.4323 11.9714H54.1823C54.0757 11.9714 53.969 11.9914 53.8623 12.0314C53.7623 12.0647 53.669 12.1181 53.5823 12.1914C53.5023 12.2581 53.4357 12.3481 53.3823 12.4614C53.3357 12.5681 53.3123 12.6947 53.3123 12.8414C53.3123 13.1347 53.3957 13.3547 53.5623 13.5014C53.729 13.6414 53.929 13.7114 54.1623 13.7114H55.4323V11.9714Z" fill="white"/>
</svg>
