<svg width="42" height="24" viewBox="0 0 42 24" fill="none" xmlns="http://www.w3.org/2000/svg">
<path d="M22.5738 23.255L21.2014 6.27062C21.1743 5.93557 20.8945 5.67742 20.5583 5.67742H16.8737V4.86065C16.8737 2.18047 14.722 0 12.0417 0H11.9566C9.27639 0 7.06727 2.18047 7.06727 4.86065V5.67742H3.44C3.10383 5.67742 2.824 5.93557 2.79691 6.27062L1.42056 23.3029C1.40602 23.4825 1.46727 23.6599 1.58942 23.7923C1.71157 23.9246 1.88362 24 2.06366 24H21.9346C21.9351 24 21.9358 24 21.9363 24C22.2927 24 22.5815 23.7112 22.5815 23.3548C22.5815 23.3209 22.5789 23.2875 22.5738 23.255ZM8.35759 4.86065C8.35759 2.89196 9.98787 1.29032 11.9566 1.29032H12.0417C14.0104 1.29032 15.5834 2.89196 15.5834 4.86065V5.67742H8.35759V4.86065Z" fill="#337D5A"/>
<circle cx="21.5" cy="7.5" r="7.5" fill="#93B474"/>
<path d="M24.756 7.484C24.756 8.012 24.676 8.5 24.516 8.948C24.364 9.388 24.148 9.772 23.868 10.1C23.596 10.42 23.272 10.672 22.896 10.856C22.528 11.032 22.124 11.12 21.684 11.12C21.244 11.12 20.836 11.032 20.46 10.856C20.084 10.672 19.76 10.42 19.488 10.1C19.216 9.772 19 9.388 18.84 8.948C18.688 8.5 18.612 8.012 18.612 7.484C18.612 6.956 18.688 6.472 18.84 6.032C19 5.584 19.216 5.2 19.488 4.88C19.76 4.552 20.084 4.296 20.46 4.112C20.836 3.928 21.244 3.836 21.684 3.836C22.124 3.836 22.528 3.928 22.896 4.112C23.272 4.296 23.596 4.552 23.868 4.88C24.148 5.2 24.364 5.584 24.516 6.032C24.676 6.472 24.756 6.956 24.756 7.484ZM23.412 7.484C23.412 7.124 23.368 6.796 23.28 6.5C23.2 6.204 23.08 5.948 22.92 5.732C22.768 5.516 22.584 5.352 22.368 5.24C22.16 5.12 21.932 5.06 21.684 5.06C21.42 5.06 21.18 5.12 20.964 5.24C20.756 5.352 20.572 5.516 20.412 5.732C20.26 5.948 20.14 6.204 20.052 6.5C19.972 6.796 19.932 7.124 19.932 7.484C19.932 7.844 19.972 8.172 20.052 8.468C20.14 8.764 20.26 9.02 20.412 9.236C20.572 9.444 20.756 9.608 20.964 9.728C21.18 9.84 21.42 9.896 21.684 9.896C21.932 9.896 22.16 9.84 22.368 9.728C22.584 9.608 22.768 9.444 22.92 9.236C23.08 9.02 23.2 8.764 23.28 8.468C23.368 8.172 23.412 7.844 23.412 7.484Z" fill="white"/>
</svg>
