<svg width="22" height="24" viewBox="0 0 22 24" fill="none" xmlns="http://www.w3.org/2000/svg">
<path d="M21.5738 23.255L20.2014 6.27062C20.1743 5.93557 19.8945 5.67742 19.5583 5.67742H15.8737V4.86065C15.8737 2.18047 13.722 0 11.0417 0H10.9566C8.27639 0 6.06727 2.18047 6.06727 4.86065V5.67742H2.44C2.10383 5.67742 1.824 5.93557 1.79691 6.27062L0.420562 23.3029C0.406024 23.4825 0.467272 23.6599 0.589422 23.7923C0.711573 23.9246 0.883616 24 1.06366 24H20.9346C20.9351 24 20.9358 24 20.9363 24C21.2927 24 21.5815 23.7112 21.5815 23.3548C21.5815 23.3209 21.5789 23.2875 21.5738 23.255ZM7.35759 4.86065C7.35759 2.89196 8.98787 1.29032 10.9566 1.29032H11.0417C13.0104 1.29032 14.5834 2.89196 14.5834 4.86065V5.67742H7.35759V4.86065Z" fill="#337D5A"/>
</svg>
