<svg width="18" height="10" viewBox="0 0 18 10" fill="none" xmlns="http://www.w3.org/2000/svg">
<path d="M17.7938 5.49771C17.7936 5.49792 17.7934 5.49816 17.7931 5.49838L14.1192 9.15463C13.8439 9.42853 13.3988 9.42751 13.1248 9.15224C12.8508 8.877 12.8519 8.43181 13.1271 8.15788L15.5938 5.70313H0.703125C0.314789 5.70313 0 5.38834 0 5C0 4.61166 0.314789 4.29688 0.703125 4.29688H15.5938L13.1272 1.84212C12.8519 1.56819 12.8509 1.123 13.1248 0.847764C13.3988 0.572455 13.844 0.571506 14.1192 0.845373L17.7932 4.50163C17.7934 4.50184 17.7936 4.50208 17.7938 4.50229C18.0692 4.77714 18.0683 5.22377 17.7938 5.49771Z" fill="#337D5A"/>
</svg>
