<svg width="117" height="39" viewBox="0 0 117 39" fill="none" xmlns="http://www.w3.org/2000/svg">
<path d="M4.13445 0.559814C4.13445 0.559814 0 1.40249 0 5.65591C0 9.90895 0 31.6729 0 31.6729C0 31.6729 0.459071 26.4316 4.13445 26.4316H82L74.0596 13.0347L82 0.559814H4.13445Z" fill="#E1843E"/>
<path d="M18.82 10.5714V17.6714H17.18V14.7614H14.35V17.6714H12.71V10.5714H14.35V13.3214H17.18V10.5714H18.82ZM23.9291 17.7314C23.4024 17.7314 22.9224 17.6281 22.4891 17.4214C22.0557 17.2147 21.6857 16.9447 21.3791 16.6114C21.0724 16.2714 20.8324 15.8847 20.6591 15.4514C20.4924 15.0181 20.4091 14.5714 20.4091 14.1114C20.4091 13.6447 20.4957 13.1947 20.6691 12.7614C20.8491 12.3281 21.0957 11.9481 21.4091 11.6214C21.7291 11.2881 22.1057 11.0247 22.5391 10.8314C22.9724 10.6314 23.4457 10.5314 23.9591 10.5314C24.4857 10.5314 24.9657 10.6347 25.3991 10.8414C25.8324 11.0481 26.2024 11.3214 26.5091 11.6614C26.8157 12.0014 27.0524 12.3881 27.2191 12.8214C27.3857 13.2547 27.4691 13.6947 27.4691 14.1414C27.4691 14.6081 27.3791 15.0581 27.1991 15.4914C27.0257 15.9247 26.7824 16.3081 26.4691 16.6414C26.1557 16.9681 25.7824 17.2314 25.3491 17.4314C24.9157 17.6314 24.4424 17.7314 23.9291 17.7314ZM22.0791 14.1314C22.0791 14.4047 22.1191 14.6714 22.1991 14.9314C22.2791 15.1847 22.3957 15.4114 22.5491 15.6114C22.7091 15.8114 22.9057 15.9714 23.1391 16.0914C23.3724 16.2114 23.6391 16.2714 23.9391 16.2714C24.2524 16.2714 24.5257 16.2081 24.7591 16.0814C24.9924 15.9547 25.1857 15.7914 25.3391 15.5914C25.4924 15.3847 25.6057 15.1547 25.6791 14.9014C25.7591 14.6414 25.7991 14.3781 25.7991 14.1114C25.7991 13.8381 25.7591 13.5747 25.6791 13.3214C25.5991 13.0614 25.4791 12.8347 25.3191 12.6414C25.1591 12.4414 24.9624 12.2847 24.7291 12.1714C24.5024 12.0514 24.2391 11.9914 23.9391 11.9914C23.6257 11.9914 23.3524 12.0547 23.1191 12.1814C22.8924 12.3014 22.6991 12.4614 22.5391 12.6614C22.3857 12.8614 22.2691 13.0914 22.1891 13.3514C22.1157 13.6047 22.0791 13.8647 22.0791 14.1314ZM34.8667 15.8514C34.8667 16.1581 34.8034 16.4247 34.6767 16.6514C34.5501 16.8781 34.3767 17.0681 34.1567 17.2214C33.9367 17.3681 33.6801 17.4814 33.3867 17.5614C33.0934 17.6347 32.7834 17.6714 32.4567 17.6714H28.9967V10.5714H32.9467C33.1934 10.5714 33.4167 10.6247 33.6167 10.7314C33.8167 10.8381 33.9867 10.9781 34.1267 11.1514C34.2667 11.3181 34.3734 11.5114 34.4467 11.7314C34.5267 11.9447 34.5667 12.1647 34.5667 12.3914C34.5667 12.7314 34.4801 13.0514 34.3067 13.3514C34.1401 13.6514 33.8867 13.8781 33.5467 14.0314C33.9534 14.1514 34.2734 14.3647 34.5067 14.6714C34.7467 14.9781 34.8667 15.3714 34.8667 15.8514ZM33.1967 15.5214C33.1967 15.3014 33.1334 15.1147 33.0067 14.9614C32.8801 14.8081 32.7201 14.7314 32.5267 14.7314H30.6367V16.2814H32.4567C32.6701 16.2814 32.8467 16.2114 32.9867 16.0714C33.1267 15.9314 33.1967 15.7481 33.1967 15.5214ZM30.6367 11.9714V13.4414H32.2467C32.4267 13.4414 32.5867 13.3814 32.7267 13.2614C32.8667 13.1414 32.9367 12.9547 32.9367 12.7014C32.9367 12.4681 32.8734 12.2881 32.7467 12.1614C32.6267 12.0347 32.4801 11.9714 32.3067 11.9714H30.6367ZM38.1815 15.1214L41.5215 10.5714H42.7415V17.6714H41.1015V13.2314L37.8015 17.6714H36.5315V10.5714H38.1815V15.1214ZM50.8684 10.5714V17.6714H49.2284V14.7614H46.3984V17.6714H44.7584V10.5714H46.3984V13.3214H49.2284V10.5714H50.8684ZM54.5375 13.3914H54.9075L56.9775 10.5714H58.8275L56.2775 14.0014L59.0575 17.6714H57.2275L55.0575 14.8814H54.5375V17.6714H52.8975V10.5714H54.5375V13.3914ZM62.0967 10.5714H63.5767L66.1667 17.6714H64.4867L63.9367 16.0814H61.7267L61.1867 17.6714H59.5067L62.0967 10.5714ZM63.6667 14.9514L62.8367 12.4414L61.9867 14.9514H63.6667Z" fill="white"/>
</svg>
