<svg width="16" height="18" viewBox="0 0 16 18" fill="none" xmlns="http://www.w3.org/2000/svg">
<path d="M15.9232 16.1065C15.793 15.6621 13.6732 7.72638 13.3848 6.64644C13.0976 5.56702 12.3466 5.27838 11.5007 5.27838C11.209 5.27838 10.084 5.27838 8.7431 5.27838V4.28109C13.872 3.80376 15.2399 0 15.2399 0H0.419873C0.419873 0 1.56685 4.01798 7.05123 4.30307V5.27782C5.80345 5.27782 4.77595 5.27782 4.49913 5.27782C3.65317 5.27782 2.90281 5.56645 2.61469 6.64592C2.32681 7.72586 0.207261 15.6615 0.0768185 16.106C-0.085773 16.663 -0.035232 17.3903 1.09823 17.3903C1.22323 17.3903 1.50667 17.3903 1.90764 17.3903V18H13.9533V17.3908C14.4235 17.3908 14.7624 17.3908 14.9004 17.3908C16.0353 17.3908 16.0858 16.6635 15.9232 16.1065ZM8.00016 6.30887C10.7772 6.30887 13.0272 8.55778 13.0272 11.3346C13.0272 14.1113 10.7772 16.3608 8.00016 16.3608C5.2242 16.3608 2.97415 14.1114 2.97415 11.3346C2.97415 8.55773 5.22415 6.30887 8.00016 6.30887Z" fill="#337D5A"/>
</svg>
