<svg width="181" height="234" fill="none" xmlns="http://www.w3.org/2000/svg"><path fill-rule="evenodd" clip-rule="evenodd" d="M27.493 202.355c1.233-3.648 4.518-6.08 8.2-6.08h131.944c4.208 0 7.817 3.165 8.566 7.516l3.943 22.852c.177 1.046.141 2.134-.206 3.13-.83 2.387-2.935 3.852-5.204 3.852H24.848c-1.129 0-2.254-.296-3.185-.962-2.184-1.555-2.97-4.355-2.144-6.787l7.974-23.521zM1.179 83.574L43.753 26.6 35.56 6.835c-.722-1.743-.286-3.698 1.126-5.063C38.098.408 40.25-.133 42.252.375l40.14 10.13c3.927-.065 18.66.205 35.003 6.885 17.266 7.057 39.66 22.854 48.265 58.02 11.875 48.547.315 85.607-6.857 102.19H45.117l-10.147-9.053c-1.84-1.642-2.147-4.206-.739-6.157 9.36-12.978 31.443-45.656 39.98-65.99-3.129.954-6.672 1.57-10.417 1.397-5.329-.248-10.193-1.992-14.51-5.186l-15.585 9.273c-4.816 2.862-10.785 3.745-16.38 2.42-5.593-1.326-10.288-4.732-12.875-9.352L.836 88.514c-.889-1.581-.76-3.468.343-4.94zm59.773-31.706h7.515c3.056 0 5.53-2.21 5.53-4.934 0-2.726-2.474-4.933-5.53-4.933h-7.515c-3.056 0-5.53 2.207-5.53 4.933 0 2.723 2.474 4.934 5.53 4.934z" fill="#fff"/></svg>