<svg width="261" height="261" fill="none" xmlns="http://www.w3.org/2000/svg"><path fill-rule="evenodd" clip-rule="evenodd" d="M11.882 130.246l82.78-82.78c6.573-6.572 17.757-6.083 24.928 1.088l10.677 10.677-95.772 95.773c-5.871 5.871-15.607 5.591-22.236-.617-6.525-7.246-6.698-17.82-.377-24.141zM157.71 40.65l-13.172 13.173a15.37 15.37 0 0 0-1.375 1.582c-.09.117-.198.224-.301.328-.171.171-.379.272-.59.403-.104.084-.185.21-.312.265L39.506 158.855a24.133 24.133 0 0 1-1.743 1.582c-.194.168-.402.302-.6.473-.419.312-.814.627-1.243.902-.251.171-.523.315-.76.473-.406.245-.785.496-1.177.708-.288.154-.59.275-.877.429-.379.172-.757.37-1.153.551-.301.121-.613.225-.917.342-.392.158-.77.302-1.163.407-.314.107-.64.198-.968.292-.378.091-.77.195-1.148.286-.342.081-.67.121-1.022.185-.378.064-.76.132-1.165.169-.328.04-.67.068-1.004.095-.302.014-.58.051-.88.064l82.235 82.236c6.899 6.899 18.121 6.887 25.019-.011l117.079-117.079c6.901-6.901 6.911-18.12.011-25.02l-65.303-65.303c-6.899-6.9-18.115-6.887-25.017.014zm37.491 83.525c-7.568 7.569-19.875 7.596-27.437.034-7.551-7.551-7.537-19.872.031-27.44 7.582-7.582 19.889-7.582 27.44-.031 7.562 7.561 7.548 19.855-.034 27.437z" fill="#fff"/></svg>