<svg width="276" height="275" fill="none" xmlns="http://www.w3.org/2000/svg"><path fill-rule="evenodd" clip-rule="evenodd" d="M145.083 197.039l22.259-22.259c49.675-49.675 59.115-100.3 60.859-119.277.189-2.068-.502-4.086-1.96-5.544a6.99 6.99 0 0 0-5.481-2.01c-19.109 1.613-70.14 10.646-119.872 60.377l-22.287 22.288-6.8-1.299c-13.093-2.4-26.721 1.887-36.278 11.444l-26.59 26.59c-1.566 1.566-2.163 3.889-1.563 5.984.642 2.123 2.364 3.69 4.51 4.073l21.996 4.193c6.152 1.187 11.817 4.158 16.247 8.588l9.605 9.605-12.893 12.893c-2.37 2.37-2.381 6.167-.06 8.489l7.691 7.691c2.322 2.322 6.113 2.304 8.483-.066l12.893-12.893 9.612 9.612a31.037 31.037 0 0 1 8.587 16.247l4.194 21.995c.383 2.147 1.977 3.896 4.072 4.51 2.123.628 4.419.004 5.985-1.562l26.59-26.59c9.557-9.557 13.815-23.157 11.443-36.278l-1.242-6.801zm4.908-71.368c-8.061-8.061-8.083-21.161-.025-29.22 8.087-8.087 21.187-8.064 29.248-.004 8.068 8.068 8.062 21.141-.024 29.227-8.059 8.059-21.132 8.064-29.199-.003z" fill="#fff"/></svg>