<svg width="8" height="16" fill="none" xmlns="http://www.w3.org/2000/svg"><path fill-rule="evenodd" clip-rule="evenodd" d="M7.7.003L5.78 0C3.625 0 2.231 1.546 2.231 3.938v1.815H.301C.135 5.753 0 5.9 0 6.08V8.71c0 .18.135.326.301.326h1.93v6.638c0 .18.135.326.302.326H5.05c.167 0 .302-.146.302-.326V9.036h2.256c.166 0 .301-.146.301-.326l.002-2.63a.343.343 0 0 0-.09-.231.29.29 0 0 0-.213-.096H5.352V4.214c0-.74.163-1.115 1.054-1.115h1.293c.166 0 .301-.147.301-.327V.33c0-.18-.135-.326-.3-.327z" fill="#fff"/></svg>