<svg width="142" height="20" fill="none" xmlns="http://www.w3.org/2000/svg"><path fill-rule="evenodd" clip-rule="evenodd" d="M0 1v18l.198-.177 5.922-5.298 5.095-7.975.147-.23.232-.15L18 1H0z" fill="#fff"/><path fill-rule="evenodd" clip-rule="evenodd" d="M12.143 6.493L7 14.597 1 20h18V2l-6.857 4.493zM40.39 20h3.244V6.63H40.39V20zM42 0c1.122 0 2 1.005 2 2.256 0 1.195-.878 2.2-2 2.2-1.098 0-2-1.005-2-2.2C40 1.006 40.902 0 42 0zM51.555 19H48V6.335h3.448v1.57C52.249 6.592 53.827 6 55.243 6 58.503 6 60 8.24 60 11.02V19h-3.554v-7.388c0-1.416-.722-2.523-2.432-2.523-1.55 0-2.46 1.158-2.46 2.626V19zM73.391 13c0-2.494-1.627-3.755-3.391-3.755s-3.391 1.26-3.391 3.755c0 2.467 1.627 3.755 3.391 3.755s3.391-1.26 3.391-3.755zM77 13c0 4.05-3.012 7-7 7s-7-2.95-7-7c0-4.077 3.012-7 7-7s7 2.923 7 7zM83.216 6.868H86v3.106h-2.784v5.42c0 1.132.562 1.5 1.631 1.5.45 0 .956-.052 1.153-.105v2.895c-.337.132-1.013.316-2.11.316-2.7 0-4.387-1.5-4.387-4V9.974H77V6.868h.703c1.462 0 2.138-.894 2.138-2.052V3h3.375v3.868zM97 9.565a5.419 5.419 0 0 0-1.067-.105c-1.813 0-3.386.864-3.386 3.643V19H89V6.105h3.44v1.913C93.24 6.314 95.053 6 96.174 6c.293 0 .56.026.826.052v3.513zM107.299 14.276v-.59l-3.02.456c-.925.134-1.66.645-1.66 1.666 0 .78.572 1.532 1.742 1.532 1.523 0 2.938-.726 2.938-3.064zM103 12.02l3.292-.483c.762-.108 1.007-.484 1.007-.941 0-.94-.734-1.72-2.258-1.72-1.579 0-2.449.995-2.558 2.15l-3.21-.672C99.49 8.284 101.421 6 105.013 6c4.245 0 5.823 2.365 5.823 5.025v6.503c0 .698.081 1.639.163 2.096h-3.32c-.082-.35-.136-1.075-.136-1.586-.68 1.048-1.959 1.962-3.945 1.962C100.741 20 99 18.092 99 16.023c0-2.365 1.769-3.681 4-4.004zM120.027 16.766c1.867 0 3.322-1.413 3.322-3.831 0-2.392-1.455-3.723-3.322-3.723-1.866 0-3.349 1.358-3.349 3.75 0 2.391 1.428 3.804 3.349 3.804zm6.863.49c0 .896.055 1.875.11 2.418h-3.486a9.137 9.137 0 0 1-.137-1.549c-.604 1.06-1.977 1.875-3.789 1.875-3.843 0-6.588-2.99-6.588-7.038 0-3.913 2.663-6.984 6.478-6.984 2.334 0 3.432.951 3.816 1.658V0h3.596v17.256zM138.489 11.498c-.054-1.314-.912-2.601-2.949-2.601-1.849 0-2.868 1.394-2.948 2.601h5.897zm3.323 4.318c-.67 2.28-2.761 4.184-6.004 4.184-3.618 0-6.808-2.602-6.808-7.054C129 8.736 132.109 6 135.487 6 139.561 6 142 8.602 142 12.84c0 .509-.054 1.045-.054 1.099h-9.435c.081 1.743 1.555 3.003 3.324 3.003 1.662 0 2.573-.83 3.002-2.011l2.975.885zM31.54 16.918c1.766 0 2.821-.938 2.821-2.465 0-1.5-.95-2.546-2.769-2.546h-3.006v5.011h2.954zm-.37-8.066c1.662 0 2.664-.938 2.664-2.385 0-1.447-.923-2.358-2.69-2.358h-2.558v4.743h2.584zM31.724 1c3.64 0 5.696 2.17 5.696 5.119 0 1.956-1.16 3.537-2.716 4.073 1.82.456 3.296 2.144 3.296 4.502C38 17.776 35.732 20 32.225 20H25V1h6.724z" fill="#fff"/></svg>